<?xml version="1.0" encoding="utf-8"?>
<!-- Generator: Adobe Illustrator 16.0.4, SVG Export Plug-In . SVG Version: 6.00 Build 0)  -->
<!DOCTYPE svg PUBLIC "-//W3C//DTD SVG 1.1//EN" "http://www.w3.org/Graphics/SVG/1.1/DTD/svg11.dtd">
<svg version="1.1" id="Layer_1" xmlns="http://www.w3.org/2000/svg" xmlns:xlink="http://www.w3.org/1999/xlink" x="0px" y="0px"
	 width="500px" height="350px" viewBox="0 0 500 350" enable-background="new 0 0 500 350" xml:space="preserve">
<g id="tldr001">
	<text transform="matrix(1 0 0 1 50.8354 166.4512)" fill="#3F474F" font-family="'OpenSans-Light'" font-size="23.6507">This rucksack will last you for years and</text>
	<text transform="matrix(1 0 0 1 50.8354 197.4512)" fill="#3F474F" font-family="'OpenSans-Light'" font-size="23.6507">will be the last bag you’ll have to own.</text>
	
		<line id="good-line" fill="none" stroke="#1FAAE2" stroke-width="1.3139" stroke-miterlimit="10" x1="29.319" y1="148.714" x2="29.319" y2="197.33"/>
	<path id="good-arrow" fill="#1FAAE2" d="M470.587,190.323c0.064,0.063,0.095,0.138,0.095,0.22c0,0.09-0.026,0.166-0.095,0.229
		l-3.66,3.373c-0.102,0.09-0.213,0.109-0.334,0.06c-0.119-0.06-0.181-0.149-0.181-0.276v-2.135h-11.896
		c-0.09,0-0.161-0.029-0.219-0.086c-0.059-0.059-0.087-0.131-0.087-0.221v-1.829c0-0.091,0.028-0.162,0.087-0.222
		c0.058-0.057,0.129-0.084,0.219-0.084h11.896v-2.137c0-0.133,0.062-0.227,0.181-0.277c0.121-0.049,0.232-0.033,0.334,0.049
		L470.587,190.323L470.587,190.323z"/>
</g>
</svg>
