<?xml version="1.0" encoding="utf-8"?>
<!-- Generator: Adobe Illustrator 16.0.4, SVG Export Plug-In . SVG Version: 6.00 Build 0)  -->
<!DOCTYPE svg PUBLIC "-//W3C//DTD SVG 1.1//EN" "http://www.w3.org/Graphics/SVG/1.1/DTD/svg11.dtd">
<svg version="1.1" id="Layer_1" xmlns="http://www.w3.org/2000/svg" xmlns:xlink="http://www.w3.org/1999/xlink" x="0px" y="0px"
	 width="500px" height="350px" viewBox="0 0 500 350" enable-background="new 0 0 500 350" xml:space="preserve">
<g id="attr003">
	<g id="aesthetics003">
		<text transform="matrix(1 0 0 1 446.2324 119.3389)" fill="#3E474E" font-family="'OpenSans-Light'" font-size="23.1972">3</text>
		<text transform="matrix(1 0 0 1 278.7441 119.3389)" fill="#3E474E" font-family="'OpenSans-Light'" font-size="23.1972">Cost</text>
	</g>
	<g id="comfort003">
		<text transform="matrix(1 0 0 1 446.2324 154.3135)" fill="#3E474E" font-family="'OpenSans-Light'" font-size="23.1972">1</text>
		<text transform="matrix(1 0 0 1 278.7441 154.3135)" fill="#3E474E" font-family="'OpenSans-Light'" font-size="23.1972">Trust</text>
	</g>
	<g id="service003">
		<text transform="matrix(1 0 0 1 446.2324 189.2881)" fill="#3E474E" font-family="'OpenSans-Light'" font-size="23.1972">2</text>
		<text transform="matrix(1 0 0 1 278.7441 189.2881)" fill="#3E474E" font-family="'OpenSans-Light'" font-size="23.1972">Service</text>
	</g>
	<g id="trust003">
		<text transform="matrix(1 0 0 1 446.2324 224.2627)" fill="#3E474E" font-family="'OpenSans-Light'" font-size="23.1972">3</text>
		<text transform="matrix(1 0 0 1 278.7441 224.2627)" fill="#3E474E" font-family="'OpenSans-Light'" font-size="23.1972">Comfort</text>
	</g>
	<g id="cost003">
		<text transform="matrix(1 0 0 1 446.2324 259.2373)" fill="#3E474E" font-family="'OpenSans-Light'" font-size="23.1972">4</text>
		<text transform="matrix(1 0 0 1 278.7441 259.2373)" fill="#3E474E" font-family="'OpenSans-Light'" font-size="23.1972">Aesthetics</text>
	</g>
</g>
<g id="graph003">
	<path id="graphbg003" fill="#E5E5E5" d="M133.064,123.978c31.947,0,57.938,25.969,57.938,57.889
		c0,31.92-25.991,57.889-57.938,57.889c-31.947,0-57.938-25.969-57.938-57.889C75.126,149.947,101.117,123.978,133.064,123.978
		 M133.064,100.657c-44.877,0-81.258,36.358-81.258,81.209c0,44.85,36.381,81.209,81.258,81.209s81.258-36.359,81.258-81.209
		C214.323,137.016,177.942,100.657,133.064,100.657L133.064,100.657z"/>
	<g id="fill003">
		<defs>
			<polyline id="fcirclemask003" points="130.941,170.901 130.941,76.467 224.38,119.339 130.941,170.901 			"/>
		</defs>
		<clipPath id="fcirclemask003_1_">
			<use xlink:href="#fcirclemask003"  overflow="visible"/>
		</clipPath>
		<path id="fcircle003" clip-path="url(#fcirclemask003_1_)" fill="#D67046" d="M133.064,123.978
			c31.947,0,57.938,25.969,57.938,57.889c0,31.92-25.991,57.889-57.938,57.889c-31.947,0-57.938-25.969-57.938-57.889
			C75.126,149.947,101.117,123.978,133.064,123.978 M133.064,100.657c-44.877,0-81.258,36.358-81.258,81.209
			c0,44.85,36.381,81.209,81.258,81.209s81.258-36.359,81.258-81.209C214.323,137.016,177.942,100.657,133.064,100.657
			L133.064,100.657z"/>
	</g>
	<text transform="matrix(1 0 0 1 104.853 197.3623)" fill="#3E474E" font-family="'OpenSans-Light'" font-size="40.9048">1.7</text>
</g>
</svg>
