<?xml version="1.0" encoding="utf-8"?>
<!-- Generator: Adobe Illustrator 16.0.4, SVG Export Plug-In . SVG Version: 6.00 Build 0)  -->
<!DOCTYPE svg PUBLIC "-//W3C//DTD SVG 1.1//EN" "http://www.w3.org/Graphics/SVG/1.1/DTD/svg11.dtd">
<svg version="1.1" id="Layer_1" xmlns:sketch="http://www.bohemiancoding.com/sketch/ns"
	 xmlns="http://www.w3.org/2000/svg" xmlns:xlink="http://www.w3.org/1999/xlink" x="0px" y="0px" width="500px" height="350px"
	 viewBox="-101 -27 500 350" enable-background="new -101 -27 500 350" xml:space="preserve">
<g id="score-attrs001" transform="translate(155.000000, 0.000000)" sketch:type="MSTextLayer">
	<text transform="matrix(1 0 0 1 182.5645 92.8374)" fill="#3D464D" font-family="'OpenSans-Light'" font-size="22.0178">9</text>
	<text transform="matrix(1 0 0 1 169.9961 125.2646)" fill="#3D464D" font-family="'OpenSans-Light'" font-size="22.0178">10</text>
	<text transform="matrix(1 0 0 1 180.9551 157.6904)" fill="#3D464D" font-family="'OpenSans-Light'" font-size="22.0178">9</text>
	<text transform="matrix(1 0 0 1 180.9551 190.1162)" fill="#3D464D" font-family="'OpenSans-Light'" font-size="22.0178">8</text>
	<text transform="matrix(1 0 0 1 180.9551 222.543)" fill="#3D464D" font-family="'OpenSans-Light'" font-size="22.0178">9</text>
	<text transform="matrix(1 0 0 1 0.9033 92.8374)" fill="#3D464D" font-family="'OpenSans-Light'" font-size="22.0178">Worth</text>
	<text transform="matrix(1 0 0 1 182.5645 61.5977)" fill="#3D464D" font-family="'OpenSans-Light'" font-size="22.0178">9</text>
	<text transform="matrix(1 0 0 1 0.9033 61.5977)" fill="#3D464D" font-family="'OpenSans-Light'" font-size="22.0178">Cleanliness</text>
	<text transform="matrix(1 0 0 1 182.5645 30.3584)" fill="#3D464D" font-family="'OpenSans-Light'" font-size="22.0178">9</text>
	<text transform="matrix(1 0 0 1 0.9033 30.3584)" fill="#3D464D" font-family="'OpenSans-Light'" font-size="22.0178">Aesthetics</text>
	<text transform="matrix(1 0 0 1 182.5645 -0.8813)" fill="#3D464D" font-family="'OpenSans-Light'" font-size="22.0178">8</text>
	<text transform="matrix(1 0 0 1 0.9033 -0.8813)" fill="#3D464D" font-family="'OpenSans-Light'" font-size="22.0178">Convenience</text>
	<text transform="matrix(1 0 0 1 182.5645 -32.1211)" fill="#3D464D" font-family="'OpenSans-Light'" font-size="22.0178">2</text>
	<text transform="matrix(1 0 0 1 0.9033 -32.1211)" fill="#3D464D" font-family="'OpenSans-Light'" font-size="22.0178">Comfort</text>
	<text transform="matrix(1 0 0 1 182.5645 -63.3604)" fill="#3D464D" font-family="'OpenSans-Light'" font-size="22.0178">9</text>
	<text transform="matrix(1 0 0 1 0.9033 -63.3604)" fill="#3D464D" font-family="'OpenSans-Light'" font-size="22.0178">Friendliness</text>
	<text transform="matrix(1 0 0 1 182.5645 -94.5996)" fill="#3D464D" font-family="'OpenSans-Light'" font-size="22.0178">8</text>
	<text transform="matrix(1 0 0 1 0.9033 -94.5996)" fill="#3D464D" font-family="'OpenSans-Light'" font-size="22.0178">Saftey</text>
	<text transform="matrix(1 0 0 1 182.5645 -125.8398)" fill="#3D464D" font-family="'OpenSans-Light'" font-size="22.0178">5</text>
	<text transform="matrix(1 0 0 1 0.9033 -125.8398)" fill="#3D464D" font-family="'OpenSans-Light'" font-size="22.0178">Longevity</text>
	<text transform="matrix(1 0 0 1 182.5645 -157.0791)" fill="#3D464D" font-family="'OpenSans-Light'" font-size="22.0178">8</text>
	<text transform="matrix(1 0 0 1 0.9033 -157.0791)" fill="#3D464D" font-family="'OpenSans-Light'" font-size="22.0178">Personalization</text>
	<text transform="matrix(1 0 0 1 0.9033 125.2646)" fill="#3D464D" font-family="'OpenSans-Light'" font-size="22.0178">Quality</text>
	<text transform="matrix(1 0 0 1 0.9033 157.6904)" fill="#3D464D" font-family="'OpenSans-Light'" font-size="22.0178">Trust</text>
	<text transform="matrix(1 0 0 1 0.9033 222.543)" fill="#3D464D" font-family="'OpenSans-Light'" font-size="22.0178">Service</text>
	<text transform="matrix(1 0 0 1 0.9033 190.1162)" fill="#3D464D" font-family="'OpenSans-Light'" font-size="22.0178">Durability</text>
</g>
<g id="score-chart" transform="translate(0.000000, 188.000000)">

	<g id="score-number">
		<text transform="matrix(1 0 0 1 -5.3389 -22.4531)" fill="#3D464D" font-family="'OpenSans-Light'" font-size="38.5247">1.7</text>
		<text transform="matrix(1 0 0 1 -5.3389 24.5479)" fill="#3D464D" font-family="'OpenSans-Light'" font-size="38.5247">5.2</text>
		<text transform="matrix(1 0 0 1 -5.3389 71.5488)" fill="#3D464D" font-family="'OpenSans-Light'" font-size="38.5247">9.1</text>
	</g>

	<g id="score-overlay">
		<rect x="-14.5" y="-16.167" fill="#FFFFFF" width="72.667" height="96.667"/>
		<rect x="-14.5" y="-153.642" fill="#FFFFFF" width="72.667" height="96.667"/>
	</g>

	<circle id="bg-score" sketch:type="MSShapeGroup" fill="none" stroke="#E5E5E5" stroke-width="19.4622" cx="21.231" cy="-37.437" r="66.408"></circle>
	<circle id="orange-score" class="animate-score" sketch:type="MSShapeGroup" fill="none" stroke="#F9632D" stroke-width="19.4622" stroke-dash-offset="348" cx="21.231" cy="-37.437" r="66.408" transform="translate(21.231, -37.437) rotate(-90) translate(-21.231, 37.437)"></circle>
	<g id="score-color">
		<circle id="blue-score" class="animate-score" sketch:type="MSShapeGroup" fill="none" stroke="#24ADE3" stroke-width="19.4622" cx="21.231" cy="-37.437" r="66.408" transform="translate(21.231, -37.437) rotate(-90) translate(-21.231, 37.437)">
		</circle>
	</g>
</g>
<g id="overay">
	<rect x="128.833" y="-198.833" fill="#FFFFFF" width="249.333" height="268.667"/>
	<rect x="128.833" y="233.167" fill="#FFFFFF" width="249.333" height="316"/>
</g>
</svg>
