<?xml version="1.0" encoding="utf-8"?>
<!-- Generator: Adobe Illustrator 16.0.4, SVG Export Plug-In . SVG Version: 6.00 Build 0)  -->
<!DOCTYPE svg PUBLIC "-//W3C//DTD SVG 1.1//EN" "http://www.w3.org/Graphics/SVG/1.1/DTD/svg11.dtd">
<svg version="1.1" id="Layer_1" xmlns="http://www.w3.org/2000/svg" xmlns:xlink="http://www.w3.org/1999/xlink" x="0px" y="0px"
	 width="500px" height="350px" viewBox="0 0 500 350" enable-background="new 0 0 500 350" xml:space="preserve">
<g id="attr001">
	<g id="cost001">
		<text transform="matrix(1 0 0 1 446.2324 119.2598)" fill="#3E474E" font-family="'OpenSans-Light'" font-size="23.1972">9</text>
		<text transform="matrix(1 0 0 1 278.7441 119.2598)" fill="#3E474E" font-family="'OpenSans-Light'" font-size="23.1972">Cost</text>
	</g>
	<g id="quality001">
		<text transform="matrix(1 0 0 1 432.9922 154.2344)" fill="#3E474E" font-family="'OpenSans-Light'" font-size="23.1972">10</text>
		<text transform="matrix(1 0 0 1 278.7441 154.2344)" fill="#3E474E" font-family="'OpenSans-Light'" font-size="23.1972">Quality</text>
	</g>
	<g id="trust001">
		<text transform="matrix(1 0 0 1 444.5059 189.208)" fill="#3E474E" font-family="'OpenSans-Light'" font-size="23.1972">9</text>
		<text transform="matrix(1 0 0 1 278.7441 189.208)" fill="#3E474E" font-family="'OpenSans-Light'" font-size="23.1972">Trust</text>
	</g>
	<g id="durability001">
		<text transform="matrix(1 0 0 1 444.5059 224.1826)" fill="#3E474E" font-family="'OpenSans-Light'" font-size="23.1972">8</text>
		<text transform="matrix(1 0 0 1 278.7441 224.1826)" fill="#3E474E" font-family="'OpenSans-Light'" font-size="23.1972">Durability</text>
	</g>
	<g id="service001">
		<text transform="matrix(1 0 0 1 444.5059 259.1582)" fill="#3E474E" font-family="'OpenSans-Light'" font-size="23.1972">9</text>
		<text transform="matrix(1 0 0 1 278.7441 259.1582)" fill="#3E474E" font-family="'OpenSans-Light'" font-size="23.1972">Service</text>
	</g>
</g>
<g id="graph001">
	<path id="graphbg001" fill="#E5E5E5" d="M133.064,123.897c31.947,0,57.938,25.969,57.938,57.89
		c0,31.919-25.991,57.887-57.938,57.887c-31.947,0-57.938-25.968-57.938-57.887C75.126,149.867,101.117,123.897,133.064,123.897
		 M133.064,100.578c-44.877,0-81.258,36.359-81.258,81.209c0,44.85,36.381,81.207,81.258,81.207s81.258-36.357,81.258-81.207
		C214.323,136.937,177.942,100.578,133.064,100.578L133.064,100.578z"/>
	<g id="fill001">
		<defs>
			<polygon id="fcirclemask001" points="130.941,76.387 130.941,170.821 100.525,76.387 28.525,175.001 86.432,273.613 
				194.898,255.938 224.38,179.604 189.583,115.521 			"/>
		</defs>
		<clipPath id="fcirclemask001_1_">
			<use xlink:href="#fcirclemask001"  overflow="visible"/>
		</clipPath>
		<path id="fcircle001" clip-path="url(#fcirclemask001_1_)" fill="#22ACE3" d="M133.064,123.897
			c31.947,0,57.938,25.969,57.938,57.89c0,31.919-25.991,57.887-57.938,57.887c-31.947,0-57.938-25.968-57.938-57.887
			C75.126,149.867,101.117,123.897,133.064,123.897 M133.064,100.578c-44.877,0-81.258,36.359-81.258,81.209
			c0,44.85,36.381,81.207,81.258,81.207s81.258-36.357,81.258-81.207C214.323,136.937,177.942,100.578,133.064,100.578
			L133.064,100.578z"/>
	</g>
	<text transform="matrix(1 0 0 1 104.853 197.2822)" fill="#3E474E" font-family="'OpenSans-Light'" font-size="40.9048">9.1</text>
</g>
</svg>
