<?xml version="1.0" encoding="utf-8"?>
<!-- Generator: Adobe Illustrator 16.0.4, SVG Export Plug-In . SVG Version: 6.00 Build 0)  -->
<!DOCTYPE svg PUBLIC "-//W3C//DTD SVG 1.1//EN" "http://www.w3.org/Graphics/SVG/1.1/DTD/svg11.dtd">
<svg version="1.1" id="Layer_1" xmlns="http://www.w3.org/2000/svg" xmlns:xlink="http://www.w3.org/1999/xlink" x="0px" y="0px"
	 width="500px" height="350px" viewBox="0 0 500 350" enable-background="new 0 0 500 350" xml:space="preserve">
<g id="acme001" opacity="0.8">
	<text transform="matrix(1 0 0 1 222.3838 108.6309)" font-family="'HaasGrotDisp-75Bold'" font-size="58.1926">ACME</text>
	<path d="M135.947,71.264c5.173,0,10.217-0.119,15.251,0.045c2.901,0.096,5.018-0.76,7.031-2.951
		c1.183-1.287,3.354-2.316,5.096-2.339c13.774-0.185,27.554-0.006,41.329-0.162c3.368-0.039,5.099,1.452,5.599,4.409
		c0.439,2.595,0.58,5.287,0.455,7.919c-0.155,3.253-1.906,5.286-5.222,6.256c-3.311,0.969-6.656,2.153-9.632,3.861
		c-5.027,2.884-4.85,6.874,0.231,9.62c1.864,1.009,4.059,1.414,5.897,2.455c1.408,0.799,3.544,2.193,3.515,3.271
		c-0.072,2.627-1.69,4.797-4.796,4.891c-2.939,0.088-5.884,0.044-8.826,0.046c-9.629,0.007-19.262,0.142-28.884-0.107
		c-1.793-0.047-3.984-1.259-5.205-2.632c-1.516-1.704-1.124-3.767,1.451-4.729c2.375-0.888,4.745-1.79,7.096-2.74
		c3.979-1.607,4.501-4.724,0.764-6.941c-2.668-1.584-6.003-2.021-9.006-3.067c-5.49-1.912-11.229-3.367-16.338-6.023
		C138.005,80.396,135.498,76.625,135.947,71.264z"/>
</g>
<g id="poweredby001">

		<text transform="matrix(1 0 0 1 164.8774 183.3965)" opacity="0.5" enable-background="new    " font-family="'OpenSans-Light'" font-size="31.654">powered by</text>
</g>
<g id="loopfirst001">
	<path fill="#A6D4E2" d="M150.83,227.928c19.063,0,17.328,28.098,17.328,28.098v6.148c0,9.94-3.656,27.902-17.325,27.902
		c0.719,0,28.136-2.373,28.136-27.906v-6.148C178.968,229.779,150.83,227.928,150.83,227.928z"/>
	<path fill="#A6D4E2" d="M127.714,262.174v-4.012h-0.005v-2.137h-10.911v2.137h0.005v4.012
		c-0.005,26.727,27.292,27.902,28.018,27.902C131.143,290.076,127.714,272.114,127.714,262.174z"/>
	<path fill="#27ACE3" d="M178.956,262.174c0,19.059-27.941,16.991-27.941,16.991h-6.196c0,0-28.015,2.067-28.015-16.991
		c0,0-1.413,27.902,28.018,27.902h6.197C180.45,290.076,178.956,262.174,178.956,262.174z"/>
	<polygon fill="#A6D4E2" points="108.766,257.598 122.278,244.09 135.784,257.598 	"/>
	<path fill="#27ACE3" d="M151.028,227.928l-7.172-0.015v10.743l7.172,0.014c9.936,0,27.94,3.68,27.94,17.355
		C178.968,255.298,180.137,227.928,151.028,227.928z"/>
	<text transform="matrix(1 0 0 1 194.4917 276.6768)" font-family="'OpenSans-Light'" font-size="51.3">Loopfirst</text>
</g>
</svg>
