<?xml version="1.0" encoding="utf-8"?>
<!-- Generator: Adobe Illustrator 16.0.4, SVG Export Plug-In . SVG Version: 6.00 Build 0)  -->
<!DOCTYPE svg PUBLIC "-//W3C//DTD SVG 1.1//EN" "http://www.w3.org/Graphics/SVG/1.1/DTD/svg11.dtd">
<svg version="1.1" id="Layer_1" xmlns="http://www.w3.org/2000/svg" xmlns:xlink="http://www.w3.org/1999/xlink" x="0px" y="0px"
	 width="500px" height="350px" viewBox="0 0 500 350" enable-background="new 0 0 500 350" xml:space="preserve">
<g id="title001">
	<text transform="matrix(1 0 0 1 173.3945 51.6216)" fill="#2ABBE8" font-family="'OpenSans-Light'" font-size="31.204">Add to List</text>
</g>
<g id="list001">
	<g>
		<path fill="#2ABBE8" d="M247.75,69.324l12.7,12.7l0.293,0.293h0.414h84.369c0.996,0,1.807,0.81,1.807,1.805v228.688
			c0,0.996-0.811,1.807-1.807,1.807H150.14c-0.997,0-1.808-0.811-1.808-1.807V84.122c0-0.995,0.811-1.805,1.808-1.805h84.202h0.414
			l0.293-0.293L247.75,69.324 M247.75,67.91l-13.407,13.407H150.14c-1.551,0-2.808,1.261-2.808,2.805v228.688
			c0,1.551,1.258,2.807,2.808,2.807h195.385c1.549,0,2.807-1.262,2.807-2.807V84.122c0-1.55-1.258-2.805-2.807-2.805h-84.369
			L247.75,67.91L247.75,67.91z"/>
	</g>
	<text id="FA" transform="matrix(1 0 0 1 166.5332 118.6465)" fill="#2ABBE8" font-family="'FontAwesome'" font-size="20.0599"></text>
	<path fill="#2ABBE8" d="M183.1,143.066c0.418,0.066,0.627,0.239,0.627,0.515c0,0.164-0.097,0.343-0.291,0.538l-4.063,3.962
		l0.962,5.598c0.008,0.052,0.012,0.126,0.012,0.224c0,0.156-0.039,0.289-0.117,0.397c-0.078,0.108-0.192,0.162-0.342,0.162
		c-0.142,0-0.291-0.045-0.448-0.135l-5.025-2.642l-5.026,2.642c-0.164,0.09-0.313,0.135-0.448,0.135
		c-0.156,0-0.274-0.054-0.353-0.162c-0.079-0.108-0.117-0.241-0.117-0.397c0-0.045,0.008-0.119,0.022-0.224l0.963-5.598
		l-4.075-3.962c-0.187-0.202-0.279-0.381-0.279-0.538c0-0.275,0.209-0.448,0.627-0.515l5.619-0.817l2.519-5.093
		c0.142-0.307,0.324-0.46,0.549-0.46c0.224,0,0.406,0.153,0.548,0.46l2.519,5.093L183.1,143.066L183.1,143.066z"/>
	<path fill="#2ABBE8" d="M182.293,212.008v9.312c0,0.89-0.314,1.646-0.945,2.279c-0.631,0.631-1.391,0.943-2.277,0.943h-9.314
		c-0.888,0-1.646-0.312-2.277-0.943c-0.631-0.633-0.946-1.393-0.946-2.279v-9.312c0-0.889,0.315-1.646,0.946-2.277
		s1.39-0.944,2.277-0.944h9.314c0.887,0,1.646,0.313,2.277,0.944C181.979,210.361,182.293,211.119,182.293,212.008z
		 M179.071,210.217h-9.314c-0.492,0-0.914,0.176-1.265,0.525c-0.351,0.352-0.526,0.771-0.526,1.266v9.312
		c0,0.494,0.176,0.916,0.526,1.267c0.35,0.351,0.772,0.524,1.265,0.524h9.314c0.492,0,0.914-0.174,1.264-0.524
		c0.352-0.351,0.526-0.772,0.526-1.267v-9.312c0-0.492-0.175-0.914-0.526-1.266C179.985,210.393,179.563,210.217,179.071,210.217z"
		/>
	<text transform="matrix(1 0 0 1 199.4888 117.8262)" fill="#4F5961" font-family="'OpenSans-Light'" font-size="19.6587">N</text>
	<text transform="matrix(1 0 0 1 213.667 117.8262)" fill="#4F5961" font-family="'OpenSans-Light'" font-size="19.6587">e</text>
	<text transform="matrix(1 0 0 1 224.083 117.8262)" fill="#4F5961" font-family="'OpenSans-Light'" font-size="19.6587">w List</text>
	<text transform="matrix(1 0 0 1 199.4888 153.1162)" fill="#4F5961" font-family="'OpenSans-Light'" font-size="19.6587">Want It!</text>
	<text transform="matrix(1 0 0 1 199.4888 188.4072)" fill="#4F5961" font-family="'OpenSans-Light'" font-size="19.6587">Review Later</text>
	<text transform="matrix(1 0 0 1 199.4888 223.6973)" fill="#4F5961" font-family="'OpenSans-Light'" font-size="19.6587">Gifts for Mom</text>
	<text transform="matrix(1 0 0 1 199.4888 258.9883)" fill="#4F5961" font-family="'OpenSans-Light'" font-size="19.6587">Date Nights</text>
	<text transform="matrix(1 0 0 1 199.4888 294.2783)" fill="#4F5961" font-family="'OpenSans-Light'" font-size="19.6587">Business Plan</text>
	<path fill="#2ABBE8" d="M170.832,180.284v2.149c0,0.299-0.104,0.551-0.313,0.76s-0.463,0.312-0.762,0.312h-2.149
		c-0.298,0-0.552-0.104-0.761-0.312c-0.209-0.209-0.313-0.461-0.313-0.76v-2.149c0-0.3,0.104-0.554,0.313-0.761
		c0.209-0.209,0.463-0.314,0.761-0.314h2.149c0.299,0,0.553,0.105,0.762,0.314C170.727,179.73,170.832,179.984,170.832,180.284z
		 M176.563,180.284v2.149c0,0.299-0.104,0.551-0.313,0.76s-0.463,0.312-0.762,0.312h-2.149c-0.298,0-0.552-0.104-0.761-0.312
		c-0.209-0.209-0.313-0.461-0.313-0.76v-2.149c0-0.3,0.104-0.554,0.313-0.761c0.209-0.209,0.463-0.314,0.761-0.314h2.149
		c0.299,0,0.553,0.105,0.762,0.314C176.458,179.73,176.563,179.984,176.563,180.284z M182.293,180.284v2.149
		c0,0.299-0.104,0.551-0.313,0.76s-0.463,0.312-0.762,0.312h-2.148c-0.299,0-0.553-0.104-0.762-0.312
		c-0.209-0.209-0.313-0.461-0.313-0.76v-2.149c0-0.3,0.104-0.554,0.313-0.761c0.209-0.209,0.463-0.314,0.762-0.314h2.148
		c0.299,0,0.553,0.105,0.762,0.314C182.19,179.73,182.293,179.984,182.293,180.284z"/>
	<path fill="#2ABBE8" d="M182.293,247.312v9.312c0,0.89-0.314,1.646-0.945,2.276c-0.631,0.633-1.391,0.945-2.277,0.945h-9.314
		c-0.888,0-1.646-0.312-2.277-0.945c-0.631-0.631-0.946-1.391-0.946-2.276v-9.312c0-0.89,0.315-1.646,0.946-2.276
		s1.39-0.946,2.277-0.946h9.314c0.887,0,1.646,0.315,2.277,0.946C181.979,245.667,182.293,246.425,182.293,247.312z
		 M179.071,245.521h-9.314c-0.492,0-0.914,0.176-1.265,0.523c-0.351,0.352-0.526,0.771-0.526,1.268v9.312
		c0,0.493,0.176,0.915,0.526,1.267c0.351,0.353,0.772,0.525,1.265,0.525h9.314c0.492,0,0.914-0.176,1.264-0.525
		c0.352-0.352,0.526-0.771,0.526-1.267v-9.312c0-0.492-0.175-0.914-0.526-1.268C179.985,245.697,179.563,245.521,179.071,245.521z"
		/>
	<path fill="#2ABBE8" d="M182.293,282.618v9.313c0,0.889-0.314,1.646-0.945,2.275c-0.631,0.631-1.391,0.943-2.277,0.943h-9.314
		c-0.888,0-1.646-0.312-2.277-0.943s-0.946-1.393-0.946-2.275v-9.313c0-0.888,0.315-1.647,0.946-2.278s1.39-0.945,2.277-0.945h9.314
		c0.887,0,1.646,0.314,2.277,0.945C181.979,280.971,182.293,281.73,182.293,282.618z M179.071,280.827h-9.314
		c-0.492,0-0.914,0.175-1.265,0.526c-0.351,0.351-0.526,0.771-0.526,1.265v9.313c0,0.489,0.176,0.914,0.526,1.264
		c0.351,0.353,0.772,0.527,1.265,0.527h9.314c0.492,0,0.914-0.178,1.264-0.527c0.352-0.35,0.526-0.771,0.526-1.264v-9.313
		c0-0.493-0.175-0.914-0.526-1.265C179.985,281.002,179.563,280.827,179.071,280.827z"/>
</g>
</svg>
