<?xml version="1.0" encoding="utf-8"?>
<!-- Generator: Adobe Illustrator 16.0.4, SVG Export Plug-In . SVG Version: 6.00 Build 0)  -->
<!DOCTYPE svg PUBLIC "-//W3C//DTD SVG 1.1//EN" "http://www.w3.org/Graphics/SVG/1.1/DTD/svg11.dtd">
<svg version="1.1" id="Layer_1" xmlns="http://www.w3.org/2000/svg" xmlns:xlink="http://www.w3.org/1999/xlink" x="0px" y="0px"
	 width="923.527px" height="350px" viewBox="0 0 923.527 350" enable-background="new 0 0 923.527 350" xml:space="preserve">
<g id="timeline001">
	<g>
		<defs>
			<path id="SVGID_1_" d="M4.401,0C1.97,0,0,1.969,0,4.425v341.15C0,348.017,1.961,350,4.401,350h914.722
				c2.432,0,4.401-1.97,4.401-4.425V4.425c0-2.443-1.962-4.425-4.401-4.425H4.401z"/>
		</defs>
		<clipPath id="SVGID_2_">
			<use xlink:href="#SVGID_1_"  overflow="visible"/>
		</clipPath>
		<g clip-path="url(#SVGID_2_)" enable-background="new    ">
			<g>
				<defs>
					<rect id="SVGID_3_" width="923.524" height="350"/>
				</defs>
				<clipPath id="SVGID_4_">
					<use xlink:href="#SVGID_3_"  overflow="visible"/>
				</clipPath>
				<g clip-path="url(#SVGID_4_)">
					<defs>
						<rect id="SVGID_5_" width="923.524" height="350"/>
					</defs>
					<clipPath id="SVGID_6_">
						<use xlink:href="#SVGID_5_"  overflow="visible"/>
					</clipPath>
					
						<rect x="-7.353" y="-7.352" clip-path="url(#SVGID_6_)" fill-rule="evenodd" clip-rule="evenodd" fill="#24ABE2" width="938.231" height="364.704"/>
				</g>
				<g clip-path="url(#SVGID_4_)">
					<defs>
						<rect id="SVGID_7_" width="923.524" height="350"/>
					</defs>
					<clipPath id="SVGID_8_">
						<use xlink:href="#SVGID_7_"  overflow="visible"/>
					</clipPath>
					<g opacity="0.2" clip-path="url(#SVGID_8_)" enable-background="new    ">
						<g>
							<defs>
								<rect id="SVGID_9_" y="66.176" width="923.524" height="219.118"/>
							</defs>
							<clipPath id="SVGID_10_">
								<use xlink:href="#SVGID_9_"  overflow="visible"/>
							</clipPath>
							<g clip-path="url(#SVGID_10_)">
								<defs>
									<rect id="SVGID_11_" width="923.524" height="350"/>
								</defs>
								<clipPath id="SVGID_12_">
									<use xlink:href="#SVGID_11_"  overflow="visible"/>
								</clipPath>
								<g clip-path="url(#SVGID_12_)" enable-background="new    ">
									<g>
										<defs>
											<rect id="SVGID_13_" y="66.176" width="923.524" height="219.118"/>
										</defs>
										<clipPath id="SVGID_14_">
											<use xlink:href="#SVGID_13_"  overflow="visible"/>
										</clipPath>
										<g clip-path="url(#SVGID_14_)">
											<defs>
												<rect id="SVGID_15_" y="55.883" width="923.524" height="239.705"/>
											</defs>
											<clipPath id="SVGID_16_">
												<use xlink:href="#SVGID_15_"  overflow="visible"/>
											</clipPath>
											
												<polyline clip-path="url(#SVGID_16_)" fill="none" stroke="#FFFFFF" stroke-width="1.4706" stroke-linecap="square" stroke-miterlimit="10" points="
												0.734,277.204 353.56,277.204 922.789,277.204 											"/>
											
												<polyline clip-path="url(#SVGID_16_)" fill="none" stroke="#FFFFFF" stroke-width="1.4706" stroke-linecap="square" stroke-miterlimit="10" points="
												0.734,233.087 353.56,233.087 922.789,233.087 											"/>
											
												<polyline clip-path="url(#SVGID_16_)" fill="none" stroke="#FFFFFF" stroke-width="1.4706" stroke-linecap="square" stroke-miterlimit="10" points="
												0.734,193.381 353.56,193.381 922.789,193.381 											"/>
											
												<polyline clip-path="url(#SVGID_16_)" fill="none" stroke="#FFFFFF" stroke-width="1.4706" stroke-linecap="square" stroke-miterlimit="10" points="
												0.734,153.675 353.56,153.675 922.789,153.675 											"/>
											
												<polyline clip-path="url(#SVGID_16_)" fill="none" stroke="#FFFFFF" stroke-width="1.4706" stroke-linecap="square" stroke-miterlimit="10" points="
												0.734,113.97 353.56,113.97 922.789,113.97 											"/>
											
												<polyline clip-path="url(#SVGID_16_)" fill="none" stroke="#FFFFFF" stroke-width="1.4706" stroke-linecap="square" stroke-miterlimit="10" points="
												0.734,74.265 353.56,74.265 922.789,74.265 											"/>
										</g>
									</g>
								</g>
							</g>
						</g>
					</g>
				</g>
				<g clip-path="url(#SVGID_4_)">
					<defs>
						<rect id="SVGID_17_" x="-64.706" y="-17.647" width="117.646" height="397.059"/>
					</defs>
					<clipPath id="SVGID_18_">
						<use xlink:href="#SVGID_17_"  overflow="visible"/>
					</clipPath>
					<g clip-path="url(#SVGID_18_)">
						<defs>
							<rect id="SVGID_19_" width="923.524" height="350"/>
						</defs>
						<clipPath id="SVGID_20_">
							<use xlink:href="#SVGID_19_"  overflow="visible"/>
						</clipPath>
						
							<rect x="-72.059" y="-24.999" clip-path="url(#SVGID_20_)" fill-rule="evenodd" clip-rule="evenodd" fill="#3D464D" width="132.352" height="411.763"/>
					</g>
				</g>
				<g clip-path="url(#SVGID_4_)">
					<defs>
						<rect id="SVGID_21_" x="870.583" y="-17.647" width="117.647" height="397.059"/>
					</defs>
					<clipPath id="SVGID_22_">
						<use xlink:href="#SVGID_21_"  overflow="visible"/>
					</clipPath>
					<g clip-path="url(#SVGID_22_)">
						<defs>
							<rect id="SVGID_23_" width="923.524" height="350"/>
						</defs>
						<clipPath id="SVGID_24_">
							<use xlink:href="#SVGID_23_"  overflow="visible"/>
						</clipPath>
						
							<rect x="863.23" y="-24.999" clip-path="url(#SVGID_24_)" fill-rule="evenodd" clip-rule="evenodd" fill="#3D464D" width="132.353" height="411.763"/>
					</g>
				</g>
			</g>
		</g>
	</g>
	<g opacity="0.6" enable-background="new    ">
		<g>
			<defs>
				<rect id="SVGID_25_" x="76.47" y="301.47" width="774.996" height="25"/>
			</defs>
			<clipPath id="SVGID_26_">
				<use xlink:href="#SVGID_25_"  overflow="visible"/>
			</clipPath>
			<g clip-path="url(#SVGID_26_)">
				<defs>
					<rect id="SVGID_27_" width="923.524" height="350"/>
				</defs>
				<clipPath id="SVGID_28_">
					<use xlink:href="#SVGID_27_"  overflow="visible"/>
				</clipPath>
				<g clip-path="url(#SVGID_28_)" enable-background="new    ">
					<g>
						<defs>
							<rect id="SVGID_29_" x="76.47" y="301.47" width="774.996" height="25"/>
						</defs>
						<clipPath id="SVGID_30_">
							<use xlink:href="#SVGID_29_"  overflow="visible"/>
						</clipPath>
						<g clip-path="url(#SVGID_30_)">
							<defs>
								<rect id="SVGID_31_" x="769.113" y="286.764" width="85.294" height="39.706"/>
							</defs>
							<clipPath id="SVGID_32_">
								<use xlink:href="#SVGID_31_"  overflow="visible"/>
							</clipPath>
							<g clip-path="url(#SVGID_32_)">
								<text transform="matrix(1 0 0 1 798.5234 320.5859)" fill="#FFFFFF" font-family="'OpenSans'" font-size="17.647">2014</text>
							</g>
						</g>
						<g clip-path="url(#SVGID_30_)">
							<defs>
								<rect id="SVGID_33_" x="591.173" y="286.764" width="99.999" height="39.706"/>
							</defs>
							<clipPath id="SVGID_34_">
								<use xlink:href="#SVGID_33_"  overflow="visible"/>
							</clipPath>
							<g clip-path="url(#SVGID_34_)">
								<text transform="matrix(1 0 0 1 620.583 320.5859)" fill="#FFFFFF" font-family="'OpenSans'" font-size="17.647">2013</text>
							</g>
						</g>
						<g clip-path="url(#SVGID_30_)">
							<defs>
								<rect id="SVGID_35_" x="413.233" y="286.764" width="99.999" height="39.706"/>
							</defs>
							<clipPath id="SVGID_36_">
								<use xlink:href="#SVGID_35_"  overflow="visible"/>
							</clipPath>
							<g clip-path="url(#SVGID_36_)">
								<text transform="matrix(1 0 0 1 442.6426 320.5859)" fill="#FFFFFF" font-family="'OpenSans'" font-size="17.647">2012</text>
							</g>
						</g>
						<g clip-path="url(#SVGID_30_)">
							<defs>
								<rect id="SVGID_37_" x="235.293" y="286.764" width="99.999" height="39.706"/>
							</defs>
							<clipPath id="SVGID_38_">
								<use xlink:href="#SVGID_37_"  overflow="visible"/>
							</clipPath>
							<g clip-path="url(#SVGID_38_)">
								<text transform="matrix(1 0 0 1 264.7026 320.5859)" fill="#FFFFFF" font-family="'OpenSans'" font-size="17.647">2011</text>
							</g>
						</g>
						<g clip-path="url(#SVGID_30_)">
							<defs>
								<rect id="SVGID_39_" x="72.058" y="286.764" width="85.293" height="39.706"/>
							</defs>
							<clipPath id="SVGID_40_">
								<use xlink:href="#SVGID_39_"  overflow="visible"/>
							</clipPath>
							<g clip-path="url(#SVGID_40_)">
								<text transform="matrix(1 0 0 1 86.7617 320.5859)" fill="#FFFFFF" font-family="'OpenSans'" font-size="17.647">2010</text>
							</g>
						</g>
					</g>
				</g>
			</g>
		</g>
	</g>
	<g opacity="0.6" enable-background="new    ">
		<g>
			<defs>
				<rect id="SVGID_41_" x="5.882" y="61.765" width="42.646" height="183.823"/>
			</defs>
			<clipPath id="SVGID_42_">
				<use xlink:href="#SVGID_41_"  overflow="visible"/>
			</clipPath>
			<g clip-path="url(#SVGID_42_)">
				<defs>
					<rect id="SVGID_43_" width="923.524" height="350"/>
				</defs>
				<clipPath id="SVGID_44_">
					<use xlink:href="#SVGID_43_"  overflow="visible"/>
				</clipPath>
				<g clip-path="url(#SVGID_44_)" enable-background="new    ">
					<g>
						<defs>
							<rect id="SVGID_45_" x="5.882" y="61.765" width="42.646" height="183.823"/>
						</defs>
						<clipPath id="SVGID_46_">
							<use xlink:href="#SVGID_45_"  overflow="visible"/>
						</clipPath>
						<g clip-path="url(#SVGID_46_)">
							<defs>
								<rect id="SVGID_47_" width="66.175" height="86.765"/>
							</defs>
							<clipPath id="SVGID_48_">
								<use xlink:href="#SVGID_47_"  overflow="visible"/>
							</clipPath>
							<g clip-path="url(#SVGID_48_)">
								<text transform="matrix(1 0 0 1 16.3774 80.8813)" fill="#FFFFFF" font-family="'OpenSans'" font-size="17.647">10</text>
							</g>
						</g>
						<g clip-path="url(#SVGID_46_)">
							<defs>
								<rect id="SVGID_49_" y="50" width="61.028" height="116.176"/>
							</defs>
							<clipPath id="SVGID_50_">
								<use xlink:href="#SVGID_49_"  overflow="visible"/>
							</clipPath>
							<g clip-path="url(#SVGID_50_)">
								<text transform="matrix(1 0 0 1 21.4224 160.2935)" fill="#FFFFFF" font-family="'OpenSans'" font-size="17.647">6</text>
							</g>
						</g>
						<g clip-path="url(#SVGID_46_)">
							<defs>
								<rect id="SVGID_51_" y="129.412" width="61.028" height="116.176"/>
							</defs>
							<clipPath id="SVGID_52_">
								<use xlink:href="#SVGID_51_"  overflow="visible"/>
							</clipPath>
							<g clip-path="url(#SVGID_52_)">
								<text transform="matrix(1 0 0 1 21.4224 239.7051)" fill="#FFFFFF" font-family="'OpenSans'" font-size="17.647">2</text>
							</g>
						</g>
					</g>
				</g>
			</g>
		</g>
	</g>
	<g opacity="0.6" enable-background="new    ">
		<g>
			<defs>
				<rect id="SVGID_53_" x="889.7" y="23.53" width="20.589" height="120.587"/>
			</defs>
			<clipPath id="SVGID_54_">
				<use xlink:href="#SVGID_53_"  overflow="visible"/>
			</clipPath>
			<g clip-path="url(#SVGID_54_)">
				<defs>
					<rect id="SVGID_55_" width="923.524" height="350"/>
				</defs>
				<clipPath id="SVGID_56_">
					<use xlink:href="#SVGID_55_"  overflow="visible"/>
				</clipPath>
				<g clip-path="url(#SVGID_56_)" enable-background="new    ">
					<g>
						<defs>
							<rect id="SVGID_57_" x="889.7" y="23.53" width="20.589" height="120.587"/>
						</defs>
						<clipPath id="SVGID_58_">
							<use xlink:href="#SVGID_57_"  overflow="visible"/>
						</clipPath>
						<g clip-path="url(#SVGID_58_)">
							<defs>
								<rect id="SVGID_59_" x="855.878" width="67.646" height="104.412"/>
							</defs>
							<clipPath id="SVGID_60_">
								<use xlink:href="#SVGID_59_"  overflow="visible"/>
							</clipPath>
							<path clip-path="url(#SVGID_60_)" fill="#FFFFFF" d="M904.276,89.981v8.534c0,0.815-0.29,1.511-0.867,2.089
								c-0.578,0.578-1.274,0.867-2.089,0.867h-8.533c-0.814,0-1.511-0.289-2.088-0.867c-0.578-0.578-0.868-1.273-0.868-2.089
								v-8.534c0-0.814,0.29-1.51,0.868-2.089c0.577-0.576,1.273-0.866,2.088-0.866h8.533c0.814,0,1.511,0.291,2.089,0.866
								C903.986,88.471,904.276,89.167,904.276,89.981z M902.962,98.515v-8.534c0-0.452-0.16-0.838-0.481-1.159
								c-0.321-0.322-0.708-0.483-1.16-0.483h-8.533c-0.452,0-0.838,0.161-1.159,0.483c-0.321,0.321-0.482,0.707-0.482,1.159v8.534
								c0,0.452,0.161,0.839,0.482,1.159c0.321,0.323,0.707,0.483,1.159,0.483h8.533c0.452,0,0.839-0.161,1.16-0.483
								C902.802,99.354,902.962,98.967,902.962,98.515z M901.65,93.921v0.657c0,0.095-0.031,0.173-0.093,0.235
								c-0.062,0.062-0.142,0.094-0.237,0.094h-3.61v3.608c0,0.098-0.03,0.174-0.091,0.236c-0.062,0.062-0.142,0.093-0.236,0.093
								h-0.658c-0.095,0-0.174-0.031-0.235-0.093c-0.061-0.062-0.092-0.138-0.092-0.236v-3.608h-3.61
								c-0.096,0-0.175-0.032-0.236-0.094c-0.062-0.062-0.092-0.14-0.092-0.235v-0.657c0-0.097,0.029-0.175,0.092-0.236
								c0.062-0.062,0.141-0.093,0.236-0.093h3.61v-3.61c0-0.097,0.031-0.174,0.092-0.236c0.062-0.062,0.141-0.094,0.235-0.094
								h0.658c0.095,0,0.174,0.032,0.236,0.094c0.061,0.062,0.091,0.139,0.091,0.236v3.61h3.61c0.096,0,0.176,0.032,0.237,0.093
								C901.619,93.746,901.65,93.824,901.65,93.921z"/>
						</g>
						<g clip-path="url(#SVGID_58_)">
							<defs>
								<rect id="SVGID_61_" x="855.878" y="25.735" width="67.646" height="118.382"/>
							</defs>
							<clipPath id="SVGID_62_">
								<use xlink:href="#SVGID_61_"  overflow="visible"/>
							</clipPath>
							<path clip-path="url(#SVGID_62_)" fill="#FFFFFF" d="M904.276,129.688v8.534c0,0.815-0.29,1.51-0.867,2.088
								c-0.578,0.578-1.274,0.867-2.089,0.867h-8.533c-0.814,0-1.511-0.289-2.088-0.867c-0.578-0.578-0.868-1.272-0.868-2.088
								v-8.534c0-0.814,0.29-1.51,0.868-2.089c0.577-0.577,1.273-0.866,2.088-0.866h8.533c0.814,0,1.511,0.29,2.089,0.866
								C903.986,128.177,904.276,128.873,904.276,129.688z M902.962,138.221v-8.534c0-0.452-0.16-0.838-0.481-1.158
								c-0.321-0.323-0.708-0.483-1.16-0.483h-8.533c-0.452,0-0.838,0.161-1.159,0.483c-0.321,0.32-0.482,0.706-0.482,1.158v8.534
								c0,0.452,0.161,0.838,0.482,1.159c0.321,0.323,0.707,0.482,1.159,0.482h8.533c0.452,0,0.839-0.16,1.16-0.482
								C902.802,139.059,902.962,138.673,902.962,138.221z M901.65,133.626v0.657c0,0.095-0.031,0.172-0.093,0.235
								c-0.062,0.062-0.142,0.094-0.237,0.094h-8.533c-0.096,0-0.175-0.032-0.236-0.094c-0.062-0.062-0.092-0.14-0.092-0.235v-0.657
								c0-0.095,0.029-0.174,0.092-0.236c0.062-0.061,0.141-0.093,0.236-0.093h8.533c0.096,0,0.176,0.032,0.237,0.093
								C901.619,133.452,901.65,133.531,901.65,133.626z"/>
						</g>
						<g clip-path="url(#SVGID_58_)">
							<defs>
								<rect id="SVGID_63_" x="855.878" width="67.646" height="36.765"/>
							</defs>
							<clipPath id="SVGID_64_">
								<use xlink:href="#SVGID_63_"  overflow="visible"/>
							</clipPath>
							<path clip-path="url(#SVGID_64_)" fill="#FFFFFF" d="M896.884,31.58c0.049,0.048,0.073,0.106,0.073,0.169
								c0,0.064-0.024,0.12-0.073,0.17l-2.452,2.451l1.063,1.063c0.094,0.094,0.142,0.205,0.142,0.333
								c0,0.127-0.048,0.238-0.142,0.333c-0.093,0.094-0.203,0.14-0.333,0.14h-3.309c-0.128,0-0.237-0.046-0.331-0.14
								c-0.094-0.095-0.142-0.206-0.142-0.333v-3.309c0-0.128,0.048-0.24,0.142-0.332c0.094-0.094,0.203-0.14,0.331-0.14
								c0.13,0,0.239,0.046,0.333,0.14l1.063,1.062l2.452-2.45c0.049-0.05,0.106-0.075,0.17-0.075c0.065,0,0.121,0.025,0.17,0.075
								L896.884,31.58L896.884,31.58z M902.727,25.368v3.309c0,0.126-0.048,0.238-0.141,0.331c-0.094,0.095-0.204,0.141-0.332,0.141
								c-0.129,0-0.239-0.046-0.333-0.141l-1.062-1.063l-2.452,2.453c-0.049,0.051-0.107,0.073-0.17,0.073
								c-0.065,0-0.121-0.022-0.17-0.073l-0.843-0.841c-0.049-0.05-0.073-0.107-0.073-0.17c0-0.063,0.024-0.12,0.073-0.171
								l2.452-2.452l-1.063-1.064c-0.094-0.093-0.14-0.204-0.14-0.331c0-0.129,0.046-0.239,0.14-0.332
								c0.093-0.095,0.204-0.141,0.333-0.141h3.309c0.128,0,0.238,0.046,0.332,0.141C902.679,25.129,902.727,25.239,902.727,25.368z
								"/>
						</g>
					</g>
				</g>
			</g>
		</g>
	</g>
	<g>
		<defs>
			<rect id="SVGID_65_" x="52.94" y="29.412" width="817.643" height="291.175"/>
		</defs>
		<clipPath id="SVGID_66_">
			<use xlink:href="#SVGID_65_"  overflow="visible"/>
		</clipPath>
		<g clip-path="url(#SVGID_66_)" enable-background="new    ">
			<g>
				<defs>
					<rect id="SVGID_67_" x="52.94" y="63.236" width="817.643" height="257.351"/>
				</defs>
				<clipPath id="SVGID_68_">
					<use xlink:href="#SVGID_67_"  overflow="visible"/>
				</clipPath>
				<g clip-path="url(#SVGID_68_)">
					<defs>
						<rect id="SVGID_69_" x="52.94" y="82.354" width="817.643" height="238.233"/>
					</defs>
					<clipPath id="SVGID_70_">
						<use xlink:href="#SVGID_69_"  overflow="visible"/>
					</clipPath>
				</g>
				<g clip-path="url(#SVGID_68_)">
					<defs>
						<rect id="SVGID_71_" x="-204.411" y="74.999" width="1634.369" height="306.976"/>
					</defs>
					<clipPath id="SVGID_72_">
						<use xlink:href="#SVGID_71_"  overflow="visible"/>
					</clipPath>
					<g clip-path="url(#SVGID_72_)">
						<defs>
							<rect id="SVGID_73_" x="52.94" y="29.412" width="817.643" height="291.175"/>
						</defs>
						<clipPath id="SVGID_74_">
							<use xlink:href="#SVGID_73_"  overflow="visible"/>
						</clipPath>
						<path clip-path="url(#SVGID_74_)" fill="none" stroke="#808080" stroke-width="2.9412" stroke-miterlimit="10" d="
							M-3458.807,361.91c1.355,2.021,4.031,0.329,5.999-0.641c2.284-1.12,3.711-3.036,5.107-5.106
							c4.077-6.056,5.234-13.09,6.85-19.95c1.789-7.585,3.103-15.291,5.077-22.827c0.977-3.731,2.634-7.394,4.582-10.741
							c2.617-4.489,6.771-6.979,12.153-6.767c5.551,0.22,7.576,4.615,8.519,8.797c2.841,12.589,11.198,17.691,23.187,18.097
							c4.836,0.163,7.939,2.79,11.507,5.549c14.338,11.074,29.607,12.237,34.569-9.033c0.72-3.084,1.34-6.191,2-9.291
							c2.888-13.563,3.801-27.547,8.745-40.677c3.258-8.662,6.701-11.059,15.691-11.225c5.916-0.104,11.619,1.372,17.403,1.905
							c15.474,1.431,31.375,5.865,44.308-8.842c6.553-7.448,22.208-4.411,27.442,4.16c4.747,7.779,11.179,11.534,20.151,10.587
							c0,0,2.513-0.142,3.654-0.161c21.567-0.343,43.247,3.764,64.081-4.717c2.912-1.1,4.916-1.479,10.219-1.255
							c0.003,0.002,0.004,0.006,0.006,0.008c8.66,1.169,17.291,2.591,25.979,3.458c26.41,2.639,38.748-3.857,47.283-25.547
							c2.698-6.854,5.818-13.435,10.555-19.162c12.189-14.752,32.613-13.016,41.311,3.581c4.025,7.678,10.044,11.77,18.944,10.941
							c8.468-0.331,16.128,2.013,24.01,5.245c8.099,3.324,17.38,5.429,25.754,0.256c5.044-3.112,6.646-8.9,7.554-14.553
							c2.044-12.73,3.616-25.543,6.021-38.2c2.012-10.596,2.816-28.923,13.122-28.923c10.307,0,13.057,8.219,15.458,16.263
							c1.74,5.829,3.312,11.712,5.317,17.449c3.124,8.93,8.972,15.168,18.773,16.308c17.141,1.986,34.315,3.72,51.624,2.748
							c0-0.002,0.002-0.002,0.002-0.004c7.562,0.169,15.229,0.948,22.572-1.347c13.218-4.139,26.839-5.122,40.475-4.885
							c9.165,0.16,18.832-1.261,27.447,2.66c13.578,6.18,27.808,6.737,42.267,6.839c9.534,0.065,17.161-3.058,22.227-11.479
							c5.592-9.296,13.86-12.793,24.654-12.538c8.207,0.191,16.608,1.623,24.724-1.159c8.868,0.405,13.32-5.122,16.107-12.412
							c2.787-7.291,4.843-14.868,7.755-22.106c2.691-6.687,7.559-9.844,15.376-9.941c10.46-0.132,15.603,6.067,19.584,13.939
							c4.83,9.558,12.25,14.379,22.767,16.227c6.438,1.131,14.083-0.853,19.15,5.493c6.314,7.912,14.997,9.251,24.429,9.021
							c4.492-0.109,7.302-1.818,9.301-5.734c3.65-7.144,4.262-14.917,5.228-22.657c2.231-17.875,2.764-35.979,6.587-53.63
							c1.221-5.632,1.423-14.098,9.085-13.977c7.149,0.114,9.363,7.697,10.845,14.007c3.002,12.807,5.575,25.715,8.719,38.486
							c3.481,14.14,9.017,18.653,23.383,19.652c3.621,0.252,6.889,1.251,9.134,4.007c6.522,8.009,14.966,10.519,24.866,9.344
							c12.768,0.621,25.252,0.029,37.182-5.624c5.227-2.479,11.272-2.63,17.09-3.365c15.496-1.958,30.387,3.514,45.708,3.125
							c10.866,1.225,19.667-2.387,26.447-11.043c5.352-6.824,12.469-9.637,21.153-9.783c8.335-0.145,16.746-0.844,21.094-10.026
							c1.267-2.669,4.153-3.143,7.004-3.116c21.754,0.22,36.987-9.646,46.909-29.019c5.994-11.701,16.885-17.31,29.654-19.178
							c3.373-0.493,7.044,0.378,10.229-0.565c7.621-2.25,11.471,1.895,14.712,7.564c4.565,7.992,5.738,17.065,8.186,25.744
							c2.31,8.173,3.842,17.051,13.837,20.053c0.776,0.234,1.871,1.276,1.871,1.946c0,10.94,7.706,9.507,14.881,9.769
							c18.807,0.684,35.329,5.925,47.177,22.211c7.1,9.76,17.393,15.683,29.582,17.539c14.028,2.14,28.173,2.845,42.341,2.742
							c14.569-0.104,28.653,2.146,42.376,7.121c14.544,5.272,29.766,5.075,44.943,4.875"/>
					</g>
				</g>
				<g clip-path="url(#SVGID_68_)">
					<defs>
						<rect id="SVGID_75_" x="52.94" y="29.412" width="817.643" height="291.175"/>
					</defs>
					<clipPath id="SVGID_76_">
						<use xlink:href="#SVGID_75_"  overflow="visible"/>
					</clipPath>
					<path clip-path="url(#SVGID_76_)" fill="none" stroke="#91D4EE" stroke-width="2.9412" stroke-miterlimit="10" d="
						M-191.175,361.91c1.356,2.021,4.031,0.329,5.998-0.641c2.283-1.12,3.712-3.036,5.107-5.106c4.076-6.056,5.233-13.09,6.85-19.95
						c1.788-7.585,3.103-15.291,5.077-22.827c0.976-3.731,2.634-7.394,4.582-10.741c2.62-4.489,6.771-6.979,12.153-6.767
						c5.551,0.22,7.577,4.615,8.52,8.797c2.842,12.589,11.197,17.691,23.187,18.097c4.836,0.163,7.94,2.79,11.507,5.549
						c14.338,11.074,29.608,12.237,34.568-9.033c0.719-3.084,1.341-6.191,2.001-9.291c2.888-13.563,3.801-27.547,8.744-40.677
						c3.259-8.662,6.701-11.059,15.69-11.225c5.917-0.104,11.618,1.372,17.403,1.905c15.476,1.431,31.377,5.865,44.309-8.842
						c6.553-7.448,22.209-4.411,27.443,4.16c4.748,7.779,11.179,11.534,20.152,10.587c0,0,2.514-0.142,3.653-0.161
						c21.568-0.343,43.248,3.764,64.081-4.717c2.912-1.1,4.916-1.479,10.219-1.255c0.004,0.002,0.005,0.006,0.006,0.008
						c8.662,1.169,17.292,2.591,25.98,3.458c26.41,2.639,38.748-3.857,47.283-25.547c2.698-6.854,5.817-13.435,10.554-19.162
						c12.19-14.752,32.613-13.016,41.312,3.581c4.025,7.678,10.043,11.77,18.944,10.941c8.468-0.331,16.127,2.013,24.01,5.245
						c8.102,3.324,17.38,5.429,25.754,0.256c5.044-3.112,6.646-8.9,7.554-14.553c2.043-12.73,3.616-25.543,6.021-38.2
						c2.012-10.596,2.815-28.923,13.122-28.923s13.056,8.219,15.458,16.263c1.74,5.829,3.312,11.712,5.317,17.449
						c3.123,8.93,8.972,15.168,18.772,16.308c17.142,1.986,34.315,3.72,51.625,2.748c0-0.002,0.001-0.002,0.001-0.004
						c7.564,0.169,15.23,0.948,22.573-1.347c13.218-4.139,26.838-5.122,40.476-4.885c9.165,0.16,18.829-1.261,27.447,2.66
						c13.578,6.18,27.808,6.737,42.267,6.839c9.533,0.065,17.161-3.058,22.227-11.479c5.592-9.296,13.86-12.793,24.653-12.538
						c8.207,0.191,16.608,1.623,24.724-1.159c8.868,0.405,13.32-5.122,16.108-12.412c2.787-7.291,4.844-14.868,7.755-22.106
						c2.691-6.687,7.56-9.844,15.377-9.941c10.46-0.132,15.603,6.067,19.583,13.939c4.83,9.558,12.251,14.379,22.768,16.227
						c6.438,1.131,14.082-0.853,19.148,5.493c6.315,7.912,14.998,9.251,24.43,9.021c4.491-0.109,7.301-1.818,9.301-5.734
						c3.648-7.144,4.261-14.917,5.227-22.657c2.233-17.875,2.764-35.979,6.588-53.63c1.224-5.632,1.424-14.098,9.085-13.977
						c7.15,0.114,9.364,7.697,10.846,14.007c3.002,12.807,5.575,25.715,8.718,38.486c3.482,14.14,9.018,18.653,23.384,19.652
						c3.621,0.252,6.889,1.251,9.133,4.007c6.522,8.009,14.967,10.519,24.867,9.344c12.769,0.621,25.254,0.029,37.184-5.624
						c5.226-2.479,11.271-2.63,17.087-3.365c15.496-1.958,30.388,3.514,45.709,3.125c10.867,1.225,19.666-2.387,26.448-11.043
						c5.35-6.824,12.47-9.637,21.151-9.783c8.337-0.145,16.747-0.844,21.096-10.026c1.268-2.669,4.152-3.143,7.003-3.116
						c21.756,0.22,36.989-9.646,46.909-29.019c5.993-11.701,16.885-17.31,29.654-19.178c3.372-0.493,7.042,0.378,10.229-0.565
						c7.621-2.25,11.472,1.895,14.71,7.564c4.565,7.992,5.74,17.065,8.188,25.744c2.311,8.173,3.842,17.051,13.837,20.053
						c0.774,0.234,1.869,1.276,1.869,1.946c0,10.94,7.706,9.507,14.881,9.769c18.808,0.684,35.331,5.925,47.178,22.211
						c7.101,9.76,17.394,15.683,29.584,17.539c14.026,2.14,28.171,2.845,42.341,2.742c14.568-0.104,28.653,2.146,42.374,7.121
						c14.547,5.272,29.769,5.075,44.945,4.875"/>
					<path clip-path="url(#SVGID_76_)" fill="none" stroke="#91D4EE" stroke-width="2.9412" stroke-miterlimit="10" d="
						M-191.175,360.439c1.356,2.021,4.031,0.329,5.998-0.641c2.283-1.121,3.712-3.036,5.107-5.107
						c4.076-6.056,5.233-13.087,6.85-19.951c1.788-7.583,3.103-15.289,5.077-22.823c0.976-3.733,2.634-7.396,4.582-10.741
						c2.62-4.491,6.771-6.981,12.153-6.77c5.551,0.221,7.577,4.616,8.52,8.798c2.842,12.59,11.197,17.69,23.187,18.098
						c4.836,0.164,7.94,2.791,11.507,5.546c14.338,11.076,29.608,12.239,34.568-9.031c0.719-3.084,1.341-6.189,2.001-9.292
						c2.888-13.562,3.801-27.544,8.744-40.674c3.259-8.665,6.701-11.062,15.69-11.227c5.917-0.104,11.618,1.373,17.403,1.905
						c15.476,1.43,31.377,5.864,44.309-8.842c6.553-7.449,22.209-4.409,27.443,4.16c4.748,7.779,11.179,11.534,20.152,10.589
						c0,0,2.514-0.144,3.653-0.161c21.568-0.346,43.248,3.762,64.081-4.72c2.912-1.099,4.916-1.479,10.219-1.255
						c0.004,0.004,0.005,0.006,0.006,0.01c8.662,1.17,17.292,2.59,25.98,3.457c26.41,2.638,38.748-3.858,47.283-25.546
						c2.698-6.854,5.817-13.434,10.554-19.164c12.19-14.751,32.613-13.015,41.312,3.581c4.025,7.679,10.043,11.771,18.944,10.942
						c8.468-0.329,16.127,2.015,24.01,5.247c8.102,3.322,17.38,5.426,25.754,0.253c5.044-3.109,6.646-8.898,7.554-14.552
						c2.043-12.731,3.616-25.544,6.021-38.2c2.012-10.597,2.815-28.923,13.122-28.923s13.056,8.218,15.458,16.262
						c1.74,5.83,3.312,11.713,5.317,17.45c3.123,8.93,8.972,15.17,18.772,16.306c17.142,1.987,34.315,3.722,51.625,2.749
						c0-0.002,0.001-0.002,0.001-0.004c7.564,0.17,15.23,0.949,22.573-1.346c13.218-4.139,26.838-5.125,40.476-4.885
						c9.165,0.161,18.829-1.259,27.447,2.661c13.578,6.179,27.808,6.735,42.267,6.837c9.533,0.068,17.161-3.057,22.227-11.479
						c5.592-9.294,13.86-12.789,24.653-12.536c8.207,0.193,16.608,1.625,24.724-1.159c8.868,0.407,13.32-5.12,16.108-12.411
						c2.787-7.291,4.844-14.87,7.755-22.107c2.691-6.685,7.56-9.843,15.377-9.941c10.46-0.132,15.603,6.067,19.583,13.939
						c4.83,9.557,12.251,14.378,22.768,16.226c6.438,1.13,14.082-0.854,19.148,5.494c6.315,7.912,14.998,9.253,24.43,9.022
						c4.491-0.11,7.301-1.817,9.301-5.735c3.648-7.142,4.261-14.917,5.227-22.658c2.233-17.875,2.764-35.977,6.588-53.628
						c1.224-5.632,1.424-14.097,9.085-13.976c7.15,0.113,9.364,7.696,10.846,14.006c3.002,12.806,5.575,25.714,8.718,38.485
						c3.482,14.14,9.018,18.654,23.384,19.654c3.621,0.252,6.889,1.25,9.133,4.007c6.522,8.009,14.967,10.518,24.867,9.345
						c12.769,0.621,25.254,0.026,37.184-5.625c5.226-2.478,11.271-2.632,17.087-3.366c15.496-1.956,30.388,3.515,45.709,3.125
						c10.867,1.226,19.666-2.387,26.448-11.043c5.35-6.825,12.47-9.637,21.151-9.784c8.337-0.143,16.747-0.842,21.096-10.024
						c1.268-2.67,4.152-3.144,7.003-3.117c21.756,0.222,36.989-9.646,46.909-29.018c5.993-11.701,16.885-17.31,29.654-19.178
						c3.372-0.494,7.042,0.379,10.229-0.564c7.621-2.25,11.472,1.895,14.71,7.563c4.565,7.991,5.74,17.065,8.188,25.743
						c2.311,8.175,3.842,17.05,13.837,20.053c0.774,0.234,1.869,1.276,1.869,1.946c0,10.94,7.706,9.507,14.881,9.767
						c18.808,0.684,35.331,5.926,47.178,22.214c7.101,9.758,17.394,15.684,29.584,17.538c14.026,2.14,28.171,2.847,42.341,2.743
						c14.568-0.105,28.653,2.146,42.374,7.119c14.547,5.272,29.769,5.076,44.945,4.873"/>
					<path clip-path="url(#SVGID_76_)" fill="none" stroke="#91D4EE" stroke-width="2.9412" stroke-miterlimit="10" d="
						M-191.175,357.499c1.356,2.019,4.031,0.327,5.998-0.641c2.283-1.12,3.712-3.038,5.107-5.106
						c4.076-6.056,5.233-13.09,6.85-19.952c1.788-7.585,3.103-15.289,5.077-22.825c0.976-3.731,2.634-7.394,4.582-10.741
						c2.62-4.491,6.771-6.979,12.153-6.767c5.551,0.218,7.577,4.615,8.52,8.795c2.842,12.591,11.197,17.691,23.187,18.099
						c4.836,0.163,7.94,2.79,11.507,5.547c14.338,11.074,29.608,12.239,34.568-9.031c0.719-3.086,1.341-6.191,2.001-9.291
						c2.888-13.563,3.801-27.547,8.744-40.677c3.259-8.662,6.701-11.061,15.69-11.225c5.917-0.104,11.618,1.372,17.403,1.905
						c15.476,1.429,31.377,5.863,44.309-8.842c6.553-7.45,22.209-4.411,27.443,4.16c4.748,7.779,11.179,11.532,20.152,10.589
						c0,0,2.514-0.144,3.653-0.163c21.568-0.343,43.248,3.763,64.081-4.717c2.912-1.1,4.916-1.479,10.219-1.255
						c0.004,0.002,0.005,0.006,0.006,0.008c8.662,1.169,17.292,2.591,25.98,3.456c26.41,2.639,38.748-3.857,47.283-25.545
						c2.698-6.854,5.817-13.433,10.554-19.163c12.19-14.753,32.613-13.017,41.312,3.582c4.025,7.678,10.043,11.768,18.944,10.939
						c8.468-0.329,16.127,2.015,24.01,5.247c8.102,3.324,17.38,5.429,25.754,0.254c5.044-3.11,6.646-8.898,7.554-14.551
						c2.043-12.73,3.616-25.545,6.021-38.2c2.012-10.597,2.815-28.924,13.122-28.924s13.056,8.218,15.458,16.262
						c1.74,5.829,3.312,11.714,5.317,17.451c3.123,8.928,8.972,15.168,18.772,16.307c17.142,1.987,34.315,3.721,51.625,2.747
						c0-0.002,0.001-0.002,0.001-0.002c7.564,0.167,15.23,0.946,22.573-1.349c13.218-4.137,26.838-5.122,40.476-4.883
						c9.165,0.16,18.829-1.261,27.447,2.662c13.578,6.178,27.808,6.733,42.267,6.835c9.533,0.067,17.161-3.058,22.227-11.479
						c5.592-9.294,13.86-12.791,24.653-12.538c8.207,0.193,16.608,1.625,24.724-1.157c8.868,0.405,13.32-5.122,16.108-12.412
						c2.787-7.291,4.844-14.869,7.755-22.107c2.691-6.685,7.56-9.842,15.377-9.941c10.46-0.13,15.603,6.068,19.583,13.94
						c4.83,9.557,12.251,14.378,22.768,16.226c6.438,1.13,14.082-0.854,19.148,5.493c6.315,7.911,14.998,9.252,24.43,9.022
						c4.491-0.109,7.301-1.818,9.301-5.734c3.648-7.144,4.261-14.918,5.227-22.659c2.233-17.875,2.764-35.977,6.588-53.628
						c1.224-5.632,1.424-14.098,9.085-13.977c7.15,0.115,9.364,7.696,10.846,14.007c3.002,12.806,5.575,25.713,8.718,38.484
						c3.482,14.141,9.018,18.654,23.384,19.653c3.621,0.253,6.889,1.252,9.133,4.008c6.522,8.009,14.967,10.518,24.867,9.343
						c12.769,0.623,25.254,0.028,37.184-5.623c5.226-2.479,11.271-2.632,17.087-3.367c15.496-1.956,30.388,3.515,45.709,3.126
						c10.867,1.226,19.666-2.387,26.448-11.043c5.35-6.825,12.47-9.637,21.151-9.784c8.337-0.143,16.747-0.842,21.096-10.024
						c1.268-2.669,4.152-3.145,7.003-3.117c21.756,0.221,36.989-9.646,46.909-29.018c5.993-11.702,16.885-17.31,29.654-19.178
						c3.372-0.495,7.042,0.378,10.229-0.564c7.621-2.25,11.472,1.895,14.71,7.563c4.565,7.991,5.74,17.064,8.188,25.743
						c2.311,8.174,3.842,17.051,13.837,20.053c0.774,0.235,1.869,1.277,1.869,1.946c0,10.94,7.706,9.508,14.881,9.768
						c18.808,0.684,35.331,5.926,47.178,22.212c7.101,9.761,17.394,15.684,29.584,17.538c14.026,2.14,28.171,2.847,42.341,2.744
						c14.568-0.105,28.653,2.145,42.374,7.121c14.547,5.271,29.769,5.073,44.945,4.873"/>
					<path clip-path="url(#SVGID_76_)" fill="none" stroke="#91D4EE" stroke-width="2.9412" stroke-miterlimit="10" d="
						M-191.175,356.028c1.356,2.021,4.031,0.329,5.998-0.641c2.283-1.121,3.712-3.036,5.107-5.107
						c4.076-6.056,5.233-13.089,6.85-19.949c1.788-7.585,3.103-15.291,5.077-22.827c0.976-3.731,2.634-7.395,4.582-10.741
						c2.62-4.489,6.771-6.979,12.153-6.768c5.551,0.221,7.577,4.616,8.52,8.796c2.842,12.592,11.197,17.692,23.187,18.098
						c4.836,0.164,7.94,2.791,11.507,5.55c14.338,11.074,29.608,12.237,34.568-9.033c0.719-3.084,1.341-6.189,2.001-9.292
						c2.888-13.562,3.801-27.546,8.744-40.676c3.259-8.663,6.701-11.06,15.69-11.225c5.917-0.104,11.618,1.371,17.403,1.905
						c15.476,1.43,31.377,5.864,44.309-8.842c6.553-7.449,22.209-4.409,27.443,4.161c4.748,7.778,11.179,11.533,20.152,10.588
						c0,0,2.514-0.145,3.653-0.161c21.568-0.344,43.248,3.762,64.081-4.72c2.912-1.097,4.916-1.479,10.219-1.255
						c0.004,0.002,0.005,0.006,0.006,0.008c8.662,1.169,17.292,2.592,25.98,3.457c26.41,2.638,38.748-3.856,47.283-25.546
						c2.698-6.854,5.817-13.432,10.554-19.164c12.19-14.749,32.613-13.013,41.312,3.583c4.025,7.679,10.043,11.769,18.944,10.942
						c8.468-0.331,16.127,2.013,24.01,5.245c8.102,3.324,17.38,5.426,25.754,0.255c5.044-3.111,6.646-8.9,7.554-14.552
						c2.043-12.731,3.616-25.546,6.021-38.2c2.012-10.597,2.815-28.923,13.122-28.923s13.056,8.219,15.458,16.262
						c1.74,5.828,3.312,11.714,5.317,17.45c3.123,8.93,8.972,15.168,18.772,16.306c17.142,1.985,34.315,3.724,51.625,2.747
						c0,0,0.001,0,0.001-0.002c7.564,0.17,15.23,0.949,22.573-1.346c13.218-4.139,26.838-5.125,40.476-4.885
						c9.165,0.161,18.829-1.261,27.447,2.659c13.578,6.181,27.808,6.737,42.267,6.839c9.533,0.068,17.161-3.057,22.227-11.479
						c5.592-9.294,13.86-12.791,24.653-12.536c8.207,0.193,16.608,1.623,24.724-1.159c8.868,0.405,13.32-5.122,16.108-12.412
						c2.787-7.291,4.844-14.869,7.755-22.107c2.691-6.685,7.56-9.843,15.377-9.941c10.46-0.132,15.603,6.068,19.583,13.939
						c4.83,9.558,12.251,14.378,22.768,16.227c6.438,1.13,14.082-0.854,19.148,5.493c6.315,7.911,14.998,9.252,24.43,9.021
						c4.491-0.11,7.301-1.817,9.301-5.733c3.648-7.144,4.261-14.918,5.227-22.658c2.233-17.875,2.764-35.978,6.588-53.628
						c1.224-5.632,1.424-14.099,9.085-13.977c7.15,0.113,9.364,7.696,10.846,14.006c3.002,12.807,5.575,25.715,8.718,38.486
						c3.482,14.14,9.018,18.654,23.384,19.653c3.621,0.252,6.889,1.25,9.133,4.006c6.522,8.01,14.967,10.518,24.867,9.343
						c12.769,0.622,25.254,0.029,37.184-5.624c5.226-2.477,11.271-2.63,17.087-3.364c15.496-1.958,30.388,3.514,45.709,3.125
						c10.867,1.224,19.666-2.388,26.448-11.044c5.35-6.824,12.47-9.636,21.151-9.782c8.337-0.144,16.747-0.845,21.096-10.026
						c1.268-2.67,4.152-3.143,7.003-3.115c21.756,0.22,36.989-9.646,46.909-29.02c5.993-11.701,16.885-17.31,29.654-19.177
						c3.372-0.494,7.042,0.377,10.229-0.565c7.621-2.25,11.472,1.894,14.71,7.563c4.565,7.992,5.74,17.066,8.188,25.744
						c2.311,8.175,3.842,17.052,13.837,20.053c0.774,0.232,1.869,1.276,1.869,1.946c0,10.939,7.706,9.506,14.881,9.767
						c18.808,0.684,35.331,5.925,47.178,22.213c7.101,9.759,17.394,15.683,29.584,17.539c14.026,2.14,28.171,2.847,42.341,2.741
						c14.568-0.103,28.653,2.146,42.374,7.122c14.547,5.271,29.769,5.075,44.945,4.874"/>
					<path clip-path="url(#SVGID_76_)" fill="none" stroke="#FFFFFF" stroke-width="2.9412" stroke-miterlimit="10" d="
						M-191.175,354.558c1.356,2.021,4.031,0.329,5.998-0.642c2.283-1.12,3.712-3.035,5.107-5.106
						c4.076-6.056,5.233-13.089,6.85-19.949c1.788-7.585,3.103-15.291,5.077-22.827c0.976-3.731,2.634-7.395,4.582-10.742
						c2.62-4.489,6.771-6.979,12.153-6.767c5.551,0.221,7.577,4.616,8.52,8.797c2.842,12.591,11.197,17.689,23.187,18.099
						c4.836,0.162,7.94,2.79,11.507,5.547c14.338,11.075,29.608,12.238,34.568-9.03c0.719-3.087,1.341-6.192,2.001-9.294
						c2.888-13.562,3.801-27.544,8.744-40.677c3.259-8.662,6.701-11.059,15.69-11.225c5.917-0.103,11.618,1.372,17.403,1.906
						c15.476,1.428,31.377,5.864,44.309-8.842c6.553-7.449,22.209-4.411,27.443,4.159c4.748,7.78,11.179,11.534,20.152,10.59
						c25.221-0.507,46.901,3.601,67.734-4.881c2.912-1.099,4.916-1.479,10.219-1.255c8.667,1.179,17.298,2.6,25.986,3.466
						c26.41,2.639,38.748-3.857,47.283-25.545c2.698-6.856,5.817-13.434,10.554-19.164c12.19-14.753,32.613-13.016,41.312,3.581
						c4.025,7.681,10.043,11.771,18.944,10.942c8.468-0.332,16.127,2.015,24.01,5.247c8.102,3.321,17.38,5.426,25.754,0.253
						c5.044-3.111,6.646-8.9,7.554-14.553c2.043-12.73,3.616-25.543,6.021-38.2c2.012-10.596,2.815-28.922,13.122-28.922
						s13.056,8.218,15.458,16.263c1.74,5.828,3.312,11.713,5.317,17.448c3.123,8.93,8.972,15.169,18.772,16.309
						c17.142,1.985,34.315,3.72,51.625,2.747c7.565,0.166,15.231,0.943,22.574-1.351c13.218-4.138,26.838-5.122,40.476-4.884
						c9.165,0.159,18.829-1.259,27.447,2.661c13.578,6.18,27.808,6.735,42.267,6.837c9.533,0.066,17.161-3.058,22.227-11.479
						c5.592-9.293,13.86-12.793,24.653-12.537c8.207,0.19,16.608,1.623,24.724-1.159c8.868,0.407,13.32-5.122,16.108-12.412
						c2.787-7.292,4.844-14.869,7.755-22.107c2.691-6.685,7.56-9.843,15.377-9.941c10.46-0.132,15.603,6.068,19.583,13.939
						c4.83,9.558,12.251,14.378,22.768,16.226c6.438,1.13,14.082-0.853,19.148,5.494c6.315,7.913,14.998,9.252,24.43,9.023
						c4.491-0.111,7.301-1.819,9.301-5.735c3.648-7.144,4.261-14.918,5.227-22.659c2.233-17.875,2.764-35.977,6.588-53.628
						c1.224-5.633,1.424-14.099,9.085-13.976c7.15,0.113,9.364,7.695,10.846,14.006c3.002,12.806,5.575,25.712,8.718,38.485
						c3.482,14.139,9.018,18.653,23.384,19.652c3.621,0.253,6.889,1.252,9.133,4.008c6.522,8.009,14.967,10.517,24.867,9.343
						c12.769,0.622,25.254,0.028,37.184-5.624c5.226-2.478,11.271-2.631,17.087-3.366c15.496-1.957,30.388,3.514,45.709,3.125
						c10.867,1.226,19.666-2.387,26.448-11.043c5.35-6.825,12.47-9.637,21.151-9.783c8.337-0.144,16.747-0.843,21.096-10.026
						c1.268-2.668,4.152-3.144,7.003-3.115c21.756,0.221,36.989-9.646,46.909-29.018c5.993-11.703,16.885-17.309,29.654-19.18
						c3.372-0.493,7.042,0.379,10.229-0.563c7.621-2.25,11.472,1.894,14.71,7.562c4.565,7.991,5.74,17.065,8.188,25.743
						c2.311,8.174,3.842,17.05,13.837,20.053c0.774,0.235,1.869,1.277,1.869,1.945c0,10.94,7.706,9.507,14.881,9.769
						c18.808,0.684,35.331,5.926,47.178,22.212c7.101,9.759,17.394,15.682,29.584,17.538c14.026,2.141,28.171,2.849,42.341,2.745
						c14.568-0.107,28.653,2.146,42.374,7.119c14.547,5.272,29.769,5.076,44.945,4.875"/>
				</g>
			</g>
		</g>
	</g>
	<g>
		<defs>
			<rect id="SVGID_77_" x="155.881" y="211.764" width="30.882" height="35.293"/>
		</defs>
		<clipPath id="SVGID_78_">
			<use xlink:href="#SVGID_77_"  overflow="visible"/>
		</clipPath>
	</g>
	<g>
		<defs>
			<rect id="SVGID_79_" x="141.466" y="191.542" width="61.677" height="77.957"/>
		</defs>
		<clipPath id="SVGID_80_">
			<use xlink:href="#SVGID_79_"  overflow="visible"/>
		</clipPath>
		<path clip-path="url(#SVGID_80_)" fill-rule="evenodd" clip-rule="evenodd" fill="#808080" d="M53.337,234.099h6.71
			c1.062,0,1.921-0.855,1.921-1.917v-22.547c0-1.061-0.859-1.918-1.921-1.918H37.502c-1.059,0-1.917,0.857-1.917,1.918v22.547
			c0,1.062,0.858,1.917,1.917,1.917h6.8l4.517,4.516L53.337,234.099z"/>
	</g>
	<g>
		<defs>
			<rect id="SVGID_81_" x="145.878" y="195.953" width="49.913" height="63.25"/>
		</defs>
		<clipPath id="SVGID_82_">
			<use xlink:href="#SVGID_81_"  overflow="visible"/>
		</clipPath>
		<path clip-path="url(#SVGID_82_)" fill-rule="evenodd" clip-rule="evenodd" fill="#808080" d="M76.866,234.099h6.711
			c1.061,0,1.92-0.855,1.92-1.917v-22.547c0-1.061-0.859-1.918-1.92-1.918H61.031c-1.058,0-1.917,0.857-1.917,1.918v22.547
			c0,1.062,0.859,1.917,1.917,1.917h6.8l4.517,4.516L76.866,234.099z"/>
	</g>
	<g>
		<defs>
			<path id="SVGID_83_" d="M175.396,234.099h6.71c1.062,0,1.92-0.855,1.92-1.917v-22.547c0-1.061-0.858-1.918-1.92-1.918H159.56
				c-1.058,0-1.917,0.857-1.917,1.918v22.547c0,1.062,0.859,1.917,1.917,1.917h6.801l4.517,4.516L175.396,234.099z"/>
		</defs>
		<clipPath id="SVGID_84_">
			<use xlink:href="#SVGID_83_"  overflow="visible"/>
		</clipPath>
		
			<rect x="150.291" y="200.364" clip-path="url(#SVGID_84_)" fill-rule="evenodd" clip-rule="evenodd" fill="#FFFFFF" width="41.088" height="45.604"/>
	</g>
	<g>
		<defs>
			<path id="SVGID_85_" d="M173.131,226.114v2.628c0,0.205-0.074,0.378-0.224,0.528c-0.149,0.147-0.324,0.224-0.528,0.224h-3.003
				c-0.202,0-0.379-0.076-0.527-0.224c-0.149-0.15-0.224-0.323-0.224-0.528v-2.628c0-0.203,0.075-0.378,0.224-0.528
				c0.148-0.148,0.325-0.225,0.527-0.225h3.003c0.204,0,0.379,0.076,0.528,0.225C173.058,225.736,173.131,225.911,173.131,226.114z
				 M173.482,213.727l-0.328,9.009c-0.009,0.203-0.089,0.38-0.242,0.528c-0.152,0.147-0.33,0.222-0.534,0.222h-3.003
				c-0.202,0-0.382-0.074-0.533-0.222c-0.154-0.148-0.236-0.325-0.241-0.528l-0.328-9.009c-0.01-0.205,0.059-0.381,0.204-0.528
				c0.146-0.148,0.319-0.225,0.521-0.225h3.755c0.201,0,0.376,0.076,0.521,0.225C173.422,213.346,173.49,213.521,173.482,213.727z"
				/>
		</defs>
		<clipPath id="SVGID_86_">
			<use xlink:href="#SVGID_85_"  overflow="visible"/>
		</clipPath>
		
			<rect x="160.919" y="205.621" clip-path="url(#SVGID_86_)" fill-rule="evenodd" clip-rule="evenodd" fill="#F05A26" width="19.917" height="31.225"/>
	</g>
	<g>
		<defs>
			<rect id="SVGID_87_" x="304.41" y="254.41" width="30.882" height="36.767"/>
		</defs>
		<clipPath id="SVGID_88_">
			<use xlink:href="#SVGID_87_"  overflow="visible"/>
		</clipPath>
	</g>
	<g>
		<defs>
			<rect id="SVGID_89_" x="291.108" y="234.899" width="61.676" height="78.594"/>
		</defs>
		<clipPath id="SVGID_90_">
			<use xlink:href="#SVGID_89_"  overflow="visible"/>
		</clipPath>
		<path clip-path="url(#SVGID_90_)" fill-rule="evenodd" clip-rule="evenodd" fill="#808080" d="M192.766,256.232h-5.621
			c-1.06,0-1.918,0.856-1.918,1.915v22.549c0,1.058,0.858,1.915,1.918,1.915h22.543c1.061,0,1.92-0.857,1.92-1.915v-22.549
			c0-1.059-0.859-1.915-1.92-1.915h-6.615l-5.152-5.156L192.766,256.232z"/>
	</g>
	<g>
		<defs>
			<rect id="SVGID_91_" x="305.881" y="254.41" width="27.941" height="33.824"/>
		</defs>
		<clipPath id="SVGID_92_">
			<use xlink:href="#SVGID_91_"  overflow="visible"/>
		</clipPath>
	</g>
	<g>
		<defs>
			<rect id="SVGID_93_" x="295.52" y="239.312" width="49.911" height="63.888"/>
		</defs>
		<clipPath id="SVGID_94_">
			<use xlink:href="#SVGID_93_"  overflow="visible"/>
		</clipPath>
		<path clip-path="url(#SVGID_94_)" fill-rule="evenodd" clip-rule="evenodd" fill="#808080" d="M216.296,256.232h-5.621
			c-1.06,0-1.919,0.856-1.919,1.915v22.549c0,1.058,0.859,1.915,1.919,1.915h22.543c1.061,0,1.919-0.857,1.919-1.915v-22.549
			c0-1.059-0.858-1.915-1.919-1.915h-6.615l-5.153-5.156L216.296,256.232z"/>
	</g>
	<g>
		<defs>
			<path id="SVGID_95_" d="M314.824,256.232h-5.621c-1.06,0-1.918,0.856-1.918,1.915v22.549c0,1.058,0.858,1.915,1.918,1.915h22.544
				c1.061,0,1.92-0.857,1.92-1.915v-22.549c0-1.059-0.859-1.915-1.92-1.915h-6.616l-5.152-5.156L314.824,256.232z"/>
		</defs>
		<clipPath id="SVGID_96_">
			<use xlink:href="#SVGID_95_"  overflow="visible"/>
		</clipPath>
		
			<rect x="299.932" y="243.724" clip-path="url(#SVGID_96_)" fill-rule="evenodd" clip-rule="evenodd" fill="#FFFFFF" width="41.087" height="46.243"/>
	</g>
	<g>
		<defs>
			<polygon id="SVGID_97_" points="316.398,267.538 310.409,267.538 320.427,277.559 330.454,267.538 324.494,267.538 
				324.494,266.069 324.49,266.069 324.49,261.122 316.396,261.122 316.396,266.069 316.398,266.069 			"/>
		</defs>
		<clipPath id="SVGID_98_">
			<use xlink:href="#SVGID_97_"  overflow="visible"/>
		</clipPath>
		
			<rect x="303.056" y="253.77" clip-path="url(#SVGID_98_)" fill-rule="evenodd" clip-rule="evenodd" fill="#F05A26" width="34.751" height="31.143"/>
	</g>
	<g>
		<defs>
			<polyline id="SVGID_99_" points="795.584,242.647 795.584,205.882 764.702,205.882 764.702,242.647 			"/>
		</defs>
		<clipPath id="SVGID_100_">
			<use xlink:href="#SVGID_99_"  overflow="visible"/>
		</clipPath>
	</g>
	<g>
		<defs>
			<rect id="SVGID_101_" x="751.4" y="186.371" width="61.676" height="78.594"/>
		</defs>
		<clipPath id="SVGID_102_">
			<use xlink:href="#SVGID_101_"  overflow="visible"/>
		</clipPath>
		<path clip-path="url(#SVGID_102_)" fill-rule="evenodd" clip-rule="evenodd" fill="#808080" d="M653.058,207.701h-5.621
			c-1.059,0-1.918,0.857-1.918,1.918v22.547c0,1.06,0.859,1.917,1.918,1.917h22.543c1.06,0,1.921-0.857,1.921-1.917v-22.547
			c0-1.061-0.861-1.918-1.921-1.918h-6.615l-5.151-5.153L653.058,207.701z"/>
	</g>
	<g>
		<defs>
			<rect id="SVGID_103_" x="755.812" y="190.782" width="49.912" height="63.889"/>
		</defs>
		<clipPath id="SVGID_104_">
			<use xlink:href="#SVGID_103_"  overflow="visible"/>
		</clipPath>
		<path clip-path="url(#SVGID_104_)" fill-rule="evenodd" clip-rule="evenodd" fill="#808080" d="M676.587,207.701h-5.62
			c-1.061,0-1.919,0.857-1.919,1.918v22.547c0,1.06,0.858,1.917,1.919,1.917h22.543c1.059,0,1.919-0.857,1.919-1.917v-22.547
			c0-1.061-0.86-1.918-1.919-1.918h-6.615l-5.152-5.153L676.587,207.701z"/>
	</g>
	<g>
		<defs>
			<path id="SVGID_105_" d="M775.116,207.701h-5.621c-1.06,0-1.918,0.857-1.918,1.918v22.547c0,1.06,0.858,1.917,1.918,1.917h22.543
				c1.06,0,1.921-0.857,1.921-1.917v-22.547c0-1.061-0.861-1.918-1.921-1.918h-6.615l-5.152-5.153L775.116,207.701z"/>
		</defs>
		<clipPath id="SVGID_106_">
			<use xlink:href="#SVGID_105_"  overflow="visible"/>
		</clipPath>
		
			<rect x="760.224" y="195.195" clip-path="url(#SVGID_106_)" fill-rule="evenodd" clip-rule="evenodd" fill="#FFFFFF" width="41.088" height="46.24"/>
	</g>
	<g>
		<defs>
			<rect id="SVGID_107_" x="742.643" y="116.176" width="76.47" height="114.706"/>
		</defs>
		<clipPath id="SVGID_108_">
			<use xlink:href="#SVGID_107_"  overflow="visible"/>
		</clipPath>
		<path clip-path="url(#SVGID_108_)" fill="#4E5860" d="M776.449,212.948c1.352-0.789,2.827-1.185,4.43-1.185
			c1.6,0,3.077,0.396,4.428,1.185c1.352,0.787,2.423,1.859,3.211,3.209c0.789,1.353,1.184,2.829,1.184,4.431
			s-0.395,3.077-1.184,4.429c-0.788,1.353-1.859,2.422-3.211,3.211c-1.351,0.789-2.828,1.183-4.428,1.183
			c-1.603,0-3.078-0.394-4.43-1.183s-2.423-1.858-3.211-3.211c-0.789-1.352-1.185-2.827-1.185-4.429s0.396-3.078,1.185-4.431
			C774.026,214.808,775.098,213.735,776.449,212.948z M784.52,217.613c-0.131-0.039-0.295,0.006-0.493,0.136
			c-0.016,0.008-0.052,0.045-0.109,0.111c-0.058,0.062-0.109,0.102-0.155,0.107c0.016,0,0.032-0.018,0.052-0.057
			c0.019-0.039,0.039-0.08,0.058-0.127c0.019-0.046,0.032-0.073,0.04-0.079c0.046-0.053,0.131-0.111,0.252-0.174
			c0.108-0.047,0.308-0.092,0.599-0.137c0.26-0.062,0.455-0.02,0.585,0.125c-0.016-0.016,0.021-0.064,0.109-0.148
			c0.088-0.085,0.145-0.132,0.167-0.138c0.023-0.016,0.08-0.033,0.172-0.051c0.092-0.02,0.15-0.049,0.173-0.088l0.022-0.253
			c-0.092,0.008-0.159-0.018-0.201-0.08c-0.041-0.062-0.067-0.143-0.074-0.239c0,0.015-0.023,0.044-0.068,0.089
			c0-0.051-0.018-0.084-0.052-0.089c-0.035-0.008-0.079-0.006-0.133,0.009c-0.053,0.018-0.088,0.02-0.104,0.012
			c-0.075-0.021-0.133-0.05-0.172-0.085s-0.069-0.1-0.092-0.189c-0.023-0.094-0.039-0.149-0.046-0.173
			c-0.016-0.039-0.053-0.078-0.109-0.121c-0.059-0.041-0.093-0.08-0.108-0.121c-0.008-0.016-0.018-0.035-0.029-0.062
			s-0.023-0.053-0.034-0.075c-0.012-0.021-0.028-0.043-0.047-0.062c-0.019-0.018-0.04-0.029-0.062-0.029
			c-0.023,0-0.051,0.02-0.081,0.059c-0.03,0.038-0.059,0.075-0.085,0.114c-0.027,0.039-0.045,0.057-0.052,0.057
			c-0.023-0.016-0.047-0.021-0.069-0.016c-0.023,0.004-0.04,0.006-0.052,0.01c-0.012,0.006-0.029,0.018-0.052,0.035
			c-0.023,0.02-0.043,0.033-0.058,0.039c-0.023,0.018-0.056,0.029-0.099,0.035c-0.041,0.008-0.073,0.016-0.097,0.023
			c0.114-0.039,0.11-0.08-0.012-0.127c-0.076-0.029-0.138-0.041-0.184-0.033c0.068-0.031,0.098-0.078,0.086-0.138
			c-0.012-0.062-0.045-0.115-0.098-0.162h0.058c-0.007-0.029-0.04-0.062-0.098-0.098c-0.058-0.033-0.125-0.066-0.201-0.097
			c-0.076-0.031-0.127-0.053-0.149-0.068c-0.062-0.039-0.19-0.076-0.391-0.109c-0.199-0.035-0.326-0.037-0.38-0.006
			c-0.038,0.045-0.056,0.086-0.051,0.119c0.004,0.035,0.019,0.089,0.045,0.161c0.028,0.074,0.041,0.121,0.041,0.145
			c0.008,0.047-0.013,0.098-0.062,0.148c-0.051,0.054-0.076,0.099-0.076,0.138c0,0.055,0.054,0.113,0.162,0.18
			c0.107,0.064,0.146,0.147,0.115,0.247c-0.023,0.062-0.085,0.121-0.185,0.184c-0.1,0.062-0.161,0.108-0.184,0.136
			c-0.039,0.062-0.044,0.135-0.018,0.213c0.028,0.082,0.067,0.146,0.12,0.19c0.017,0.016,0.022,0.029,0.018,0.045
			c-0.004,0.018-0.018,0.035-0.041,0.053c-0.021,0.02-0.044,0.035-0.062,0.047c-0.018,0.012-0.044,0.023-0.073,0.041l-0.035,0.021
			c-0.085,0.039-0.163,0.018-0.236-0.068c-0.072-0.086-0.124-0.184-0.154-0.3c-0.054-0.191-0.115-0.305-0.185-0.343
			c-0.176-0.062-0.286-0.059-0.333,0.012c-0.039-0.1-0.194-0.201-0.471-0.301c-0.191-0.07-0.414-0.083-0.666-0.047
			c0.046-0.006,0.046-0.062,0-0.171c-0.054-0.115-0.127-0.16-0.219-0.139c0.022-0.045,0.038-0.113,0.046-0.2
			c0.008-0.088,0.012-0.141,0.012-0.156c0.022-0.098,0.068-0.187,0.138-0.263c0.007-0.006,0.034-0.041,0.081-0.098
			c0.046-0.059,0.082-0.109,0.108-0.156c0.027-0.045,0.028-0.067,0.006-0.067c0.27,0.028,0.46-0.012,0.575-0.127
			c0.038-0.039,0.082-0.104,0.132-0.195c0.05-0.093,0.09-0.157,0.12-0.196c0.069-0.045,0.122-0.066,0.161-0.062
			s0.094,0.025,0.167,0.062c0.072,0.039,0.127,0.059,0.166,0.059c0.107,0.008,0.167-0.035,0.178-0.127
			c0.012-0.092-0.017-0.168-0.086-0.229c0.092,0.008,0.104-0.057,0.035-0.195c-0.039-0.053-0.07-0.088-0.092-0.104
			c-0.093-0.031-0.196-0.012-0.311,0.057c-0.062,0.031-0.054,0.062,0.022,0.092c-0.007-0.006-0.045,0.033-0.109,0.121
			c-0.064,0.089-0.128,0.155-0.188,0.202c-0.062,0.045-0.123,0.027-0.185-0.059c-0.007-0.008-0.028-0.059-0.063-0.153
			c-0.034-0.098-0.07-0.148-0.109-0.156c-0.062,0-0.121,0.057-0.183,0.172c0.022-0.061-0.02-0.119-0.127-0.172
			s-0.2-0.084-0.275-0.092c0.146-0.091,0.115-0.194-0.093-0.31c-0.053-0.031-0.132-0.051-0.235-0.059s-0.178,0.008-0.225,0.047
			c-0.038,0.053-0.059,0.098-0.062,0.131c-0.004,0.035,0.016,0.066,0.058,0.094c0.042,0.024,0.081,0.046,0.12,0.062
			s0.082,0.031,0.133,0.047c0.05,0.016,0.081,0.027,0.097,0.033c0.108,0.078,0.139,0.131,0.093,0.162
			c-0.017,0.008-0.048,0.021-0.099,0.041c-0.049,0.018-0.093,0.035-0.131,0.051c-0.039,0.015-0.062,0.03-0.069,0.046
			c-0.023,0.029-0.023,0.084,0,0.16s0.016,0.131-0.023,0.162c-0.039-0.039-0.072-0.105-0.104-0.201
			c-0.029-0.098-0.057-0.16-0.08-0.19c0.053,0.069-0.04,0.091-0.287,0.069l-0.115-0.012c-0.03,0-0.092,0.008-0.184,0.023
			c-0.092,0.014-0.171,0.018-0.235,0.01s-0.116-0.037-0.154-0.091c-0.031-0.061-0.031-0.139,0-0.23
			c0.007-0.029,0.022-0.037,0.045-0.021c-0.029-0.023-0.073-0.061-0.127-0.108c-0.053-0.051-0.092-0.082-0.114-0.1
			c-0.352,0.114-0.712,0.272-1.08,0.472c0.047,0.008,0.093,0.004,0.139-0.012c0.039-0.016,0.087-0.039,0.148-0.074
			s0.1-0.057,0.115-0.064c0.26-0.107,0.421-0.133,0.482-0.08l0.059-0.057c0.106,0.123,0.183,0.219,0.229,0.287
			c-0.054-0.029-0.168-0.035-0.345-0.012c-0.154,0.046-0.237,0.091-0.253,0.138c0.053,0.092,0.072,0.162,0.057,0.207
			c-0.029-0.023-0.074-0.061-0.131-0.115c-0.059-0.053-0.114-0.096-0.168-0.127c-0.053-0.029-0.109-0.049-0.171-0.057
			c-0.123,0-0.208,0.004-0.254,0.012c-1.118,0.614-2.018,1.464-2.7,2.551c0.054,0.053,0.1,0.086,0.139,0.092
			c0.03,0.008,0.051,0.041,0.057,0.104c0.008,0.062,0.017,0.103,0.028,0.126c0.012,0.021,0.057,0.012,0.133-0.035
			c0.069,0.062,0.081,0.135,0.035,0.221c0.007-0.008,0.177,0.096,0.505,0.308c0.146,0.133,0.226,0.213,0.241,0.241
			c0.023,0.086-0.016,0.154-0.115,0.207c-0.007-0.016-0.04-0.051-0.103-0.102c-0.062-0.055-0.096-0.07-0.104-0.047
			c-0.023,0.039-0.021,0.109,0.006,0.213s0.067,0.149,0.121,0.142c-0.054,0-0.091,0.062-0.109,0.186
			c-0.02,0.123-0.029,0.259-0.029,0.409c0,0.148-0.004,0.237-0.012,0.269l0.023,0.012c-0.023,0.092-0.002,0.225,0.063,0.396
			c0.065,0.174,0.146,0.248,0.246,0.225c-0.1,0.023-0.022,0.188,0.23,0.494c0.046,0.061,0.075,0.096,0.092,0.104
			c0.022,0.016,0.068,0.045,0.138,0.086s0.127,0.08,0.173,0.115s0.084,0.074,0.114,0.12c0.03,0.039,0.069,0.125,0.115,0.26
			c0.046,0.132,0.099,0.224,0.161,0.269c-0.016,0.047,0.021,0.123,0.108,0.23c0.088,0.106,0.128,0.194,0.121,0.265
			c-0.008,0-0.018,0.004-0.029,0.012s-0.021,0.01-0.028,0.01c0.022,0.055,0.082,0.109,0.179,0.161
			c0.096,0.055,0.154,0.104,0.177,0.15c0.008,0.021,0.016,0.061,0.023,0.115c0.008,0.053,0.019,0.095,0.035,0.124
			c0.016,0.031,0.045,0.041,0.092,0.023c0.016-0.151-0.076-0.39-0.275-0.711c-0.115-0.19-0.181-0.304-0.196-0.333
			c-0.022-0.039-0.045-0.098-0.063-0.18c-0.019-0.079-0.036-0.136-0.052-0.165c0.016,0,0.039,0.006,0.069,0.018
			s0.063,0.023,0.098,0.039c0.035,0.016,0.063,0.031,0.087,0.047c0.022,0.016,0.029,0.027,0.022,0.035
			c-0.022,0.052-0.016,0.12,0.023,0.2c0.038,0.08,0.084,0.15,0.137,0.212c0.054,0.061,0.12,0.133,0.196,0.219
			c0.076,0.084,0.122,0.135,0.137,0.15c0.047,0.044,0.1,0.118,0.162,0.222c0.062,0.105,0.062,0.156,0,0.156
			c0.068,0,0.145,0.038,0.23,0.114c0.083,0.076,0.147,0.154,0.194,0.23c0.039,0.061,0.068,0.161,0.092,0.298
			c0.023,0.139,0.042,0.229,0.059,0.276c0.016,0.053,0.047,0.105,0.097,0.154c0.05,0.051,0.098,0.088,0.143,0.111
			c0.047,0.021,0.109,0.053,0.186,0.089c0.075,0.039,0.126,0.066,0.147,0.082c0.04,0.016,0.11,0.057,0.214,0.121
			c0.103,0.064,0.185,0.109,0.246,0.133c0.077,0.029,0.139,0.044,0.185,0.044s0.102-0.01,0.166-0.026
			c0.064-0.02,0.117-0.033,0.156-0.041c0.114-0.016,0.225,0.041,0.333,0.171c0.107,0.133,0.188,0.213,0.24,0.242
			c0.276,0.146,0.487,0.188,0.633,0.126c-0.016,0.008-0.014,0.035,0.006,0.086c0.019,0.051,0.051,0.109,0.092,0.178
			c0.041,0.069,0.075,0.126,0.103,0.167s0.048,0.074,0.063,0.098c0.039,0.047,0.108,0.105,0.208,0.172
			c0.098,0.069,0.167,0.128,0.206,0.173c0.045-0.029,0.073-0.064,0.08-0.104c-0.023,0.062,0.005,0.139,0.08,0.23
			c0.077,0.092,0.146,0.13,0.207,0.115c0.108-0.023,0.161-0.145,0.161-0.369c-0.237,0.117-0.425,0.047-0.563-0.206
			c0-0.008-0.01-0.029-0.029-0.064c-0.018-0.033-0.033-0.066-0.045-0.096c-0.012-0.031-0.021-0.063-0.029-0.099
			c-0.006-0.035-0.006-0.062,0-0.086c0.008-0.021,0.027-0.033,0.058-0.033c0.069,0,0.108-0.014,0.115-0.041s0-0.076-0.022-0.145
			c-0.023-0.067-0.039-0.118-0.047-0.149c-0.007-0.061-0.051-0.137-0.126-0.23c-0.076-0.089-0.122-0.147-0.138-0.171
			c-0.039,0.07-0.1,0.099-0.185,0.092c-0.083-0.006-0.144-0.041-0.183-0.104c0,0.008-0.006,0.029-0.018,0.064
			c-0.012,0.033-0.018,0.058-0.018,0.073c-0.1,0-0.156-0.004-0.172-0.012c0.006-0.022,0.017-0.089,0.028-0.2s0.024-0.197,0.04-0.259
			c0.008-0.029,0.029-0.076,0.063-0.139c0.034-0.061,0.063-0.115,0.087-0.166c0.022-0.051,0.038-0.097,0.045-0.144
			c0.008-0.045-0.01-0.082-0.051-0.109c-0.042-0.027-0.109-0.035-0.202-0.029c-0.145,0.008-0.245,0.086-0.298,0.229
			c-0.007,0.023-0.019,0.064-0.035,0.121c-0.017,0.059-0.034,0.102-0.058,0.133c-0.022,0.031-0.058,0.059-0.103,0.082
			c-0.053,0.021-0.145,0.029-0.276,0.021c-0.132-0.006-0.223-0.027-0.275-0.057c-0.1-0.062-0.186-0.174-0.259-0.333
			c-0.072-0.162-0.109-0.305-0.109-0.425c0-0.076,0.011-0.18,0.029-0.307c0.019-0.126,0.03-0.222,0.035-0.286
			c0.004-0.064-0.018-0.159-0.064-0.282c0.023-0.014,0.059-0.051,0.104-0.109c0.046-0.057,0.085-0.098,0.114-0.119
			c0.017-0.008,0.033-0.014,0.053-0.018c0.019-0.004,0.035-0.004,0.052,0c0.016,0.004,0.03-0.002,0.046-0.018
			s0.027-0.038,0.034-0.067c-0.007-0.008-0.022-0.02-0.046-0.035c-0.023-0.023-0.039-0.035-0.046-0.035
			c0.054,0.023,0.163,0.018,0.327-0.018c0.165-0.033,0.271-0.027,0.316,0.018c0.114,0.086,0.199,0.076,0.253-0.023
			c0-0.008-0.011-0.043-0.028-0.109c-0.02-0.064-0.021-0.117-0.006-0.153c0.039,0.206,0.149,0.241,0.333,0.103
			c0.022,0.023,0.082,0.041,0.178,0.057s0.162,0.035,0.2,0.059c0.023,0.016,0.051,0.035,0.082,0.062
			c0.029,0.027,0.051,0.045,0.062,0.053c0.012,0.006,0.03,0.006,0.058-0.006s0.059-0.037,0.098-0.076
			c0.075,0.109,0.121,0.2,0.137,0.276c0.086,0.306,0.158,0.476,0.219,0.505c0.053,0.023,0.097,0.031,0.126,0.023
			c0.031-0.006,0.048-0.045,0.053-0.109c0.004-0.064,0.004-0.119,0-0.159c-0.005-0.043-0.011-0.092-0.018-0.145l-0.012-0.092
			c0-0.07,0-0.139,0-0.206l-0.012-0.094c-0.115-0.021-0.185-0.068-0.212-0.137c-0.027-0.07-0.021-0.14,0.018-0.212
			c0.039-0.074,0.096-0.145,0.171-0.213c0.008-0.008,0.04-0.023,0.094-0.041c0.053-0.02,0.113-0.045,0.177-0.073
			c0.064-0.031,0.113-0.062,0.145-0.094c0.16-0.145,0.219-0.28,0.172-0.401c0.054,0,0.096-0.035,0.126-0.104
			c-0.007,0-0.026-0.012-0.057-0.035c-0.03-0.021-0.059-0.041-0.087-0.057c-0.026-0.016-0.044-0.023-0.051-0.023
			c0.068-0.039,0.076-0.099,0.022-0.183c0.039-0.023,0.067-0.066,0.087-0.127c0.019-0.062,0.047-0.1,0.085-0.115
			c0.068,0.092,0.15,0.098,0.242,0.023c0.053-0.062,0.057-0.122,0.012-0.185c0.038-0.053,0.116-0.094,0.234-0.121
			c0.12-0.027,0.19-0.062,0.214-0.107c0.053,0.014,0.083,0.006,0.091-0.023c0.008-0.03,0.012-0.077,0.012-0.138
			c0-0.062,0.011-0.107,0.034-0.139c0.03-0.039,0.088-0.074,0.173-0.104c0.084-0.029,0.134-0.05,0.149-0.056l0.195-0.129
			c0.022-0.029,0.022-0.045,0-0.045c0.138,0.016,0.257-0.027,0.355-0.127c0.077-0.086,0.054-0.159-0.069-0.229
			c0.023-0.047,0.012-0.082-0.034-0.109c-0.045-0.027-0.103-0.047-0.172-0.062c0.023-0.008,0.068-0.01,0.133-0.006
			c0.063,0.004,0.104-0.002,0.12-0.018C784.716,217.721,784.688,217.658,784.52,217.613L784.52,217.613z M782.13,227.642
			c0,0.047,0.007,0.109,0.023,0.185c1.578-0.276,2.923-0.999,4.032-2.172c-0.022-0.023-0.07-0.041-0.143-0.053
			c-0.074-0.01-0.121-0.023-0.145-0.039c-0.139-0.053-0.229-0.084-0.275-0.092c0.007-0.053-0.001-0.104-0.028-0.149
			c-0.027-0.045-0.058-0.08-0.092-0.104c-0.035-0.023-0.082-0.053-0.145-0.092c-0.062-0.039-0.103-0.064-0.126-0.08
			c-0.016-0.016-0.041-0.039-0.08-0.07c-0.039-0.028-0.064-0.052-0.081-0.062c-0.016-0.012-0.044-0.029-0.086-0.051
			c-0.042-0.023-0.075-0.031-0.099-0.023c-0.021,0.006-0.061,0.012-0.114,0.012l-0.034,0.012c-0.022,0.006-0.044,0.016-0.063,0.027
			c-0.019,0.012-0.04,0.023-0.063,0.033c-0.022,0.012-0.038,0.023-0.046,0.035c-0.008,0.011-0.008,0.021,0,0.028
			c-0.16-0.13-0.298-0.214-0.413-0.253c-0.039-0.006-0.08-0.029-0.126-0.062s-0.086-0.062-0.121-0.08
			c-0.034-0.02-0.073-0.025-0.115-0.018c-0.041,0.008-0.086,0.035-0.132,0.08c-0.039,0.039-0.061,0.098-0.068,0.174
			s-0.016,0.125-0.023,0.147c-0.053-0.038-0.053-0.103,0-0.2c0.053-0.096,0.062-0.166,0.023-0.213
			c-0.023-0.046-0.063-0.063-0.121-0.052s-0.104,0.029-0.139,0.052c-0.034,0.023-0.077,0.057-0.131,0.098s-0.088,0.068-0.104,0.074
			c-0.016,0.008-0.047,0.029-0.098,0.064c-0.05,0.035-0.082,0.064-0.098,0.086c-0.022,0.029-0.045,0.076-0.067,0.138
			c-0.023,0.062-0.042,0.104-0.059,0.125c-0.016-0.027-0.059-0.055-0.133-0.072c-0.072-0.02-0.109-0.041-0.109-0.064
			c0.017,0.076,0.031,0.211,0.047,0.401c0.016,0.191,0.035,0.34,0.058,0.437c0.054,0.238,0.007,0.421-0.138,0.554
			c-0.206,0.19-0.317,0.343-0.333,0.46c-0.031,0.167,0.016,0.267,0.138,0.298c0,0.053-0.03,0.133-0.093,0.235
			C782.148,227.499,782.123,227.579,782.13,227.642L782.13,227.642z"/>
	</g>
	<g>
		<defs>
			<rect id="SVGID_109_" x="344.116" y="110.294" width="30.882" height="35.293"/>
		</defs>
		<clipPath id="SVGID_110_">
			<use xlink:href="#SVGID_109_"  overflow="visible"/>
		</clipPath>
	</g>
	<g>
		<defs>
			<rect id="SVGID_111_" x="330.77" y="90.221" width="61.676" height="77.957"/>
		</defs>
		<clipPath id="SVGID_112_">
			<use xlink:href="#SVGID_111_"  overflow="visible"/>
		</clipPath>
		<path clip-path="url(#SVGID_112_)" fill-rule="evenodd" clip-rule="evenodd" fill="#808080" d="M242.638,132.779h6.714
			c1.057,0,1.915-0.857,1.915-1.917v-22.548c0-1.06-0.858-1.918-1.915-1.918h-22.548c-1.058,0-1.917,0.858-1.917,1.918v22.548
			c0,1.06,0.859,1.917,1.917,1.917h6.801l4.514,4.517L242.638,132.779z"/>
	</g>
	<g>
		<defs>
			<rect id="SVGID_113_" x="345.586" y="110.294" width="27.941" height="32.352"/>
		</defs>
		<clipPath id="SVGID_114_">
			<use xlink:href="#SVGID_113_"  overflow="visible"/>
		</clipPath>
	</g>
	<g>
		<defs>
			<rect id="SVGID_115_" x="335.182" y="94.633" width="49.911" height="63.25"/>
		</defs>
		<clipPath id="SVGID_116_">
			<use xlink:href="#SVGID_115_"  overflow="visible"/>
		</clipPath>
		<path clip-path="url(#SVGID_116_)" fill-rule="evenodd" clip-rule="evenodd" fill="#808080" d="M266.167,132.779h6.714
			c1.057,0,1.917-0.857,1.917-1.917v-22.548c0-1.06-0.859-1.918-1.917-1.918h-22.546c-1.058,0-1.917,0.858-1.917,1.918v22.548
			c0,1.06,0.859,1.917,1.917,1.917h6.8l4.515,4.517L266.167,132.779z"/>
	</g>
	<g>
		<defs>
			<path id="SVGID_117_" d="M364.697,132.779h6.714c1.056,0,1.916-0.857,1.916-1.917v-22.548c0-1.06-0.859-1.918-1.916-1.918
				h-22.547c-1.058,0-1.917,0.858-1.917,1.918v22.548c0,1.06,0.859,1.917,1.917,1.917h6.8l4.515,4.517L364.697,132.779z"/>
		</defs>
		<clipPath id="SVGID_118_">
			<use xlink:href="#SVGID_117_"  overflow="visible"/>
		</clipPath>
		
			<rect x="339.593" y="99.045" clip-path="url(#SVGID_118_)" fill-rule="evenodd" clip-rule="evenodd" fill="#FFFFFF" width="41.087" height="45.604"/>
	</g>
	<g>
		<defs>
			<polygon id="SVGID_119_" points="364.212,121.47 370.204,121.47 360.182,111.451 350.159,121.47 356.118,121.47 356.118,122.942 
				356.123,122.942 356.123,127.887 364.215,127.887 364.215,122.942 364.212,122.942 			"/>
		</defs>
		<clipPath id="SVGID_120_">
			<use xlink:href="#SVGID_119_"  overflow="visible"/>
		</clipPath>
		
			<rect x="342.806" y="104.097" clip-path="url(#SVGID_120_)" fill-rule="evenodd" clip-rule="evenodd" fill="#24ABE2" width="34.751" height="31.143"/>
	</g>
	<g>
		<defs>
			<rect id="SVGID_121_" x="504.408" y="154.411" width="30.883" height="35.295"/>
		</defs>
		<clipPath id="SVGID_122_">
			<use xlink:href="#SVGID_121_"  overflow="visible"/>
		</clipPath>
	</g>
	<g>
		<defs>
			<rect id="SVGID_123_" x="490.728" y="134.848" width="61.677" height="77.959"/>
		</defs>
		<clipPath id="SVGID_124_">
			<use xlink:href="#SVGID_123_"  overflow="visible"/>
		</clipPath>
		<path clip-path="url(#SVGID_124_)" fill-rule="evenodd" clip-rule="evenodd" fill="#808080" d="M402.597,177.406l-4.519,4.519
			l-4.514-4.519h-6.799c-1.06,0-1.918-0.857-1.918-1.918v-22.547c0-1.06,0.858-1.917,1.918-1.917h22.543
			c1.06,0,1.919,0.857,1.919,1.917v22.547c0,1.061-0.859,1.918-1.919,1.918H402.597z"/>
	</g>
	<g>
		<defs>
			<rect id="SVGID_125_" x="505.879" y="154.411" width="27.941" height="32.354"/>
		</defs>
		<clipPath id="SVGID_126_">
			<use xlink:href="#SVGID_125_"  overflow="visible"/>
		</clipPath>
	</g>
	<g>
		<defs>
			<rect id="SVGID_127_" x="495.14" y="139.261" width="49.911" height="63.25"/>
		</defs>
		<clipPath id="SVGID_128_">
			<use xlink:href="#SVGID_127_"  overflow="visible"/>
		</clipPath>
		<path clip-path="url(#SVGID_128_)" fill-rule="evenodd" clip-rule="evenodd" fill="#808080" d="M426.126,177.406l-4.519,4.519
			l-4.515-4.519h-6.798c-1.06,0-1.919-0.857-1.919-1.918v-22.547c0-1.06,0.859-1.917,1.919-1.917h22.543
			c1.06,0,1.918,0.857,1.918,1.917v22.547c0,1.061-0.858,1.918-1.918,1.918H426.126z"/>
	</g>
	<g>
		<defs>
			<path id="SVGID_129_" d="M524.655,177.406l-4.517,4.519l-4.518-4.519h-6.798c-1.06,0-1.918-0.857-1.918-1.918v-22.547
				c0-1.06,0.858-1.917,1.918-1.917h22.544c1.06,0,1.919,0.857,1.919,1.917v22.547c0,1.061-0.859,1.918-1.919,1.918H524.655z"/>
		</defs>
		<clipPath id="SVGID_130_">
			<use xlink:href="#SVGID_129_"  overflow="visible"/>
		</clipPath>
		
			<rect x="499.552" y="143.671" clip-path="url(#SVGID_130_)" fill-rule="evenodd" clip-rule="evenodd" fill="#FFFFFF" width="41.088" height="45.604"/>
	</g>
	<g>
		<defs>
			<path id="SVGID_131_" d="M528.365,160.885c0,0.254-0.076,0.606-0.229,1.047c-0.311,0.885-0.854,1.604-1.63,2.156
				c-0.777,0.551-1.63,0.827-2.56,0.827c-1.222,0-2.269-0.435-3.138-1.304c-0.866-0.867-1.303-1.914-1.303-3.135
				s0.437-2.268,1.303-3.137c0.869-0.867,1.916-1.302,3.138-1.302c0.382,0,0.783,0.054,1.202,0.164
				c0.421,0.108,0.775,0.264,1.066,0.459c0.104,0.072,0.157,0.166,0.157,0.279c0,0.111-0.053,0.205-0.157,0.277l-2.904,1.674v2.218
				l1.913,1.06c0.031-0.019,0.293-0.179,0.781-0.479c0.489-0.3,0.938-0.571,1.343-0.803c0.406-0.234,0.642-0.352,0.699-0.352
				c0.1,0,0.178,0.032,0.233,0.101C528.338,160.7,528.365,160.784,528.365,160.885z M515.513,169.799
				c0.125-0.125,0.188-0.274,0.188-0.446c0-0.171-0.062-0.32-0.188-0.446c-0.124-0.125-0.273-0.185-0.445-0.185
				s-0.319,0.061-0.444,0.185c-0.127,0.126-0.19,0.275-0.19,0.446c0,0.172,0.063,0.321,0.19,0.446
				c0.125,0.125,0.272,0.189,0.444,0.189S515.389,169.924,515.513,169.799z M522.081,165.192l-6.757,6.756
				c-0.243,0.246-0.542,0.367-0.892,0.367c-0.344,0-0.644-0.122-0.899-0.367l-1.052-1.07c-0.251-0.237-0.376-0.535-0.376-0.89
				c0-0.351,0.125-0.65,0.376-0.902l6.747-6.747c0.258,0.647,0.636,1.221,1.135,1.718
				C520.861,164.558,521.436,164.934,522.081,165.192z"/>
		</defs>
		<clipPath id="SVGID_132_">
			<use xlink:href="#SVGID_131_"  overflow="visible"/>
		</clipPath>
		
			<rect x="504.752" y="148.684" clip-path="url(#SVGID_132_)" fill-rule="evenodd" clip-rule="evenodd" fill="#3D464D" width="30.966" height="30.984"/>
	</g>
	<g>
		<defs>
			<rect id="SVGID_133_" x="682.35" y="94.118" width="30.882" height="35.294"/>
		</defs>
		<clipPath id="SVGID_134_">
			<use xlink:href="#SVGID_133_"  overflow="visible"/>
		</clipPath>
	</g>
	<g>
		<defs>
			<rect id="SVGID_135_" x="668.337" y="73.796" width="61.677" height="77.959"/>
		</defs>
		<clipPath id="SVGID_136_">
			<use xlink:href="#SVGID_135_"  overflow="visible"/>
		</clipPath>
		<path clip-path="url(#SVGID_136_)" fill-rule="evenodd" clip-rule="evenodd" fill="#808080" d="M580.207,116.356h6.713
			c1.06,0,1.919-0.857,1.919-1.918V91.892c0-1.061-0.859-1.918-1.919-1.918h-22.545c-1.061,0-1.919,0.857-1.919,1.918v22.547
			c0,1.061,0.858,1.918,1.919,1.918h6.799l4.516,4.515L580.207,116.356z"/>
	</g>
	<g>
		<defs>
			<rect id="SVGID_137_" x="683.819" y="94.118" width="27.941" height="32.353"/>
		</defs>
		<clipPath id="SVGID_138_">
			<use xlink:href="#SVGID_137_"  overflow="visible"/>
		</clipPath>
	</g>
	<g>
		<defs>
			<rect id="SVGID_139_" x="672.749" y="78.208" width="49.913" height="63.252"/>
		</defs>
		<clipPath id="SVGID_140_">
			<use xlink:href="#SVGID_139_"  overflow="visible"/>
		</clipPath>
		<path clip-path="url(#SVGID_140_)" fill-rule="evenodd" clip-rule="evenodd" fill="#808080" d="M603.736,116.356h6.712
			c1.06,0,1.919-0.857,1.919-1.918V91.892c0-1.061-0.859-1.918-1.919-1.918h-22.544c-1.061,0-1.92,0.857-1.92,1.918v22.547
			c0,1.061,0.859,1.918,1.92,1.918h6.799l4.515,4.515L603.736,116.356z"/>
	</g>
	<g>
		<defs>
			<path id="SVGID_141_" d="M702.265,116.356h6.713c1.061,0,1.918-0.857,1.918-1.918V91.892c0-1.061-0.857-1.918-1.918-1.918
				h-22.544c-1.062,0-1.92,0.857-1.92,1.918v22.547c0,1.061,0.857,1.918,1.92,1.918h6.799l4.516,4.515L702.265,116.356z"/>
		</defs>
		<clipPath id="SVGID_142_">
			<use xlink:href="#SVGID_141_"  overflow="visible"/>
		</clipPath>
		
			<rect x="677.161" y="82.62" clip-path="url(#SVGID_142_)" fill-rule="evenodd" clip-rule="evenodd" fill="#FFFFFF" width="41.087" height="45.606"/>
	</g>
	<g>
		<defs>
			<path id="SVGID_143_" d="M706.508,101.444c0,0.155-0.091,0.325-0.275,0.507l-3.841,3.747l0.911,5.292
				c0.007,0.048,0.01,0.118,0.01,0.21c0,0.147-0.036,0.271-0.111,0.376c-0.074,0.102-0.183,0.153-0.322,0.153
				c-0.134,0-0.275-0.043-0.424-0.127l-4.75-2.497l-4.752,2.497c-0.153,0.084-0.297,0.127-0.423,0.127
				c-0.148,0-0.26-0.051-0.334-0.153c-0.073-0.104-0.11-0.229-0.11-0.376c0-0.042,0.006-0.112,0.021-0.21l0.91-5.292l-3.852-3.747
				c-0.178-0.189-0.265-0.359-0.265-0.507c0-0.262,0.196-0.423,0.594-0.487l5.311-0.773l2.381-4.816
				c0.134-0.287,0.307-0.432,0.52-0.432c0.21,0,0.384,0.145,0.518,0.432l2.381,4.816l5.312,0.773
				C706.311,101.021,706.508,101.183,706.508,101.444"/>
		</defs>
		<clipPath id="SVGID_144_">
			<use xlink:href="#SVGID_143_"  overflow="visible"/>
		</clipPath>
		
			<rect x="681.548" y="87.583" clip-path="url(#SVGID_144_)" fill-rule="evenodd" clip-rule="evenodd" fill="#24ABE2" width="32.312" height="31.499"/>
	</g>
	<g>
		<text transform="matrix(1 0 0 1 77.9385 45.5884)" fill="#FFFFFF" font-family="'OpenSans-Light'" font-size="24.2646">Timeline</text>
	</g>
</g>
</svg>
