<?xml version="1.0" encoding="utf-8"?>
<!-- Generator: Adobe Illustrator 16.0.4, SVG Export Plug-In . SVG Version: 6.00 Build 0)  -->
<!DOCTYPE svg PUBLIC "-//W3C//DTD SVG 1.1//EN" "http://www.w3.org/Graphics/SVG/1.1/DTD/svg11.dtd">
<svg version="1.1" xmlns="http://www.w3.org/2000/svg" xmlns:xlink="http://www.w3.org/1999/xlink" x="0px" y="0px"
	 width="923.527px" height="350px" viewBox="0 0 923.527 350" enable-background="new 0 0 923.527 350" xml:space="preserve">
<g id="timeline">
	<g id="bg" display="none">
		<g display="inline">
			<defs>
				<path id="SVGID_1_" d="M4.4,0C1.97,0,0,1.97,0,4.425v341.149C0,348.018,1.962,350,4.4,350h914.727c2.431,0,4.4-1.971,4.4-4.426
					V4.425c0-2.443-1.961-4.425-4.4-4.425H4.4z"/>
			</defs>
			<clipPath id="SVGID_2_">
				<use xlink:href="#SVGID_1_"  overflow="visible"/>
			</clipPath>
			<rect x="-7.353" y="-7.353" clip-path="url(#SVGID_2_)" fill="#1CABE3" width="938.233" height="364.704"/>
		</g>
	</g>
	
		<text id="title" transform="matrix(1 0 0 1 30.1484 69.1182)" display="none" fill="#FFFFFF" enable-background="new    " font-family="'OpenSans-Light'" font-size="24.2647">Kevin Was Here</text>
</g>
<g id="Layer_2">
	<g>
		<defs>
			<path id="SVGID_3_" d="M4.401,0C1.97,0,0,1.968,0,4.425v341.149c0,2.443,1.962,4.425,4.401,4.425h914.725
				c2.431,0,4.401-1.97,4.401-4.425V4.425c0-2.443-1.962-4.425-4.401-4.425H4.401z"/>
		</defs>
		<clipPath id="SVGID_4_">
			<use xlink:href="#SVGID_3_"  overflow="visible"/>
		</clipPath>
		<g clip-path="url(#SVGID_4_)" enable-background="new    ">
			<g>
				<defs>
					<rect id="SVGID_5_" y="-0.735" width="923.527" height="351.469"/>
				</defs>
				<clipPath id="SVGID_6_">
					<use xlink:href="#SVGID_5_"  overflow="visible"/>
				</clipPath>
				<g clip-path="url(#SVGID_6_)">
					<defs>
						<rect id="SVGID_7_" y="-0.735" width="923.527" height="351.469"/>
					</defs>
					<clipPath id="SVGID_8_">
						<use xlink:href="#SVGID_7_"  overflow="visible"/>
					</clipPath>
					
						<rect x="-7.353" y="-7.353" clip-path="url(#SVGID_8_)" fill-rule="evenodd" clip-rule="evenodd" fill="#24ABE2" width="938.234" height="364.706"/>
				</g>
				<g clip-path="url(#SVGID_6_)">
					<defs>
						<rect id="SVGID_9_" y="-0.735" width="923.527" height="351.469"/>
					</defs>
					<clipPath id="SVGID_10_">
						<use xlink:href="#SVGID_9_"  overflow="visible"/>
					</clipPath>
					<g opacity="0.2" clip-path="url(#SVGID_10_)" enable-background="new    ">
						<g>
							<defs>
								<rect id="SVGID_11_" y="66.911" width="923.527" height="217.648"/>
							</defs>
							<clipPath id="SVGID_12_">
								<use xlink:href="#SVGID_11_"  overflow="visible"/>
							</clipPath>
							<g clip-path="url(#SVGID_12_)">
								<defs>
									<rect id="SVGID_13_" y="-0.735" width="923.527" height="351.469"/>
								</defs>
								<clipPath id="SVGID_14_">
									<use xlink:href="#SVGID_13_"  overflow="visible"/>
								</clipPath>
								<g clip-path="url(#SVGID_14_)" enable-background="new    ">
									<g>
										<defs>
											<rect id="SVGID_15_" y="66.911" width="923.527" height="217.648"/>
										</defs>
										<clipPath id="SVGID_16_">
											<use xlink:href="#SVGID_15_"  overflow="visible"/>
										</clipPath>
										<g clip-path="url(#SVGID_16_)">
											<defs>
												<rect id="SVGID_17_" y="56.617" width="923.527" height="238.235"/>
											</defs>
											<clipPath id="SVGID_18_">
												<use xlink:href="#SVGID_17_"  overflow="visible"/>
											</clipPath>
											
												<polyline clip-path="url(#SVGID_18_)" fill="none" stroke="#FFFFFF" stroke-width="1.4706" stroke-linecap="square" stroke-miterlimit="10" points="
												0.735,277.205 353.561,277.205 922.792,277.205 											"/>
											
												<polyline clip-path="url(#SVGID_18_)" fill="none" stroke="#FFFFFF" stroke-width="1.4706" stroke-linecap="square" stroke-miterlimit="10" points="
												0.735,233.087 353.561,233.087 922.792,233.087 											"/>
											
												<polyline clip-path="url(#SVGID_18_)" fill="none" stroke="#FFFFFF" stroke-width="1.4706" stroke-linecap="square" stroke-miterlimit="10" points="
												0.735,193.382 353.561,193.382 922.792,193.382 											"/>
											
												<polyline clip-path="url(#SVGID_18_)" fill="none" stroke="#FFFFFF" stroke-width="1.4706" stroke-linecap="square" stroke-miterlimit="10" points="
												0.735,153.675 353.561,153.675 922.792,153.675 											"/>
											
												<polyline clip-path="url(#SVGID_18_)" fill="none" stroke="#FFFFFF" stroke-width="1.4706" stroke-linecap="square" stroke-miterlimit="10" points="
												0.735,113.97 353.561,113.97 922.792,113.97 											"/>
											
												<polyline clip-path="url(#SVGID_18_)" fill="none" stroke="#FFFFFF" stroke-width="1.4706" stroke-linecap="square" stroke-miterlimit="10" points="
												0.735,74.264 353.561,74.264 922.792,74.264 											"/>
										</g>
									</g>
								</g>
							</g>
						</g>
					</g>
				</g>
				<g clip-path="url(#SVGID_6_)">
					<defs>
						<rect id="SVGID_19_" x="-64.706" y="-17.648" width="117.647" height="397.059"/>
					</defs>
					<clipPath id="SVGID_20_">
						<use xlink:href="#SVGID_19_"  overflow="visible"/>
					</clipPath>
					<g clip-path="url(#SVGID_20_)">
						<defs>
							<rect id="SVGID_21_" y="-0.735" width="923.527" height="351.469"/>
						</defs>
						<clipPath id="SVGID_22_">
							<use xlink:href="#SVGID_21_"  overflow="visible"/>
						</clipPath>
						
							<rect x="-72.059" y="-25" clip-path="url(#SVGID_22_)" fill-rule="evenodd" clip-rule="evenodd" fill="#3D464D" width="132.354" height="411.765"/>
					</g>
				</g>
				<g clip-path="url(#SVGID_6_)">
					<defs>
						<rect id="SVGID_23_" x="870.586" y="-17.648" width="117.646" height="397.059"/>
					</defs>
					<clipPath id="SVGID_24_">
						<use xlink:href="#SVGID_23_"  overflow="visible"/>
					</clipPath>
					<g clip-path="url(#SVGID_24_)">
						<defs>
							<rect id="SVGID_25_" y="-0.735" width="923.527" height="351.469"/>
						</defs>
						<clipPath id="SVGID_26_">
							<use xlink:href="#SVGID_25_"  overflow="visible"/>
						</clipPath>
						
							<rect x="863.233" y="-25" clip-path="url(#SVGID_26_)" fill-rule="evenodd" clip-rule="evenodd" fill="#3D464D" width="132.353" height="411.765"/>
					</g>
				</g>
			</g>
		</g>
	</g>
	<g opacity="0.6" enable-background="new    ">
		<g>
			<defs>
				<rect id="SVGID_27_" x="76.47" y="300.733" width="774.998" height="25.001"/>
			</defs>
			<clipPath id="SVGID_28_">
				<use xlink:href="#SVGID_27_"  overflow="visible"/>
			</clipPath>
			<g clip-path="url(#SVGID_28_)">
				<defs>
					<rect id="SVGID_29_" y="-0.735" width="1411.761" height="351.469"/>
				</defs>
				<clipPath id="SVGID_30_">
					<use xlink:href="#SVGID_29_"  overflow="visible"/>
				</clipPath>
				<g clip-path="url(#SVGID_30_)" enable-background="new    ">
					<g>
						<defs>
							<rect id="SVGID_31_" x="76.47" y="300.733" width="774.998" height="25.001"/>
						</defs>
						<clipPath id="SVGID_32_">
							<use xlink:href="#SVGID_31_"  overflow="visible"/>
						</clipPath>
						<g clip-path="url(#SVGID_32_)">
							<defs>
								<rect id="SVGID_33_" x="769.116" y="286.027" width="85.294" height="40.441"/>
							</defs>
							<clipPath id="SVGID_34_">
								<use xlink:href="#SVGID_33_"  overflow="visible"/>
							</clipPath>
							<g clip-path="url(#SVGID_34_)">
								<text transform="matrix(1 0 0 1 798.5273 320.5859)" fill="#FFFFFF" font-family="'OpenSans'" font-size="17.647">2014</text>
							</g>
						</g>
						<g clip-path="url(#SVGID_32_)">
							<defs>
								<rect id="SVGID_35_" x="591.175" y="286.027" width="100" height="40.441"/>
							</defs>
							<clipPath id="SVGID_36_">
								<use xlink:href="#SVGID_35_"  overflow="visible"/>
							</clipPath>
							<g clip-path="url(#SVGID_36_)">
								<text transform="matrix(1 0 0 1 620.5859 320.5859)" fill="#FFFFFF" font-family="'OpenSans'" font-size="17.647">2013</text>
							</g>
						</g>
						<g clip-path="url(#SVGID_32_)">
							<defs>
								<rect id="SVGID_37_" x="413.234" y="286.027" width="99.999" height="40.441"/>
							</defs>
							<clipPath id="SVGID_38_">
								<use xlink:href="#SVGID_37_"  overflow="visible"/>
							</clipPath>
							<g clip-path="url(#SVGID_38_)">
								<text transform="matrix(1 0 0 1 442.6455 320.5859)" fill="#FFFFFF" font-family="'OpenSans'" font-size="17.647">2012</text>
							</g>
						</g>
						<g clip-path="url(#SVGID_32_)">
							<defs>
								<rect id="SVGID_39_" x="235.293" y="286.027" width="100" height="40.441"/>
							</defs>
							<clipPath id="SVGID_40_">
								<use xlink:href="#SVGID_39_"  overflow="visible"/>
							</clipPath>
							<g clip-path="url(#SVGID_40_)">
								<text transform="matrix(1 0 0 1 264.7046 320.5859)" fill="#FFFFFF" font-family="'OpenSans'" font-size="17.647">2011</text>
							</g>
						</g>
						<g clip-path="url(#SVGID_32_)">
							<defs>
								<rect id="SVGID_41_" x="72.059" y="286.027" width="85.293" height="40.441"/>
							</defs>
							<clipPath id="SVGID_42_">
								<use xlink:href="#SVGID_41_"  overflow="visible"/>
							</clipPath>
							<g clip-path="url(#SVGID_42_)">
								<text transform="matrix(1 0 0 1 86.7646 320.5859)" fill="#FFFFFF" font-family="'OpenSans'" font-size="17.647">2010</text>
							</g>
						</g>
					</g>
				</g>
			</g>
		</g>
	</g>
	<g opacity="0.6" enable-background="new    ">
		<g>
			<defs>
				<rect id="SVGID_43_" x="5.882" y="61.029" width="42.647" height="183.823"/>
			</defs>
			<clipPath id="SVGID_44_">
				<use xlink:href="#SVGID_43_"  overflow="visible"/>
			</clipPath>
			<g clip-path="url(#SVGID_44_)">
				<defs>
					<rect id="SVGID_45_" y="-0.735" width="1411.761" height="351.469"/>
				</defs>
				<clipPath id="SVGID_46_">
					<use xlink:href="#SVGID_45_"  overflow="visible"/>
				</clipPath>
				<g clip-path="url(#SVGID_46_)" enable-background="new    ">
					<g>
						<defs>
							<rect id="SVGID_47_" x="5.882" y="61.029" width="42.647" height="183.823"/>
						</defs>
						<clipPath id="SVGID_48_">
							<use xlink:href="#SVGID_47_"  overflow="visible"/>
						</clipPath>
						<g clip-path="url(#SVGID_48_)">
							<defs>
								<rect id="SVGID_49_" y="-0.735" width="66.176" height="87.5"/>
							</defs>
							<clipPath id="SVGID_50_">
								<use xlink:href="#SVGID_49_"  overflow="visible"/>
							</clipPath>
							<g clip-path="url(#SVGID_50_)">
								<text transform="matrix(1 0 0 1 16.3799 80.8809)" fill="#FFFFFF" font-family="'OpenSans'" font-size="17.647">10</text>
							</g>
						</g>
						<g clip-path="url(#SVGID_48_)">
							<defs>
								<rect id="SVGID_51_" y="49.999" width="61.03" height="116.177"/>
							</defs>
							<clipPath id="SVGID_52_">
								<use xlink:href="#SVGID_51_"  overflow="visible"/>
							</clipPath>
							<g clip-path="url(#SVGID_52_)">
								<text transform="matrix(1 0 0 1 21.4243 160.292)" fill="#FFFFFF" font-family="'OpenSans'" font-size="17.647">6</text>
							</g>
						</g>
						<g clip-path="url(#SVGID_48_)">
							<defs>
								<rect id="SVGID_53_" y="129.411" width="61.03" height="116.177"/>
							</defs>
							<clipPath id="SVGID_54_">
								<use xlink:href="#SVGID_53_"  overflow="visible"/>
							</clipPath>
							<g clip-path="url(#SVGID_54_)">
								<text transform="matrix(1 0 0 1 21.4243 239.7031)" fill="#FFFFFF" font-family="'OpenSans'" font-size="17.647">2</text>
							</g>
						</g>
					</g>
				</g>
			</g>
		</g>
	</g>
	<g opacity="0.6" enable-background="new    ">
		<g>
			<defs>
				<rect id="SVGID_55_" x="888.233" y="21.323" width="22.059" height="123.529"/>
			</defs>
			<clipPath id="SVGID_56_">
				<use xlink:href="#SVGID_55_"  overflow="visible"/>
			</clipPath>
			<g clip-path="url(#SVGID_56_)">
				<defs>
					<rect id="SVGID_57_" y="-0.735" width="1411.761" height="351.469"/>
				</defs>
				<clipPath id="SVGID_58_">
					<use xlink:href="#SVGID_57_"  overflow="visible"/>
				</clipPath>
				<g clip-path="url(#SVGID_58_)" enable-background="new    ">
					<g>
						<defs>
							<rect id="SVGID_59_" x="888.233" y="21.323" width="22.059" height="123.529"/>
						</defs>
						<clipPath id="SVGID_60_">
							<use xlink:href="#SVGID_59_"  overflow="visible"/>
						</clipPath>
						<g clip-path="url(#SVGID_60_)">
							<defs>
								<rect id="SVGID_61_" x="855.88" y="-0.735" width="82.354" height="105.146"/>
							</defs>
							<clipPath id="SVGID_62_">
								<use xlink:href="#SVGID_61_"  overflow="visible"/>
							</clipPath>
							<g clip-path="url(#SVGID_62_)">
								<text transform="matrix(1 0 0 1 889.834 101.4678)" fill="#FFFFFF" font-family="'MyriadPro-Regular'" font-size="18.3823">+</text>
							</g>
						</g>
						<g clip-path="url(#SVGID_60_)">
							<defs>
								<rect id="SVGID_63_" x="855.88" y="25.734" width="82.354" height="118.382"/>
							</defs>
							<clipPath id="SVGID_64_">
								<use xlink:href="#SVGID_63_"  overflow="visible"/>
							</clipPath>
							<path clip-path="url(#SVGID_64_)" fill="#FFFFFF" d="M904.279,132.97v1.969c0,0.274-0.097,0.506-0.288,0.697
								c-0.192,0.191-0.425,0.288-0.697,0.288h-12.475c-0.272,0-0.505-0.097-0.698-0.288c-0.19-0.191-0.286-0.423-0.286-0.697
								v-1.969c0-0.275,0.096-0.508,0.286-0.699c0.193-0.191,0.426-0.287,0.698-0.287h12.475c0.272,0,0.505,0.096,0.697,0.287
								C904.183,132.462,904.279,132.695,904.279,132.97z"/>
						</g>
						<g clip-path="url(#SVGID_60_)">
							<defs>
								<rect id="SVGID_65_" x="855.88" y="-0.735" width="82.354" height="41.912"/>
							</defs>
							<clipPath id="SVGID_66_">
								<use xlink:href="#SVGID_65_"  overflow="visible"/>
							</clipPath>
							<path clip-path="url(#SVGID_66_)" fill="#FFFFFF" d="M896.821,33.075c0.067,0.068,0.102,0.148,0.102,0.235
								c0,0.089-0.034,0.168-0.102,0.237l-3.406,3.405l1.478,1.478c0.129,0.129,0.195,0.283,0.195,0.46
								c0,0.178-0.066,0.333-0.195,0.463c-0.131,0.129-0.284,0.194-0.463,0.194h-4.595c-0.178,0-0.332-0.064-0.462-0.194
								c-0.129-0.13-0.195-0.285-0.195-0.463v-4.595c0-0.178,0.066-0.332,0.195-0.46c0.13-0.131,0.284-0.196,0.462-0.196
								c0.177,0,0.331,0.065,0.462,0.196l1.477,1.476l3.405-3.405c0.068-0.069,0.147-0.103,0.236-0.103
								c0.09,0,0.168,0.034,0.235,0.103L896.821,33.075L896.821,33.075z M904.936,24.448v4.596c0,0.177-0.066,0.331-0.196,0.461
								c-0.128,0.13-0.284,0.195-0.46,0.195c-0.179,0-0.333-0.065-0.463-0.195l-1.477-1.476l-3.406,3.405
								c-0.067,0.069-0.146,0.103-0.236,0.103c-0.088,0-0.167-0.034-0.235-0.103l-1.17-1.169c-0.067-0.069-0.103-0.147-0.103-0.236
								c0-0.089,0.035-0.168,0.103-0.237l3.407-3.406l-1.479-1.477c-0.129-0.13-0.195-0.284-0.195-0.462
								c0-0.177,0.066-0.331,0.195-0.461c0.131-0.13,0.285-0.196,0.463-0.196h4.596c0.176,0,0.332,0.065,0.46,0.196
								C904.869,24.117,904.936,24.271,904.936,24.448z"/>
						</g>
					</g>
				</g>
			</g>
		</g>
	</g>
	<g>
		<defs>
			<rect id="SVGID_67_" x="52.941" y="29.411" width="817.645" height="291.176"/>
		</defs>
		<clipPath id="SVGID_68_">
			<use xlink:href="#SVGID_67_"  overflow="visible"/>
		</clipPath>
		<linearGradient id="SVGID_69_" gradientUnits="userSpaceOnUse" x1="616.043" y1="351.5" x2="616.043" y2="231.3959">
			<stop  offset="0" style="stop-color:#00ADEE;stop-opacity:0"/>
			<stop  offset="1" style="stop-color:#007A9C;stop-opacity:0.9"/>
		</linearGradient>
		<path opacity="0.5" clip-path="url(#SVGID_68_)" fill="url(#SVGID_69_)" fill-opacity="0.3" d="M1410.846,208.42
			c-15.179,0.2-30.4,0.397-44.945-4.875c-13.723-4.975-27.806-7.225-42.376-7.119c-14.169,0.103-28.312-0.604-42.341-2.743
			c-12.189-1.857-22.482-7.78-29.583-17.539c-11.848-16.287-28.37-21.528-47.178-22.212c-7.175-0.262-14.881,1.172-14.881-9.768
			c0-0.67-1.095-1.712-1.87-1.946c-9.995-3.001-11.527-11.878-13.837-20.052c-2.448-8.679-3.622-17.752-8.187-25.744
			c-3.24-5.669-7.09-9.813-14.712-7.562c-3.186,0.942-6.857,0.07-10.229,0.565c-12.769,1.868-23.66,7.476-29.654,19.177
			c-9.921,19.372-25.154,29.239-46.908,29.019c-2.853-0.027-5.737,0.446-7.004,3.116c-4.349,9.183-12.76,9.882-21.095,10.026
			c-8.683,0.146-15.802,2.958-21.153,9.783c-6.781,8.656-15.58,12.269-26.447,11.044c-15.322,0.389-30.213-5.082-45.709-3.125
			c-5.816,0.733-11.861,0.888-17.088,3.365c-11.93,5.653-24.414,6.246-37.184,5.624c-9.899,1.175-18.345-1.334-24.865-9.343
			c-2.244-2.756-5.513-3.754-9.134-4.007c-14.367-1-19.901-5.514-23.383-19.654c-3.144-12.771-5.717-25.679-8.719-38.484
			c-1.482-6.311-3.695-13.894-10.846-14.007c-7.662-0.123-7.862,8.344-9.084,13.977c-3.825,17.651-4.356,35.753-6.589,53.629
			c-0.966,7.741-1.578,15.515-5.227,22.657c-2,3.917-4.81,5.625-9.301,5.736c-9.432,0.228-18.113-1.11-24.431-9.022
			c-5.065-6.347-12.711-4.364-19.147-5.494c-10.518-1.848-17.938-6.669-22.769-16.227c-3.981-7.872-9.122-14.071-19.583-13.938
			c-7.816,0.097-12.686,3.256-15.376,9.94c-2.912,7.238-4.969,14.816-7.757,22.108c-2.787,7.29-7.238,12.818-16.106,12.411
			c-8.115,2.784-16.518,1.352-24.725,1.159c-10.794-0.256-19.062,3.241-24.652,12.537c-5.066,8.421-12.695,11.546-22.229,11.478
			c-14.459-0.102-28.689-0.656-42.266-6.837c-8.617-3.92-18.282-2.499-27.448-2.661c-13.636-0.237-27.257,0.746-40.475,4.885
			c-7.345,2.295-15.01,1.516-22.573,1.346c0,0.002-0.001,0.002-0.001,0.004c-17.31,0.975-34.482-0.762-51.624-2.747
			c-9.8-1.14-15.649-7.378-18.773-16.308c-2.005-5.735-3.577-11.619-5.316-17.449c-2.403-8.044-5.153-16.263-15.46-16.263
			c-10.306,0-11.109,18.328-13.122,28.923c-2.404,12.657-3.977,25.469-6.021,38.201c-0.908,5.652-2.509,11.441-7.554,14.553
			c-8.374,5.173-17.653,3.068-25.754-0.256c-7.883-3.232-15.543-5.576-24.01-5.244c-8.9,0.825-14.918-3.264-18.944-10.942
			c-8.699-16.598-29.122-18.334-41.312-3.583c-4.737,5.73-7.856,12.31-10.554,19.164c-8.537,21.688-20.874,28.185-47.284,25.547
			c-8.688-0.867-17.318-2.29-25.979-3.459c-0.001-0.002-0.003-0.004-0.006-0.008c-5.303-0.224-7.308,0.156-10.22,1.255
			c-20.833,8.481-42.513,4.374-64.081,4.719c-1.14,0.018-3.653,0.162-3.653,0.162c-8.973,0.944-15.403-2.81-20.151-10.589
			c-5.233-8.571-20.89-11.608-27.442-4.16C1.588,265.864-14.312,261.43-29.788,260c-5.785-0.534-11.485-2.009-17.402-1.905
			c-8.99,0.165-12.433,2.562-15.691,11.224c-4.944,13.132-5.856,27.115-8.745,40.678c-0.658,3.1-1.28,6.207-2,9.292
			c-4.96,21.27-20.231,20.106-34.568,9.032c-3.568-2.759-6.671-5.386-11.509-5.549c-11.988-0.405-20.343-5.508-23.185-18.099
			c-0.944-4.179-2.969-8.576-8.52-8.797c-5.381-0.212-9.533,2.28-12.154,6.769c-1.946,3.348-3.604,7.009-4.581,10.741
			c-1.974,7.536-3.289,15.242-5.077,22.827c-1.615,6.862-2.772,13.894-6.851,19.949c-1.394,2.071-2.823,3.988-5.106,5.108
			c-1.967,0.968-4.643,2.659-5.999,0.639h1614.44L1410.846,208.42z"/>
		<path clip-path="url(#SVGID_68_)" fill="none" stroke="#91D4EE" stroke-width="2.9412" stroke-miterlimit="10" d="
			M-191.177,361.909c1.356,2.021,4.032,0.329,5.999-0.639c2.283-1.12,3.712-3.037,5.106-5.108
			c4.078-6.056,5.235-13.087,6.851-19.949c1.789-7.585,3.104-15.291,5.077-22.827c0.976-3.732,2.634-7.394,4.581-10.741
			c2.621-4.488,6.772-6.98,12.154-6.769c5.551,0.221,7.576,4.618,8.52,8.797c2.842,12.591,11.197,17.693,23.185,18.099
			c4.838,0.163,7.941,2.79,11.509,5.549c14.337,11.074,29.608,12.237,34.568-9.032c0.72-3.085,1.341-6.192,2-9.292
			c2.889-13.562,3.801-27.546,8.745-40.678c3.259-8.662,6.702-11.059,15.691-11.224c5.917-0.104,11.618,1.371,17.402,1.905
			c15.476,1.43,31.376,5.864,44.309-8.842c6.552-7.448,22.209-4.411,27.442,4.16c4.748,7.779,11.179,11.533,20.151,10.589
			c0,0,2.514-0.145,3.653-0.162c21.568-0.345,43.247,3.763,64.081-4.719c2.912-1.099,4.917-1.479,10.22-1.255
			c0.003,0.004,0.005,0.006,0.006,0.008c8.661,1.169,17.291,2.592,25.979,3.459c26.411,2.638,38.748-3.858,47.284-25.547
			c2.698-6.854,5.817-13.434,10.554-19.164c12.19-14.751,32.612-13.015,41.312,3.583c4.025,7.679,10.044,11.768,18.944,10.942
			c8.467-0.332,16.127,2.012,24.01,5.244c8.101,3.324,17.38,5.429,25.754,0.256c5.044-3.111,6.646-8.9,7.554-14.553
			c2.044-12.732,3.616-25.544,6.021-38.201c2.013-10.595,2.816-28.923,13.122-28.923c10.307,0,13.057,8.219,15.46,16.263
			c1.739,5.83,3.312,11.713,5.316,17.449c3.124,8.93,8.973,15.168,18.773,16.308c17.142,1.985,34.314,3.722,51.624,2.747
			c0-0.002,0.001-0.002,0.001-0.004c7.563,0.17,15.229,0.949,22.573-1.346c13.218-4.139,26.839-5.122,40.475-4.885
			c9.166,0.162,18.831-1.259,27.448,2.661c13.576,6.181,27.807,6.735,42.266,6.837c9.533,0.068,17.162-3.057,22.229-11.478
			c5.591-9.296,13.858-12.793,24.652-12.537c8.207,0.192,16.609,1.625,24.725-1.159c8.868,0.407,13.319-5.121,16.106-12.411
			c2.788-7.292,4.845-14.87,7.757-22.108c2.69-6.685,7.56-9.843,15.376-9.94c10.461-0.132,15.602,6.067,19.583,13.938
			c4.831,9.558,12.251,14.378,22.769,16.227c6.437,1.13,14.082-0.854,19.147,5.494c6.317,7.912,14.999,9.25,24.431,9.022
			c4.491-0.111,7.301-1.819,9.301-5.736c3.648-7.142,4.261-14.916,5.227-22.657c2.232-17.876,2.764-35.978,6.589-53.629
			c1.222-5.633,1.422-14.099,9.084-13.977c7.15,0.113,9.363,7.696,10.846,14.007c3.002,12.805,5.575,25.713,8.719,38.484
			c3.481,14.14,9.016,18.654,23.383,19.654c3.621,0.252,6.89,1.251,9.134,4.007c6.521,8.009,14.966,10.518,24.865,9.343
			c12.77,0.622,25.254,0.029,37.184-5.624c5.227-2.477,11.271-2.631,17.088-3.365c15.496-1.957,30.387,3.514,45.709,3.125
			c10.867,1.225,19.666-2.388,26.447-11.044c5.352-6.824,12.471-9.637,21.153-9.783c8.335-0.144,16.746-0.843,21.095-10.026
			c1.267-2.669,4.151-3.143,7.004-3.116c21.754,0.22,36.987-9.647,46.908-29.019c5.994-11.702,16.886-17.31,29.654-19.177
			c3.372-0.495,7.044,0.377,10.229-0.565c7.622-2.25,11.472,1.894,14.712,7.562c4.564,7.992,5.738,17.065,8.187,25.744
			c2.31,8.174,3.842,17.051,13.837,20.052c0.775,0.234,1.87,1.276,1.87,1.946c0,10.94,7.706,9.506,14.881,9.768
			c18.808,0.684,35.33,5.926,47.178,22.212c7.101,9.759,17.394,15.682,29.583,17.539c14.028,2.139,28.172,2.846,42.341,2.743
			c14.57-0.105,28.653,2.145,42.376,7.119c14.545,5.272,29.767,5.075,44.945,4.875"/>
		<path clip-path="url(#SVGID_68_)" fill="none" stroke="#91D4EE" stroke-width="2.9412" stroke-miterlimit="10" d="
			M-191.177,360.44c1.356,2.021,4.032,0.327,5.999-0.641c2.283-1.121,3.712-3.036,5.106-5.107c4.078-6.057,5.235-13.089,6.851-19.95
			c1.789-7.585,3.104-15.291,5.077-22.827c0.976-3.731,2.634-7.394,4.581-10.741c2.621-4.489,6.772-6.979,12.154-6.767
			c5.551,0.219,7.576,4.616,8.52,8.795c2.842,12.592,11.197,17.692,23.185,18.098c4.838,0.164,7.941,2.792,11.509,5.55
			c14.337,11.074,29.608,12.237,34.568-9.033c0.72-3.084,1.341-6.189,2-9.291c2.889-13.562,3.801-27.546,8.745-40.676
			c3.259-8.664,6.702-11.061,15.691-11.227c5.917-0.104,11.618,1.372,17.402,1.905c15.476,1.431,31.376,5.865,44.309-8.841
			c6.552-7.449,22.209-4.409,27.442,4.161c4.748,7.778,11.179,11.532,20.151,10.588c0,0,2.514-0.145,3.653-0.162
			c21.568-0.343,43.247,3.763,64.081-4.717c2.912-1.099,4.917-1.48,10.22-1.257c0.003,0.004,0.005,0.006,0.006,0.01
			c8.661,1.169,17.291,2.589,25.979,3.456c26.411,2.639,38.748-3.857,47.284-25.546c2.698-6.854,5.817-13.433,10.554-19.162
			c12.19-14.753,32.612-13.017,41.312,3.581c4.025,7.678,10.044,11.768,18.944,10.941c8.467-0.331,16.127,2.013,24.01,5.245
			c8.101,3.324,17.38,5.428,25.754,0.255c5.044-3.111,6.646-8.899,7.554-14.552c2.044-12.73,3.616-25.545,6.021-38.201
			c2.013-10.596,2.816-28.922,13.122-28.922c10.307,0,13.057,8.219,15.46,16.263c1.739,5.828,3.312,11.713,5.316,17.448
			c3.124,8.932,8.973,15.17,18.773,16.308c17.142,1.985,34.314,3.722,51.624,2.747c0-0.002,0.001-0.002,0.001-0.002
			c7.563,0.17,15.229,0.947,22.573-1.348c13.218-4.137,26.839-5.123,40.475-4.885c9.166,0.161,18.831-1.259,27.448,2.661
			c13.576,6.181,27.807,6.735,42.266,6.839c9.533,0.066,17.162-3.059,22.229-11.479c5.591-9.296,13.858-12.791,24.652-12.538
			c8.207,0.193,16.609,1.625,24.725-1.159c8.868,0.407,13.319-5.12,16.106-12.411c2.788-7.291,4.845-14.87,7.757-22.108
			c2.69-6.685,7.56-9.843,15.376-9.94c10.461-0.132,15.602,6.067,19.583,13.938c4.831,9.558,12.251,14.379,22.769,16.228
			c6.437,1.13,14.082-0.853,19.147,5.492c6.317,7.913,14.999,9.253,24.431,9.023c4.491-0.111,7.301-1.818,9.301-5.734
			c3.648-7.145,4.261-14.918,5.227-22.659c2.232-17.875,2.764-35.978,6.589-53.629c1.222-5.631,1.422-14.098,9.084-13.976
			c7.15,0.114,9.363,7.696,10.846,14.006c3.002,12.807,5.575,25.714,8.719,38.485c3.481,14.14,9.016,18.654,23.383,19.653
			c3.621,0.253,6.89,1.25,9.134,4.006c6.521,8.01,14.966,10.518,24.865,9.343c12.77,0.622,25.254,0.029,37.184-5.624
			c5.227-2.478,11.271-2.631,17.088-3.365c15.496-1.958,30.387,3.515,45.709,3.125c10.867,1.226,19.666-2.387,26.447-11.044
			c5.352-6.824,12.471-9.635,21.153-9.782c8.335-0.144,16.746-0.843,21.095-10.025c1.267-2.67,4.151-3.144,7.004-3.116
			c21.754,0.221,36.987-9.646,46.908-29.019c5.994-11.702,16.886-17.309,29.654-19.178c3.372-0.494,7.044,0.378,10.229-0.565
			c7.622-2.25,11.472,1.895,14.712,7.563c4.564,7.992,5.738,17.065,8.187,25.744c2.31,8.174,3.842,17.051,13.837,20.052
			c0.775,0.233,1.87,1.277,1.87,1.946c0,10.94,7.706,9.507,14.881,9.768c18.808,0.684,35.33,5.926,47.178,22.213
			c7.101,9.758,17.394,15.683,29.583,17.538c14.028,2.14,28.172,2.847,42.341,2.743c14.57-0.104,28.653,2.146,42.376,7.12
			c14.545,5.271,29.767,5.075,44.945,4.874"/>
		<path clip-path="url(#SVGID_68_)" fill="none" stroke="#91D4EE" stroke-width="2.9412" stroke-miterlimit="10" d="
			M-191.177,357.498c1.356,2.021,4.032,0.33,5.999-0.641c2.283-1.12,3.712-3.035,5.106-5.106c4.078-6.056,5.235-13.089,6.851-19.951
			c1.789-7.583,3.104-15.29,5.077-22.825c0.976-3.732,2.634-7.396,4.581-10.742c2.621-4.489,6.772-6.979,12.154-6.767
			c5.551,0.22,7.576,4.615,8.52,8.796c2.842,12.591,11.197,17.691,23.185,18.099c4.838,0.163,7.941,2.79,11.509,5.547
			c14.337,11.076,29.608,12.239,34.568-9.03c0.72-3.087,1.341-6.192,2-9.292c2.889-13.564,3.801-27.548,8.745-40.678
			c3.259-8.662,6.702-11.059,15.691-11.224c5.917-0.104,11.618,1.371,17.402,1.905c15.476,1.428,31.376,5.862,44.309-8.842
			c6.552-7.45,22.209-4.411,27.442,4.16c4.748,7.779,11.179,11.534,20.151,10.589c0,0,2.514-0.145,3.653-0.164
			c21.568-0.343,43.247,3.763,64.081-4.717c2.912-1.099,4.917-1.479,10.22-1.255c0.003,0.002,0.005,0.006,0.006,0.008
			c8.661,1.169,17.291,2.592,25.979,3.457c26.411,2.638,38.748-3.858,47.284-25.545c2.698-6.854,5.817-13.434,10.554-19.164
			c12.19-14.751,32.612-13.015,41.312,3.581c4.025,7.681,10.044,11.771,18.944,10.942c8.467-0.33,16.127,2.015,24.01,5.246
			c8.101,3.324,17.38,5.427,25.754,0.254c5.044-3.109,6.646-8.898,7.554-14.553c2.044-12.73,3.616-25.542,6.021-38.198
			c2.013-10.598,2.816-28.923,13.122-28.923c10.307,0,13.057,8.218,15.46,16.263c1.739,5.828,3.312,11.713,5.316,17.45
			c3.124,8.929,8.973,15.167,18.773,16.307c17.142,1.985,34.314,3.72,51.624,2.748c0-0.002,0.001-0.002,0.001-0.004
			c7.563,0.169,15.229,0.948,22.573-1.347c13.218-4.139,26.839-5.124,40.475-4.885c9.166,0.16,18.831-1.261,27.448,2.662
			c13.576,6.178,27.807,6.735,42.266,6.836c9.533,0.068,17.162-3.057,22.229-11.479c5.591-9.293,13.858-12.791,24.652-12.537
			c8.207,0.192,16.609,1.625,24.725-1.157c8.868,0.405,13.319-5.122,16.106-12.412c2.788-7.292,4.845-14.87,7.757-22.108
			c2.69-6.685,7.56-9.843,15.376-9.94c10.461-0.132,15.602,6.067,19.583,13.938c4.831,9.558,12.251,14.379,22.769,16.227
			c6.437,1.13,14.082-0.853,19.147,5.494c6.317,7.911,14.999,9.252,24.431,9.021c4.491-0.111,7.301-1.817,9.301-5.733
			c3.648-7.144,4.261-14.918,5.227-22.659c2.232-17.875,2.764-35.977,6.589-53.629c1.222-5.633,1.422-14.098,9.084-13.977
			c7.15,0.114,9.363,7.697,10.846,14.007c3.002,12.805,5.575,25.713,8.719,38.484c3.481,14.141,9.016,18.654,23.383,19.654
			c3.621,0.252,6.89,1.251,9.134,4.007c6.521,8.01,14.966,10.518,24.865,9.343c12.77,0.623,25.254,0.028,37.184-5.624
			c5.227-2.477,11.271-2.63,17.088-3.365c15.496-1.957,30.387,3.515,45.709,3.125c10.867,1.225,19.666-2.387,26.447-11.043
			c5.352-6.825,12.471-9.636,21.153-9.784c8.335-0.143,16.746-0.842,21.095-10.025c1.267-2.67,4.151-3.144,7.004-3.116
			c21.754,0.221,36.987-9.647,46.908-29.019c5.994-11.702,16.886-17.31,29.654-19.178c3.372-0.494,7.044,0.377,10.229-0.565
			c7.622-2.25,11.472,1.895,14.712,7.562c4.564,7.992,5.738,17.065,8.187,25.744c2.31,8.174,3.842,17.051,13.837,20.052
			c0.775,0.235,1.87,1.277,1.87,1.947c0,10.94,7.706,9.507,14.881,9.768c18.808,0.684,35.33,5.926,47.178,22.213
			c7.101,9.759,17.394,15.682,29.583,17.537c14.028,2.141,28.172,2.847,42.341,2.743c14.57-0.104,28.653,2.146,42.376,7.121
			c14.545,5.272,29.767,5.075,44.945,4.875"/>
		<path clip-path="url(#SVGID_68_)" fill="none" stroke="#91D4EE" stroke-width="2.9412" stroke-miterlimit="10" d="
			M-191.177,356.027c1.356,2.021,4.032,0.329,5.999-0.641c2.283-1.12,3.712-3.036,5.106-5.106c4.078-6.056,5.235-13.09,6.851-19.951
			c1.789-7.583,3.104-15.289,5.077-22.825c0.976-3.732,2.634-7.394,4.581-10.741c2.621-4.49,6.772-6.98,12.154-6.769
			c5.551,0.221,7.576,4.616,8.52,8.797c2.842,12.59,11.197,17.691,23.185,18.099c4.838,0.163,7.941,2.79,11.509,5.547
			c14.337,11.076,29.608,12.239,34.568-9.031c0.72-3.086,1.341-6.191,2-9.291c2.889-13.562,3.801-27.548,8.745-40.678
			c3.259-8.662,6.702-11.059,15.691-11.225c5.917-0.103,11.618,1.372,17.402,1.906c15.476,1.43,31.376,5.864,44.309-8.842
			c6.552-7.448,22.209-4.411,27.442,4.159c4.748,7.78,11.179,11.534,20.151,10.59c0,0,2.514-0.145,3.653-0.162
			c21.568-0.345,43.247,3.763,64.081-4.719c2.912-1.099,4.917-1.479,10.22-1.255c0.003,0.002,0.005,0.006,0.006,0.008
			c8.661,1.169,17.291,2.592,25.979,3.458c26.411,2.639,38.748-3.857,47.284-25.546c2.698-6.854,5.817-13.435,10.554-19.164
			c12.19-14.751,32.612-13.015,41.312,3.583c4.025,7.679,10.044,11.768,18.944,10.941c8.467-0.331,16.127,2.013,24.01,5.245
			c8.101,3.324,17.38,5.428,25.754,0.255c5.044-3.111,6.646-8.899,7.554-14.552c2.044-12.732,3.616-25.545,6.021-38.201
			c2.013-10.597,2.816-28.923,13.122-28.923c10.307,0,13.057,8.219,15.46,16.263c1.739,5.828,3.312,11.714,5.316,17.449
			c3.124,8.93,8.973,15.168,18.773,16.308c17.142,1.985,34.314,3.722,51.624,2.747c0-0.002,0.001-0.002,0.001-0.004
			c7.563,0.17,15.229,0.949,22.573-1.346c13.218-4.139,26.839-5.122,40.475-4.885c9.166,0.162,18.831-1.259,27.448,2.661
			c13.576,6.181,27.807,6.735,42.266,6.837c9.533,0.068,17.162-3.057,22.229-11.478c5.591-9.296,13.858-12.793,24.652-12.538
			c8.207,0.191,16.609,1.623,24.725-1.159c8.868,0.405,13.319-5.122,16.106-12.412c2.788-7.291,4.845-14.869,7.757-22.107
			c2.69-6.686,7.56-9.844,15.376-9.941c10.461-0.132,15.602,6.068,19.583,13.939c4.831,9.557,12.251,14.378,22.769,16.227
			c6.437,1.13,14.082-0.854,19.147,5.493c6.317,7.913,14.999,9.25,24.431,9.021c4.491-0.109,7.301-1.818,9.301-5.734
			c3.648-7.144,4.261-14.916,5.227-22.657c2.232-17.876,2.764-35.978,6.589-53.63c1.222-5.631,1.422-14.098,9.084-13.975
			c7.15,0.113,9.363,7.696,10.846,14.006c3.002,12.806,5.575,25.713,8.719,38.485c3.481,14.14,9.016,18.653,23.383,19.654
			c3.621,0.252,6.89,1.25,9.134,4.006c6.521,8.009,14.966,10.519,24.865,9.344c12.77,0.622,25.254,0.028,37.184-5.625
			c5.227-2.477,11.271-2.63,17.088-3.365c15.496-1.957,30.387,3.515,45.709,3.125c10.867,1.226,19.666-2.387,26.447-11.043
			c5.352-6.825,12.471-9.637,21.153-9.783c8.335-0.144,16.746-0.844,21.095-10.026c1.267-2.669,4.151-3.144,7.004-3.116
			c21.754,0.221,36.987-9.646,46.908-29.018c5.994-11.702,16.886-17.31,29.654-19.178c3.372-0.494,7.044,0.378,10.229-0.564
			c7.622-2.25,11.472,1.894,14.712,7.562c4.564,7.992,5.738,17.065,8.187,25.744c2.31,8.174,3.842,17.051,13.837,20.053
			c0.775,0.234,1.87,1.276,1.87,1.945c0,10.941,7.706,9.507,14.881,9.768c18.808,0.684,35.33,5.926,47.178,22.213
			c7.101,9.759,17.394,15.682,29.583,17.539c14.028,2.14,28.172,2.847,42.341,2.743c14.57-0.104,28.653,2.146,42.376,7.12
			c14.545,5.271,29.767,5.075,44.945,4.874"/>
		<path clip-path="url(#SVGID_68_)" fill="none" stroke="#FFFFFF" stroke-width="2.9412" stroke-miterlimit="10" d="
			M-191.177,354.557c1.356,2.021,4.032,0.329,5.999-0.64c2.283-1.12,3.712-3.037,5.106-5.108c4.078-6.056,5.235-13.087,6.851-19.949
			c1.789-7.584,3.104-15.29,5.077-22.826c0.976-3.731,2.634-7.395,4.581-10.741c2.621-4.489,6.772-6.981,12.154-6.767
			c5.551,0.218,7.576,4.615,8.52,8.795c2.842,12.59,11.197,17.692,23.185,18.098c4.838,0.164,7.941,2.79,11.509,5.549
			c14.337,11.074,29.608,12.238,34.568-9.032c0.72-3.084,1.341-6.191,2-9.292c2.889-13.562,3.801-27.545,8.745-40.677
			c3.259-8.662,6.702-11.059,15.691-11.225c5.917-0.104,11.618,1.372,17.402,1.905c15.476,1.431,31.376,5.864,44.309-8.842
			c6.552-7.448,22.209-4.41,27.442,4.16c4.748,7.779,11.179,11.534,20.151,10.589c25.221-0.504,46.9,3.601,67.734-4.88
			c2.912-1.1,4.917-1.479,10.22-1.255c8.667,1.179,17.296,2.599,25.985,3.466c26.411,2.638,38.748-3.857,47.284-25.547
			c2.698-6.854,5.817-13.434,10.554-19.163c12.19-14.751,32.612-13.016,41.312,3.583c4.025,7.678,10.044,11.768,18.944,10.941
			c8.467-0.331,16.127,2.013,24.01,5.245c8.101,3.323,17.38,5.428,25.754,0.255c5.044-3.111,6.646-8.899,7.554-14.552
			c2.044-12.732,3.616-25.545,6.021-38.201c2.013-10.596,2.816-28.923,13.122-28.923c10.307,0,13.057,8.22,15.46,16.263
			c1.739,5.828,3.312,11.713,5.316,17.449c3.124,8.929,8.973,15.168,18.773,16.308c17.142,1.985,34.314,3.721,51.624,2.747
			c7.564,0.166,15.229,0.945,22.574-1.351c13.218-4.136,26.839-5.122,40.475-4.884c9.166,0.161,18.831-1.259,27.448,2.661
			c13.576,6.18,27.807,6.735,42.266,6.837c9.533,0.068,17.162-3.058,22.229-11.478c5.591-9.296,13.858-12.793,24.652-12.538
			c8.207,0.193,16.609,1.625,24.725-1.159c8.868,0.407,13.319-5.12,16.106-12.411c2.788-7.292,4.845-14.87,7.757-22.108
			c2.69-6.685,7.56-9.843,15.376-9.94c10.461-0.132,15.602,6.067,19.583,13.938c4.831,9.558,12.251,14.378,22.769,16.227
			c6.437,1.13,14.082-0.853,19.147,5.493c6.317,7.912,14.999,9.253,24.431,9.023c4.491-0.111,7.301-1.82,9.301-5.736
			c3.648-7.143,4.261-14.917,5.227-22.657c2.232-17.876,2.764-35.978,6.589-53.629c1.222-5.633,1.422-14.098,9.084-13.977
			c7.15,0.113,9.363,7.696,10.846,14.007c3.002,12.805,5.575,25.714,8.719,38.485c3.481,14.139,9.016,18.653,23.383,19.653
			c3.621,0.252,6.89,1.251,9.134,4.007c6.521,8.009,14.966,10.518,24.865,9.343c12.77,0.622,25.254,0.029,37.184-5.624
			c5.227-2.477,11.271-2.631,17.088-3.365c15.496-1.957,30.387,3.514,45.709,3.125c10.867,1.225,19.666-2.387,26.447-11.044
			c5.352-6.824,12.471-9.636,21.153-9.783c8.335-0.144,16.746-0.843,21.095-10.026c1.267-2.669,4.151-3.143,7.004-3.116
			c21.754,0.221,36.987-9.646,46.908-29.019c5.994-11.702,16.886-17.309,29.654-19.177c3.372-0.495,7.044,0.377,10.229-0.565
			c7.622-2.25,11.472,1.894,14.712,7.562c4.564,7.992,5.738,17.065,8.187,25.744c2.31,8.174,3.842,17.051,13.837,20.052
			c0.775,0.234,1.87,1.276,1.87,1.946c0,10.94,7.706,9.507,14.881,9.768c18.808,0.684,35.33,5.926,47.178,22.212
			c7.101,9.76,17.394,15.685,29.583,17.539c14.028,2.14,28.172,2.847,42.341,2.743c14.57-0.105,28.653,2.146,42.376,7.119
			c14.545,5.272,29.767,5.076,44.945,4.875"/>
	</g>
	<g>
		<g>
			<defs>
				<rect id="SVGID_70_" x="142.183" y="192.193" width="61.829" height="78.148"/>
			</defs>
			<clipPath id="SVGID_71_">
				<use xlink:href="#SVGID_70_"  overflow="visible"/>
			</clipPath>
			<path clip-path="url(#SVGID_71_)" fill-rule="evenodd" clip-rule="evenodd" fill="#808080" d="M53.836,234.854h6.727
				c1.064,0,1.926-0.855,1.926-1.92v-22.602c0-1.062-0.861-1.924-1.926-1.924H37.962c-1.062,0-1.922,0.861-1.922,1.924v22.602
				c0,1.064,0.86,1.92,1.922,1.92h6.817l4.527,4.529L53.836,234.854z"/>
		</g>
		<g>
			<defs>
				<rect id="SVGID_72_" x="146.605" y="196.615" width="50.035" height="63.406"/>
			</defs>
			<clipPath id="SVGID_73_">
				<use xlink:href="#SVGID_72_"  overflow="visible"/>
			</clipPath>
			<path clip-path="url(#SVGID_73_)" fill-rule="evenodd" clip-rule="evenodd" fill="#808080" d="M77.423,234.854h6.728
				c1.064,0,1.925-0.855,1.925-1.92v-22.602c0-1.062-0.86-1.924-1.925-1.924H61.549c-1.061,0-1.922,0.861-1.922,1.924v22.602
				c0,1.064,0.861,1.92,1.922,1.92h6.817l4.527,4.529L77.423,234.854z"/>
		</g>
		<g>
			<defs>
				<path id="SVGID_74_" d="M176.194,239.276h6.728c1.063,0,1.924-0.855,1.924-1.92v-22.602c0-1.062-0.86-1.924-1.924-1.924H160.32
					c-1.061,0-1.922,0.861-1.922,1.924v22.602c0,1.064,0.861,1.92,1.922,1.92h6.816l4.528,4.529L176.194,239.276z"/>
			</defs>
			<use xlink:href="#SVGID_74_"  overflow="visible" fill-rule="evenodd" clip-rule="evenodd" fill="#91D4EE"/>
			<clipPath id="SVGID_75_">
				<use xlink:href="#SVGID_74_"  overflow="visible"/>
			</clipPath>
			
				<rect x="151.027" y="205.462" clip-path="url(#SVGID_75_)" fill-rule="evenodd" clip-rule="evenodd" fill="#91D4EE" width="41.189" height="45.715"/>
		</g>
		<g>
			<defs>
				<path id="SVGID_76_" d="M176.194,234.854h6.728c1.063,0,1.924-0.855,1.924-1.92v-22.602c0-1.062-0.86-1.924-1.924-1.924H160.32
					c-1.061,0-1.922,0.861-1.922,1.924v22.602c0,1.064,0.861,1.92,1.922,1.92h6.816l4.528,4.529L176.194,234.854z"/>
			</defs>
			<clipPath id="SVGID_77_">
				<use xlink:href="#SVGID_76_"  overflow="visible"/>
			</clipPath>
			
				<rect x="151.027" y="201.039" clip-path="url(#SVGID_77_)" fill-rule="evenodd" clip-rule="evenodd" fill="#FFFFFF" width="41.189" height="45.715"/>
		</g>
		<g>
			<defs>
				<path id="SVGID_78_" d="M173.926,226.852v2.635c0,0.203-0.075,0.379-0.225,0.529c-0.15,0.148-0.326,0.223-0.53,0.223h-3.011
					c-0.203,0-0.38-0.074-0.527-0.223c-0.15-0.15-0.225-0.326-0.225-0.529v-2.635c0-0.203,0.074-0.381,0.225-0.529
					c0.147-0.148,0.324-0.225,0.527-0.225h3.011c0.204,0,0.38,0.076,0.53,0.225C173.851,226.471,173.926,226.648,173.926,226.852z
					 M174.276,214.434l-0.328,9.031c-0.009,0.203-0.089,0.381-0.241,0.529c-0.153,0.148-0.332,0.223-0.536,0.223h-3.011
					c-0.203,0-0.383-0.074-0.533-0.223c-0.154-0.148-0.236-0.326-0.242-0.529l-0.33-9.031c-0.008-0.205,0.061-0.381,0.206-0.531
					c0.146-0.148,0.319-0.223,0.522-0.223h3.765c0.202,0,0.378,0.074,0.522,0.223C174.216,214.053,174.285,214.229,174.276,214.434z
					"/>
			</defs>
			<clipPath id="SVGID_79_">
				<use xlink:href="#SVGID_78_"  overflow="visible"/>
			</clipPath>
			
				<rect x="161.683" y="206.309" clip-path="url(#SVGID_79_)" fill-rule="evenodd" clip-rule="evenodd" fill="#C76946" width="19.965" height="31.301"/>
		</g>
	</g>
	<g>
		<g>
			<defs>
				<path id="SVGID_80_" d="M315.967,262.041h-5.635c-1.062,0-1.924,0.859-1.924,1.922v22.604c0,1.062,0.861,1.922,1.924,1.922
					h22.598c1.064,0,1.926-0.859,1.926-1.922v-22.604c0-1.062-0.861-1.922-1.926-1.922h-6.631l-5.166-5.166L315.967,262.041z"/>
			</defs>
			<use xlink:href="#SVGID_80_"  overflow="visible" fill-rule="evenodd" clip-rule="evenodd" fill="#91D4EE"/>
			<clipPath id="SVGID_81_">
				<use xlink:href="#SVGID_80_"  overflow="visible"/>
			</clipPath>
			
				<rect x="301.037" y="249.504" clip-path="url(#SVGID_81_)" fill-rule="evenodd" clip-rule="evenodd" fill="#91D4EE" width="41.188" height="46.355"/>
		</g>
		<g>
			<defs>
				<path id="SVGID_82_" d="M315.967,257.041h-5.635c-1.062,0-1.924,0.859-1.924,1.922v22.604c0,1.062,0.861,1.922,1.924,1.922
					h22.598c1.064,0,1.926-0.859,1.926-1.922v-22.604c0-1.062-0.861-1.922-1.926-1.922h-6.631l-5.166-5.166L315.967,257.041z"/>
			</defs>
			<clipPath id="SVGID_83_">
				<use xlink:href="#SVGID_82_"  overflow="visible"/>
			</clipPath>
			
				<rect x="301.037" y="244.504" clip-path="url(#SVGID_83_)" fill-rule="evenodd" clip-rule="evenodd" fill="#FFFFFF" width="41.188" height="46.355"/>
		</g>
		<g>
			<defs>
				<polygon id="SVGID_84_" points="317.545,268.377 311.539,268.377 321.584,278.424 331.635,268.377 325.66,268.377 
					325.66,266.904 325.655,266.904 325.655,261.945 317.541,261.945 317.541,266.904 317.545,266.904 				"/>
			</defs>
			<clipPath id="SVGID_85_">
				<use xlink:href="#SVGID_84_"  overflow="visible"/>
			</clipPath>
			
				<rect x="304.169" y="254.574" clip-path="url(#SVGID_85_)" fill-rule="evenodd" clip-rule="evenodd" fill="#C76946" width="34.837" height="31.221"/>
		</g>
	</g>
	<g>
		<g>
			<defs>
				<path id="SVGID_86_" d="M777.391,213.393h-5.635c-1.062,0-1.924,0.859-1.924,1.922v22.604c0,1.062,0.861,1.922,1.924,1.922
					h22.598c1.062,0,1.926-0.859,1.926-1.922v-22.604c0-1.062-0.863-1.922-1.926-1.922h-6.631l-5.165-5.166L777.391,213.393z"/>
			</defs>
			<use xlink:href="#SVGID_86_"  overflow="visible" fill-rule="evenodd" clip-rule="evenodd" fill="#91D4EE"/>
			<clipPath id="SVGID_87_">
				<use xlink:href="#SVGID_86_"  overflow="visible"/>
			</clipPath>
			
				<rect x="762.461" y="200.855" clip-path="url(#SVGID_87_)" fill-rule="evenodd" clip-rule="evenodd" fill="#91D4EE" width="41.189" height="46.355"/>
		</g>
		<g>
			<defs>
				<path id="SVGID_88_" d="M777.391,208.393h-5.635c-1.062,0-1.924,0.859-1.924,1.922v22.604c0,1.062,0.861,1.922,1.924,1.922
					h22.598c1.062,0,1.926-0.859,1.926-1.922v-22.604c0-1.062-0.863-1.922-1.926-1.922h-6.631l-5.165-5.166L777.391,208.393z"/>
			</defs>
			<clipPath id="SVGID_89_">
				<use xlink:href="#SVGID_88_"  overflow="visible"/>
			</clipPath>
			
				<rect x="762.461" y="195.855" clip-path="url(#SVGID_89_)" fill-rule="evenodd" clip-rule="evenodd" fill="#FFFFFF" width="41.189" height="46.355"/>
		</g>
		<g>
			<defs>
				<rect id="SVGID_90_" x="744.838" y="116.643" width="76.658" height="114.988"/>
			</defs>
			<clipPath id="SVGID_91_">
				<use xlink:href="#SVGID_90_"  overflow="visible"/>
			</clipPath>
			<path clip-path="url(#SVGID_91_)" fill="#858783" d="M778.727,213.652c1.355-0.791,2.835-1.186,4.439-1.186
				c1.605,0,3.086,0.395,4.44,1.186s2.429,1.865,3.22,3.219c0.789,1.355,1.186,2.836,1.186,4.439c0,1.605-0.396,3.086-1.186,4.441
				c-0.791,1.354-1.865,2.428-3.22,3.219c-1.354,0.789-2.835,1.186-4.44,1.186c-1.604,0-3.084-0.396-4.439-1.186
				c-1.354-0.791-2.429-1.865-3.219-3.219c-0.791-1.355-1.187-2.836-1.187-4.441c0-1.604,0.396-3.084,1.187-4.439
				C776.298,215.518,777.372,214.443,778.727,213.652z M786.817,218.328c-0.131-0.039-0.295,0.008-0.495,0.139
				c-0.016,0.008-0.052,0.045-0.109,0.109s-0.109,0.102-0.155,0.109c0.016,0,0.032-0.02,0.052-0.059
				c0.019-0.037,0.039-0.08,0.058-0.125c0.019-0.047,0.032-0.074,0.04-0.082c0.046-0.053,0.131-0.109,0.254-0.172
				c0.107-0.047,0.307-0.092,0.599-0.139c0.261-0.062,0.456-0.02,0.587,0.127c-0.016-0.016,0.021-0.064,0.109-0.15
				c0.088-0.084,0.145-0.131,0.168-0.137c0.022-0.018,0.08-0.033,0.172-0.053s0.15-0.047,0.173-0.086l0.023-0.254
				c-0.093,0.008-0.16-0.02-0.202-0.08c-0.041-0.062-0.067-0.143-0.074-0.242c0,0.016-0.023,0.045-0.069,0.092
				c0-0.053-0.018-0.084-0.052-0.092c-0.035-0.008-0.079-0.004-0.133,0.012c-0.053,0.016-0.088,0.018-0.104,0.012
				c-0.076-0.023-0.134-0.053-0.173-0.088c-0.038-0.033-0.069-0.098-0.092-0.189c-0.023-0.092-0.039-0.148-0.046-0.172
				c-0.016-0.039-0.053-0.08-0.109-0.121c-0.059-0.043-0.094-0.082-0.109-0.121c-0.008-0.016-0.018-0.037-0.029-0.064
				s-0.023-0.051-0.035-0.074c-0.011-0.023-0.027-0.045-0.045-0.062c-0.02-0.02-0.041-0.029-0.064-0.029
				c-0.022,0-0.05,0.02-0.08,0.057c-0.03,0.039-0.059,0.078-0.086,0.115c-0.027,0.039-0.045,0.059-0.053,0.059
				c-0.022-0.016-0.045-0.021-0.068-0.018s-0.041,0.008-0.052,0.012c-0.012,0.004-0.029,0.016-0.052,0.035
				c-0.023,0.018-0.042,0.033-0.058,0.039c-0.023,0.016-0.057,0.027-0.099,0.035c-0.041,0.008-0.074,0.016-0.098,0.023
				c0.115-0.039,0.111-0.082-0.012-0.127c-0.076-0.031-0.138-0.041-0.184-0.035c0.068-0.029,0.098-0.076,0.086-0.139
				c-0.012-0.061-0.045-0.115-0.098-0.16h0.058c-0.007-0.031-0.04-0.064-0.099-0.098c-0.057-0.035-0.125-0.068-0.201-0.098
				c-0.076-0.031-0.127-0.055-0.149-0.07c-0.062-0.039-0.191-0.074-0.392-0.109c-0.2-0.033-0.326-0.035-0.38-0.006
				c-0.039,0.047-0.056,0.088-0.052,0.121c0.004,0.035,0.019,0.088,0.046,0.162c0.027,0.072,0.04,0.121,0.04,0.143
				c0.008,0.047-0.013,0.098-0.062,0.15c-0.051,0.053-0.076,0.1-0.076,0.139c0,0.053,0.054,0.113,0.162,0.178
				c0.107,0.064,0.145,0.148,0.115,0.248c-0.023,0.062-0.086,0.123-0.185,0.184c-0.1,0.062-0.161,0.109-0.185,0.139
				c-0.039,0.062-0.045,0.133-0.018,0.213c0.027,0.082,0.068,0.145,0.121,0.191c0.016,0.016,0.021,0.029,0.018,0.045
				s-0.018,0.033-0.04,0.053c-0.023,0.018-0.045,0.033-0.063,0.045s-0.045,0.025-0.074,0.041l-0.035,0.023
				c-0.085,0.039-0.162,0.016-0.236-0.07c-0.073-0.084-0.125-0.184-0.155-0.299c-0.054-0.191-0.115-0.307-0.185-0.346
				c-0.177-0.062-0.287-0.057-0.334,0.012c-0.039-0.1-0.195-0.199-0.472-0.299c-0.192-0.07-0.415-0.086-0.669-0.047
				c0.047-0.008,0.047-0.064,0-0.172c-0.053-0.115-0.126-0.162-0.219-0.139c0.023-0.047,0.039-0.113,0.047-0.201
				c0.007-0.088,0.012-0.141,0.012-0.156c0.022-0.1,0.068-0.188,0.138-0.266c0.007-0.006,0.034-0.039,0.081-0.098
				c0.046-0.057,0.082-0.109,0.109-0.154c0.027-0.047,0.028-0.07,0.006-0.07c0.269,0.031,0.461-0.012,0.575-0.127
				c0.039-0.037,0.083-0.104,0.133-0.195s0.091-0.156,0.121-0.195c0.069-0.047,0.122-0.068,0.161-0.062
				c0.039,0.004,0.094,0.023,0.167,0.062s0.128,0.057,0.167,0.057c0.107,0.008,0.167-0.033,0.178-0.125
				c0.012-0.094-0.017-0.17-0.086-0.23c0.092,0.006,0.104-0.059,0.035-0.197c-0.039-0.053-0.069-0.088-0.093-0.104
				c-0.092-0.029-0.195-0.012-0.311,0.059c-0.062,0.029-0.054,0.062,0.022,0.092c-0.007-0.008-0.045,0.033-0.109,0.121
				s-0.128,0.156-0.189,0.201c-0.062,0.047-0.123,0.027-0.185-0.057c-0.007-0.008-0.028-0.061-0.063-0.156
				c-0.034-0.096-0.07-0.148-0.109-0.156c-0.062,0-0.122,0.059-0.184,0.174c0.022-0.062-0.02-0.119-0.127-0.174
				c-0.108-0.053-0.2-0.084-0.277-0.092c0.146-0.092,0.115-0.195-0.092-0.311c-0.053-0.029-0.132-0.051-0.236-0.057
				c-0.104-0.008-0.178,0.006-0.225,0.045c-0.038,0.053-0.059,0.098-0.062,0.133s0.016,0.064,0.057,0.092
				c0.043,0.027,0.083,0.047,0.121,0.064c0.039,0.016,0.082,0.029,0.133,0.045s0.082,0.027,0.098,0.035
				c0.108,0.076,0.139,0.131,0.093,0.16c-0.017,0.008-0.048,0.021-0.099,0.041c-0.05,0.02-0.094,0.035-0.132,0.053
				c-0.039,0.016-0.062,0.029-0.069,0.045c-0.023,0.031-0.023,0.086,0,0.162s0.016,0.131-0.023,0.16
				c-0.038-0.039-0.072-0.105-0.104-0.201c-0.029-0.096-0.057-0.16-0.08-0.189c0.053,0.068-0.042,0.092-0.288,0.068l-0.115-0.012
				c-0.03,0-0.093,0.008-0.185,0.023s-0.171,0.02-0.236,0.012c-0.064-0.008-0.116-0.039-0.154-0.092
				c-0.031-0.062-0.031-0.139,0-0.23c0.007-0.031,0.022-0.039,0.045-0.023c-0.029-0.023-0.072-0.059-0.126-0.109
				s-0.093-0.082-0.115-0.098c-0.353,0.115-0.714,0.271-1.083,0.473c0.047,0.006,0.092,0.004,0.139-0.012
				c0.039-0.016,0.088-0.041,0.149-0.076c0.062-0.033,0.1-0.055,0.115-0.062c0.261-0.107,0.422-0.135,0.483-0.08l0.059-0.059
				c0.107,0.123,0.184,0.219,0.229,0.289c-0.054-0.031-0.168-0.035-0.345-0.012c-0.154,0.045-0.238,0.092-0.254,0.139
				c0.053,0.092,0.073,0.16,0.058,0.207c-0.03-0.023-0.075-0.062-0.132-0.115c-0.059-0.055-0.114-0.098-0.168-0.127
				c-0.053-0.031-0.11-0.051-0.172-0.059c-0.123,0-0.208,0.006-0.254,0.012c-1.121,0.615-2.023,1.467-2.707,2.557
				c0.054,0.055,0.1,0.086,0.139,0.094c0.03,0.006,0.051,0.041,0.058,0.104c0.007,0.061,0.017,0.104,0.028,0.125
				c0.012,0.023,0.057,0.012,0.133-0.033c0.069,0.061,0.08,0.133,0.035,0.219c0.007-0.008,0.177,0.096,0.506,0.311
				c0.146,0.131,0.227,0.211,0.242,0.242c0.023,0.084-0.016,0.154-0.115,0.207c-0.008-0.016-0.041-0.051-0.104-0.104
				s-0.097-0.068-0.104-0.047c-0.023,0.039-0.021,0.109,0.006,0.213c0.027,0.105,0.067,0.152,0.121,0.145
				c-0.054,0-0.092,0.062-0.109,0.186c-0.02,0.121-0.029,0.258-0.029,0.408c0,0.148-0.004,0.24-0.012,0.27l0.023,0.012
				c-0.023,0.092-0.002,0.225,0.062,0.398c0.065,0.172,0.148,0.248,0.248,0.225c-0.1,0.023-0.023,0.188,0.23,0.494
				c0.046,0.062,0.076,0.098,0.092,0.104c0.023,0.016,0.069,0.045,0.139,0.088c0.069,0.041,0.127,0.08,0.173,0.115
				c0.046,0.033,0.085,0.074,0.115,0.119c0.03,0.039,0.069,0.127,0.115,0.26c0.046,0.135,0.099,0.225,0.161,0.271
				c-0.016,0.045,0.021,0.121,0.109,0.23c0.088,0.107,0.128,0.195,0.121,0.264c-0.008,0-0.018,0.006-0.029,0.012
				c-0.012,0.008-0.021,0.012-0.028,0.012c0.022,0.053,0.082,0.107,0.179,0.162c0.096,0.053,0.155,0.104,0.178,0.148
				c0.008,0.023,0.016,0.062,0.023,0.115c0.008,0.055,0.019,0.098,0.035,0.127c0.016,0.031,0.045,0.039,0.092,0.023
				c0.016-0.154-0.076-0.393-0.277-0.715c-0.115-0.191-0.18-0.303-0.195-0.334c-0.023-0.039-0.045-0.098-0.063-0.178
				s-0.036-0.137-0.052-0.168c0.016,0,0.039,0.006,0.069,0.018s0.063,0.025,0.098,0.041s0.063,0.029,0.087,0.045
				c0.022,0.018,0.029,0.027,0.022,0.035c-0.022,0.053-0.016,0.121,0.023,0.201c0.038,0.082,0.085,0.152,0.138,0.213
				c0.054,0.062,0.12,0.135,0.196,0.219c0.076,0.086,0.122,0.135,0.138,0.15c0.047,0.047,0.1,0.121,0.162,0.225
				c0.062,0.104,0.062,0.156,0,0.156c0.068,0,0.145,0.039,0.23,0.115c0.084,0.076,0.148,0.154,0.195,0.23
				c0.039,0.061,0.068,0.16,0.092,0.299s0.042,0.23,0.058,0.275c0.017,0.055,0.048,0.105,0.099,0.156
				c0.05,0.051,0.098,0.086,0.144,0.109s0.108,0.053,0.185,0.092s0.126,0.064,0.149,0.082c0.038,0.016,0.109,0.055,0.213,0.119
				c0.104,0.066,0.186,0.111,0.247,0.133c0.077,0.031,0.139,0.047,0.186,0.047c0.045,0,0.102-0.01,0.166-0.029
				c0.064-0.018,0.117-0.033,0.156-0.039c0.115-0.018,0.226,0.041,0.334,0.172c0.107,0.131,0.188,0.211,0.241,0.242
				c0.276,0.145,0.488,0.188,0.634,0.127c-0.016,0.006-0.014,0.035,0.006,0.086c0.019,0.051,0.051,0.109,0.092,0.178
				c0.042,0.07,0.076,0.125,0.104,0.168c0.027,0.041,0.048,0.074,0.063,0.098c0.039,0.045,0.108,0.104,0.208,0.172
				c0.099,0.07,0.168,0.127,0.207,0.174c0.046-0.031,0.073-0.064,0.08-0.104c-0.023,0.061,0.004,0.139,0.081,0.23
				c0.076,0.092,0.146,0.131,0.207,0.115c0.108-0.023,0.161-0.146,0.161-0.369c-0.237,0.115-0.426,0.047-0.564-0.207
				c0-0.008-0.01-0.029-0.028-0.064c-0.019-0.033-0.034-0.066-0.046-0.098c-0.012-0.029-0.021-0.062-0.029-0.098
				c-0.007-0.035-0.007-0.062,0-0.086c0.008-0.023,0.027-0.035,0.058-0.035c0.069,0,0.108-0.012,0.115-0.039s0-0.076-0.022-0.145
				c-0.023-0.07-0.039-0.119-0.047-0.15c-0.007-0.061-0.051-0.139-0.127-0.23s-0.122-0.148-0.138-0.172
				c-0.039,0.068-0.099,0.1-0.185,0.092c-0.084-0.008-0.145-0.041-0.184-0.104c0,0.008-0.006,0.029-0.018,0.062
				c-0.012,0.035-0.018,0.061-0.018,0.076c-0.1,0-0.156-0.006-0.172-0.012c0.006-0.023,0.017-0.092,0.028-0.201
				c0.011-0.111,0.024-0.197,0.04-0.26c0.008-0.031,0.029-0.076,0.063-0.139s0.063-0.117,0.087-0.166
				c0.022-0.051,0.038-0.098,0.045-0.145c0.008-0.047-0.01-0.082-0.051-0.109c-0.042-0.027-0.109-0.037-0.202-0.029
				c-0.146,0.008-0.246,0.086-0.3,0.23c-0.007,0.023-0.018,0.064-0.034,0.121c-0.016,0.059-0.034,0.102-0.058,0.133
				c-0.023,0.029-0.058,0.057-0.104,0.08c-0.053,0.023-0.146,0.031-0.276,0.023s-0.224-0.027-0.276-0.059
				c-0.1-0.061-0.186-0.172-0.26-0.334c-0.072-0.16-0.109-0.303-0.109-0.426c0-0.076,0.011-0.178,0.029-0.305
				s0.03-0.223,0.035-0.287c0.004-0.066-0.018-0.16-0.064-0.283c0.023-0.016,0.059-0.051,0.104-0.109
				c0.047-0.057,0.086-0.098,0.115-0.121c0.017-0.008,0.033-0.012,0.053-0.018c0.019-0.004,0.035-0.004,0.052,0
				c0.016,0.006,0.03,0,0.046-0.018c0.016-0.016,0.027-0.037,0.035-0.068c-0.008-0.008-0.023-0.02-0.047-0.035
				c-0.023-0.021-0.039-0.033-0.046-0.033c0.054,0.021,0.163,0.018,0.328-0.018s0.271-0.029,0.317,0.018
				c0.115,0.084,0.199,0.076,0.253-0.023c0-0.008-0.011-0.045-0.028-0.109c-0.02-0.064-0.022-0.117-0.006-0.156
				c0.038,0.207,0.149,0.242,0.334,0.104c0.022,0.023,0.082,0.043,0.178,0.059c0.097,0.016,0.163,0.035,0.201,0.057
				c0.023,0.016,0.051,0.037,0.081,0.064s0.052,0.045,0.063,0.051c0.012,0.008,0.03,0.006,0.058-0.006s0.06-0.035,0.099-0.074
				c0.076,0.107,0.121,0.199,0.138,0.277c0.085,0.307,0.157,0.477,0.219,0.506c0.054,0.023,0.097,0.029,0.126,0.023
				c0.031-0.008,0.049-0.045,0.053-0.109s0.004-0.119,0-0.162c-0.004-0.041-0.01-0.09-0.018-0.145l-0.012-0.092
				c0-0.068,0-0.137,0-0.207l-0.012-0.092c-0.115-0.023-0.186-0.068-0.213-0.139c-0.027-0.068-0.021-0.139,0.018-0.213
				c0.039-0.072,0.096-0.145,0.173-0.213c0.007-0.008,0.038-0.021,0.092-0.041c0.054-0.018,0.114-0.043,0.179-0.074
				c0.064-0.029,0.113-0.062,0.145-0.092c0.16-0.146,0.219-0.281,0.172-0.402c0.054,0,0.097-0.035,0.127-0.105
				c-0.008,0-0.027-0.01-0.058-0.033s-0.06-0.043-0.087-0.059s-0.044-0.023-0.051-0.023c0.068-0.037,0.076-0.098,0.022-0.184
				c0.039-0.023,0.067-0.064,0.087-0.127c0.019-0.061,0.047-0.1,0.086-0.115c0.069,0.092,0.15,0.1,0.242,0.023
				c0.053-0.062,0.057-0.123,0.012-0.184c0.039-0.055,0.116-0.094,0.235-0.121c0.12-0.027,0.19-0.064,0.214-0.109
				c0.053,0.016,0.084,0.008,0.092-0.023c0.007-0.029,0.012-0.076,0.012-0.139c0-0.061,0.012-0.107,0.034-0.137
				c0.03-0.039,0.088-0.074,0.173-0.105c0.085-0.029,0.134-0.049,0.149-0.057l0.196-0.127c0.022-0.029,0.022-0.045,0-0.045
				c0.138,0.016,0.258-0.029,0.357-0.127c0.076-0.086,0.053-0.162-0.07-0.23c0.023-0.047,0.012-0.082-0.034-0.109
				s-0.104-0.049-0.173-0.064c0.023-0.006,0.068-0.01,0.133-0.006c0.064,0.006,0.105,0,0.121-0.018
				C787.014,218.436,786.986,218.375,786.817,218.328L786.817,218.328z M784.422,228.383c0,0.047,0.008,0.107,0.023,0.184
				c1.582-0.275,2.93-1.002,4.042-2.176c-0.022-0.023-0.07-0.041-0.144-0.053c-0.074-0.012-0.121-0.023-0.145-0.039
				c-0.138-0.055-0.23-0.086-0.275-0.092c0.006-0.055-0.002-0.105-0.029-0.15c-0.027-0.047-0.058-0.08-0.092-0.104
				c-0.035-0.023-0.082-0.053-0.145-0.092s-0.104-0.066-0.127-0.082c-0.016-0.016-0.041-0.039-0.08-0.068
				c-0.039-0.031-0.064-0.053-0.081-0.062c-0.016-0.012-0.044-0.029-0.086-0.053s-0.075-0.029-0.099-0.023
				c-0.022,0.008-0.062,0.012-0.115,0.012l-0.034,0.012c-0.022,0.008-0.044,0.018-0.063,0.029c-0.019,0.012-0.04,0.023-0.062,0.033
				c-0.023,0.012-0.039,0.023-0.047,0.035c-0.007,0.012-0.007,0.021,0,0.029c-0.161-0.131-0.299-0.215-0.414-0.254
				c-0.039-0.008-0.081-0.029-0.127-0.062c-0.046-0.035-0.086-0.062-0.121-0.082c-0.034-0.018-0.073-0.023-0.115-0.016
				c-0.041,0.006-0.086,0.033-0.133,0.08c-0.038,0.039-0.062,0.096-0.068,0.172c-0.008,0.076-0.016,0.127-0.023,0.15
				c-0.053-0.039-0.053-0.105,0-0.201c0.054-0.098,0.062-0.168,0.023-0.213c-0.023-0.047-0.063-0.064-0.121-0.053
				s-0.104,0.029-0.139,0.053c-0.034,0.021-0.078,0.055-0.132,0.098c-0.054,0.041-0.088,0.066-0.104,0.074
				c-0.017,0.008-0.048,0.029-0.099,0.064c-0.05,0.033-0.082,0.062-0.098,0.086c-0.023,0.029-0.046,0.076-0.068,0.139
				c-0.023,0.061-0.042,0.104-0.059,0.125c-0.016-0.029-0.059-0.055-0.132-0.074s-0.109-0.041-0.109-0.062
				c0.016,0.076,0.03,0.211,0.046,0.402s0.035,0.338,0.058,0.438c0.054,0.238,0.007,0.422-0.138,0.553
				c-0.208,0.191-0.318,0.346-0.334,0.461c-0.031,0.168,0.016,0.27,0.138,0.299c0,0.055-0.03,0.133-0.093,0.236
				C784.44,228.238,784.414,228.32,784.422,228.383L784.422,228.383z"/>
		</g>
	</g>
	<g>
		<g>
			<defs>
				<path id="SVGID_92_" d="M365.961,138.288h6.73c1.06,0,1.921-0.86,1.921-1.922v-22.604c0-1.062-0.861-1.922-1.921-1.922h-22.603
					c-1.061,0-1.922,0.859-1.922,1.922v22.604c0,1.062,0.861,1.922,1.922,1.922h6.817l4.525,4.527L365.961,138.288z"/>
			</defs>
			<use xlink:href="#SVGID_92_"  overflow="visible" fill-rule="evenodd" clip-rule="evenodd" fill="#91D4EE"/>
			<clipPath id="SVGID_93_">
				<use xlink:href="#SVGID_92_"  overflow="visible"/>
			</clipPath>
			
				<rect x="340.797" y="104.469" clip-path="url(#SVGID_93_)" fill-rule="evenodd" clip-rule="evenodd" fill="#91D4EE" width="41.188" height="45.717"/>
		</g>
		<g>
			<defs>
				<path id="SVGID_94_" d="M365.961,133.288h6.73c1.06,0,1.921-0.86,1.921-1.922v-22.604c0-1.062-0.861-1.922-1.921-1.922h-22.603
					c-1.061,0-1.922,0.859-1.922,1.922v22.604c0,1.062,0.861,1.922,1.922,1.922h6.817l4.525,4.527L365.961,133.288z"/>
			</defs>
			<clipPath id="SVGID_95_">
				<use xlink:href="#SVGID_94_"  overflow="visible"/>
			</clipPath>
			
				<rect x="340.797" y="99.469" clip-path="url(#SVGID_95_)" fill-rule="evenodd" clip-rule="evenodd" fill="#FFFFFF" width="41.188" height="45.717"/>
		</g>
		<g>
			<defs>
				<polygon id="SVGID_96_" points="365.477,121.95 371.482,121.95 361.437,111.906 351.388,121.95 357.362,121.95 357.362,123.425 
					357.367,123.425 357.367,128.383 365.479,128.383 365.479,123.425 365.477,123.425 				"/>
			</defs>
			<clipPath id="SVGID_97_">
				<use xlink:href="#SVGID_96_"  overflow="visible"/>
			</clipPath>
			
				<rect x="344.017" y="104.535" clip-path="url(#SVGID_97_)" fill-rule="evenodd" clip-rule="evenodd" fill="#31A0CE" width="34.837" height="31.22"/>
		</g>
	</g>
	<g>
		<g>
			<defs>
				<path id="SVGID_98_" d="M526.313,183.023l-4.529,4.527l-4.526-4.527h-6.814c-1.062,0-1.924-0.859-1.924-1.922V158.5
					c0-1.062,0.861-1.922,1.924-1.922h22.6c1.062,0,1.923,0.859,1.923,1.922v22.602c0,1.062-0.86,1.922-1.923,1.922H526.313z"/>
			</defs>
			<use xlink:href="#SVGID_98_"  overflow="visible" fill-rule="evenodd" clip-rule="evenodd" fill="#91D4EE"/>
			<clipPath id="SVGID_99_">
				<use xlink:href="#SVGID_98_"  overflow="visible"/>
			</clipPath>
			
				<rect x="501.148" y="149.207" clip-path="url(#SVGID_99_)" fill-rule="evenodd" clip-rule="evenodd" fill="#91D4EE" width="41.188" height="45.715"/>
		</g>
		<g>
			<defs>
				<path id="SVGID_100_" d="M526.313,178.023l-4.529,4.527l-4.526-4.527h-6.814c-1.062,0-1.924-0.859-1.924-1.922V153.5
					c0-1.062,0.861-1.922,1.924-1.922h22.6c1.062,0,1.923,0.859,1.923,1.922v22.602c0,1.062-0.86,1.922-1.923,1.922H526.313z"/>
			</defs>
			<clipPath id="SVGID_101_">
				<use xlink:href="#SVGID_100_"  overflow="visible"/>
			</clipPath>
			
				<rect x="501.148" y="144.207" clip-path="url(#SVGID_101_)" fill-rule="evenodd" clip-rule="evenodd" fill="#FFFFFF" width="41.188" height="45.715"/>
		</g>
		<g>
			<defs>
				<path id="SVGID_102_" d="M530.032,161.461c0,0.256-0.077,0.608-0.229,1.051c-0.312,0.887-0.854,1.607-1.635,2.16
					c-0.777,0.553-1.633,0.83-2.566,0.83c-1.225,0-2.272-0.437-3.144-1.308c-0.87-0.87-1.308-1.917-1.308-3.143
					s0.438-2.273,1.308-3.145c0.871-0.869,1.919-1.306,3.144-1.306c0.384,0,0.787,0.055,1.207,0.164s0.775,0.266,1.068,0.463
					c0.104,0.071,0.158,0.165,0.158,0.277s-0.055,0.206-0.158,0.277l-2.911,1.679v2.225l1.917,1.062
					c0.032-0.019,0.295-0.18,0.783-0.481c0.493-0.301,0.941-0.571,1.348-0.805c0.406-0.234,0.641-0.353,0.7-0.353
					c0.101,0,0.176,0.033,0.233,0.101C530.005,161.277,530.032,161.36,530.032,161.461z M517.148,170.398
					c0.125-0.125,0.19-0.274,0.19-0.447c0-0.171-0.065-0.321-0.19-0.446s-0.273-0.188-0.446-0.188s-0.322,0.062-0.446,0.188
					c-0.127,0.125-0.189,0.275-0.189,0.446c0,0.173,0.062,0.322,0.189,0.447c0.124,0.126,0.273,0.188,0.446,0.188
					S517.023,170.524,517.148,170.398z M523.733,165.78l-6.773,6.773c-0.245,0.245-0.542,0.367-0.894,0.367
					c-0.345,0-0.646-0.122-0.902-0.367l-1.055-1.072c-0.252-0.239-0.379-0.537-0.379-0.895c0-0.351,0.127-0.65,0.379-0.903
					l6.766-6.764c0.258,0.649,0.636,1.224,1.137,1.724C522.51,165.143,523.086,165.521,523.733,165.78z"/>
			</defs>
			<clipPath id="SVGID_103_">
				<use xlink:href="#SVGID_102_"  overflow="visible"/>
			</clipPath>
			
				<rect x="506.359" y="149.231" clip-path="url(#SVGID_103_)" fill-rule="evenodd" clip-rule="evenodd" fill="#737571" width="31.043" height="31.06"/>
		</g>
	</g>
	<g>
		<g>
			<defs>
				<path id="SVGID_104_" d="M704.36,121.823h6.729c1.062,0,1.923-0.859,1.923-1.922V97.299c0-1.062-0.86-1.924-1.923-1.924h-22.6
					c-1.064,0-1.926,0.861-1.926,1.924v22.602c0,1.062,0.861,1.922,1.926,1.922h6.814l4.526,4.528L704.36,121.823z"/>
			</defs>
			<use xlink:href="#SVGID_104_"  overflow="visible" fill-rule="evenodd" clip-rule="evenodd" fill="#91D4EE"/>
			<clipPath id="SVGID_105_">
				<use xlink:href="#SVGID_104_"  overflow="visible"/>
			</clipPath>
			
				<rect x="679.193" y="88.004" clip-path="url(#SVGID_105_)" fill-rule="evenodd" clip-rule="evenodd" fill="#91D4EE" width="41.19" height="45.718"/>
		</g>
		<g>
			<defs>
				<path id="SVGID_106_" d="M704.36,116.823h6.729c1.062,0,1.923-0.859,1.923-1.922V92.299c0-1.062-0.86-1.924-1.923-1.924h-22.6
					c-1.064,0-1.926,0.861-1.926,1.924v22.602c0,1.062,0.861,1.922,1.926,1.922h6.814l4.526,4.528L704.36,116.823z"/>
			</defs>
			<clipPath id="SVGID_107_">
				<use xlink:href="#SVGID_106_"  overflow="visible"/>
			</clipPath>
			
				<rect x="679.193" y="83.004" clip-path="url(#SVGID_107_)" fill-rule="evenodd" clip-rule="evenodd" fill="#FFFFFF" width="41.19" height="45.718"/>
		</g>
		<g>
			<defs>
				<path id="SVGID_108_" d="M708.613,101.875c0,0.155-0.091,0.325-0.275,0.508l-3.852,3.756l0.914,5.305
					c0.006,0.049,0.01,0.119,0.01,0.211c0,0.148-0.036,0.273-0.111,0.377c-0.074,0.103-0.183,0.153-0.324,0.153
					c-0.133,0-0.274-0.042-0.424-0.127l-4.762-2.504l-4.764,2.504c-0.154,0.085-0.298,0.127-0.424,0.127
					c-0.148,0-0.26-0.051-0.334-0.153c-0.074-0.104-0.111-0.229-0.111-0.377c0-0.041,0.006-0.112,0.02-0.211l0.913-5.305
					l-3.86-3.756c-0.178-0.189-0.266-0.359-0.266-0.508c0-0.262,0.197-0.425,0.595-0.488l5.323-0.774l2.387-4.829
					c0.135-0.287,0.309-0.433,0.521-0.433c0.211,0,0.385,0.146,0.519,0.433l2.388,4.829l5.324,0.774
					C708.416,101.451,708.613,101.614,708.613,101.875"/>
			</defs>
			<clipPath id="SVGID_109_">
				<use xlink:href="#SVGID_108_"  overflow="visible"/>
			</clipPath>
			
				<rect x="683.592" y="87.98" clip-path="url(#SVGID_109_)" fill-rule="evenodd" clip-rule="evenodd" fill="#31A0CE" width="32.393" height="31.575"/>
		</g>
	</g>
	<g>
		<text transform="matrix(1 0 0 1 78.5 45.8823)" fill="#FFFFFF" font-family="'OpenSans-Light'" font-size="24.3243">Timeline</text>
	</g>
</g>
</svg>
