<?xml version="1.0" encoding="utf-8"?>
<!-- Generator: Adobe Illustrator 16.0.4, SVG Export Plug-In . SVG Version: 6.00 Build 0)  -->
<!DOCTYPE svg PUBLIC "-//W3C//DTD SVG 1.1//EN" "http://www.w3.org/Graphics/SVG/1.1/DTD/svg11.dtd">
<svg version="1.1" id="Layer_1" xmlns="http://www.w3.org/2000/svg" xmlns:xlink="http://www.w3.org/1999/xlink" x="0px" y="0px"
	 width="500px" height="350px" viewBox="0 0 500 350" enable-background="new 0 0 500 350" xml:space="preserve">
<g id="long">
	<g>
		<rect x="87.816" y="96.106" fill="none" width="311.911" height="221.044"/>
		<text transform="matrix(0.9984 0 0 1 87.8154 105.1577)" fill="#3E474E" font-family="'OpenSans-Light'" font-size="11.9115">Once you get over the sticker shock, you’ve got to ask </text>
		<text transform="matrix(0.9984 0 0 1 87.8154 121.041)" fill="#3E474E" font-family="'OpenSans-Light'" font-size="11.9115">yourself, “Do I need a $300 day bag?” For most people, the </text>
		<text transform="matrix(0.9984 0 0 1 87.8154 136.9219)" fill="#3E474E" font-family="'OpenSans-Light'" font-size="11.9115">answer is no. A $45 backpack will get your goods from A to </text>
		<text transform="matrix(0.9984 0 0 1 87.8154 152.8047)" fill="#3E474E" font-family="'OpenSans-Light'" font-size="11.9115">B just as capably as this backpack.</text>
		<text transform="matrix(0.9984 0 0 1 87.8154 184.5674)" fill="#3E474E" font-family="'OpenSans-Light'" font-size="11.9115">But, unlike this backpack, a cheap bag doesn’t look both </text>
		<text transform="matrix(0.9984 0 0 1 87.8154 200.4512)" fill="#3E474E" font-family="'OpenSans-Light'" font-size="11.9115">badass and understated at the same time. A cheap bag </text>
		<text transform="matrix(0.9984 0 0 1 87.8154 216.333)" fill="#3E474E" font-family="'OpenSans-Light'" font-size="11.9115">won’t stand up to the punishment that it can take, either. </text>
	</g>
	<g>
		<rect x="87.816" y="47.751" fill="none" width="311.911" height="42.372"/>
		<text transform="matrix(0.9984 0 0 1 87.8154 57.8096)" fill="#3E474E" font-family="'OpenSansLight-Italic'" font-size="13.235">This rucksack will last you for years and</text>
		<text transform="matrix(0.9984 0 0 1 87.8154 76.1914)" fill="#3E474E" font-family="'OpenSansLight-Italic'" font-size="13.235">will be the last bag you’ll have to </text>
		
			<text transform="matrix(0.9984 0 0 1 271.6338 76.1914)" fill="#3E474E" font-family="'OpenSansLight-Italic'" font-size="13.235">o</text>
		
			<text transform="matrix(0.9984 0 0 1 278.6211 76.1914)" fill="#3E474E" font-family="'OpenSansLight-Italic'" font-size="13.235">wn. </text>
	</g>
	<g>
		<rect x="200.713" y="237.794" fill="none" width="199.014" height="127.356"/>
		<text transform="matrix(0.9984 0 0 1 200.7129 246.8467)" fill="#3E474E" font-family="'OpenSans-Light'" font-size="11.9115">With a bag like this, you’re not paying </text>
		<text transform="matrix(0.9984 0 0 1 200.7129 262.7285)" fill="#3E474E" font-family="'OpenSans-Light'" font-size="11.9115">for cache that comes with a </text>
		<text transform="matrix(0.9984 0 0 1 200.7129 278.6104)" fill="#3E474E" font-family="'OpenSans-Light'" font-size="11.9115">well-known label. You’re paying for </text>
		<text transform="matrix(0.9984 0 0 1 200.7129 294.4932)" fill="#3E474E" font-family="'OpenSans-Light'" font-size="11.9115">dependability. You’re investing in </text>
		<text transform="matrix(0.9984 0 0 1 200.7129 310.374)" fill="#3E474E" font-family="'OpenSans-Light'" font-size="11.9115">something that will last you for a </text>
		<text transform="matrix(0.9984 0 0 1 200.7129 326.2568)" fill="#3E474E" font-family="'OpenSans-Light'" font-size="11.9115">decade instead of a few years.</text>
	</g>
	<rect x="87.816" y="237.794" opacity="0.2" fill="#3E474E" enable-background="new    " width="96.369" height="88.899"/>
	<text transform="matrix(0.9984 0 0 1 87.8145 35.936)" fill="#22ACE3" font-family="'OpenSans-Light'" font-size="22.0583">$300 Killer Backpack</text>
	<linearGradient id="SVGID_1_" gradientUnits="userSpaceOnUse" x1="247.7422" y1="346.0459" x2="247.7422" y2="221.0135">
		<stop  offset="0" style="stop-color:#FFFFFF"/>
		<stop  offset="1" style="stop-color:#FFFFFF;stop-opacity:0"/>
	</linearGradient>
	<rect x="81.769" y="229.136" fill="url(#SVGID_1_)" width="331.946" height="112.498"/>
</g>
</svg>
